<mxfile host="app.diagrams.net" modified="2022-01-09T04:38:03.986Z" agent="5.0 (Macintosh; Intel Mac OS X 10_15_7) AppleWebKit/537.36 (KHTML, like Gecko) Chrome/96.0.4664.110 Safari/537.36" etag="dhZ38XHICeFdHR_5u_tT" version="16.2.1" type="github">
  <diagram id="D2x7FjEo-7vogk4ZdeKT" name="Page-1">
    <mxGraphModel dx="878" dy="538" grid="1" gridSize="10" guides="1" tooltips="1" connect="1" arrows="1" fold="1" page="1" pageScale="1" pageWidth="827" pageHeight="1169" math="0" shadow="0">
      <root>
        <mxCell id="0" />
        <mxCell id="1" parent="0" />
        <mxCell id="DRB7Dr7BawN4_-SsMaci-17" style="edgeStyle=orthogonalEdgeStyle;rounded=0;orthogonalLoop=1;jettySize=auto;html=1;" edge="1" parent="1" source="DRB7Dr7BawN4_-SsMaci-3" target="DRB7Dr7BawN4_-SsMaci-7">
          <mxGeometry relative="1" as="geometry" />
        </mxCell>
        <mxCell id="DRB7Dr7BawN4_-SsMaci-19" value="&lt;font style=&quot;font-size: 11px&quot;&gt;&lt;b&gt;Using&lt;br&gt;the Model&lt;/b&gt;&lt;/font&gt;" style="edgeLabel;html=1;align=center;verticalAlign=middle;resizable=0;points=[];fontSize=13;" vertex="1" connectable="0" parent="DRB7Dr7BawN4_-SsMaci-17">
          <mxGeometry x="-0.2525" y="4" relative="1" as="geometry">
            <mxPoint x="17" y="-3" as="offset" />
          </mxGeometry>
        </mxCell>
        <mxCell id="DRB7Dr7BawN4_-SsMaci-3" value="" style="shape=image;verticalLabelPosition=bottom;labelBackgroundColor=default;verticalAlign=top;aspect=fixed;imageAspect=0;image=data:image/png,iVBORw0KGgoAAAANSUhEUgAAAKwAAACyCAYAAADf7SQzAAAMbGlDQ1BJQ0MgUHJvZmlsZQAASImVVwdYU8kWnltSSWgBBKSE3gSRGkBKCC2A9G4jJIGEEmNCULGXRQXXLqJY0VURBcsKiB27sij2vlhQUdZFXWyovAkJ6LqvfO9839z758yZ/5Q7k3sPAFofeFJpPqoNQIGkUJYQHsxMS89gkp4CBKDAAJCAIY8vl7Lj4qIBlIH73+XdDWgN5aqzkuuf8/9VdAVCOR8AZAzEWQI5vwDi4wDg6/hSWSEARKXealKhVIlnQawngwFCvFKJc1R4hxJnqfDhfpukBA7ElwEg03g8WQ4AmvegnlnEz4E8mp8hdpUIxBIAtIZBHMAX8QQQK2MfVlAwQYkrILaH9lKIYTyAlfUdZ87f+LMG+Xm8nEGsyqtfyCFiuTSfN+X/LM3/loJ8xYAPWzhoIllEgjJ/WMNbeROilJgGcZckKyZWWWuIP4gFqroDgFJFiohklT1qwpdzYP3gMweoq4AXEgWxCcRhkvyYaLU+K1scxoUY7hZ0sriQmwSxIcQLhPLQRLXNJtmEBLUvtD5bxmGr9ed4sn6/Sl8PFHnJbDX/G5GQq+bHNItFSakQUyG2LhKnxECsCbGLPC8xSm0zsljEiRmwkSkSlPFbQ5wglIQHq/ixomxZWILavrRAPpAvtkkk5sao8b5CUVKEqj7YKT6vP36YC3ZZKGEnD/AI5WnRA7kIhCGhqtyx50JJcqKa54O0MDhBtRanSvPj1Pa4pTA/XKm3hNhDXpSoXounFMLNqeLHs6WFcUmqOPHiXF5knCoefCmIBhwQAphAAUcWmABygbi1q6EL/lLNhAEekIEcIATOas3AitT+GQm8JoJi8AdEQiAfXBfcPysERVD/ZVCrujqD7P7Zov4VeeApxAUgCuTD34r+VZJBbyngCdSI/+GdBwcfxpsPh3L+3+sHtN80bKiJVmsUAx6ZWgOWxFBiCDGCGEZ0wI3xANwPj4bXIDjccBbuM5DHN3vCU0Ib4RHhOqGdcHu8eI7shyhHgXbIH6auRdb3tcBtIacnHoz7Q3bIjBvgxsAZ94B+2Hgg9OwJtRx13MqqMH/g/lsG3z0NtR3FlYJShlCCKPY/rtR01PQcZFHW+vv6qGLNGqw3Z3DmR/+c76ovgPeoHy2xBdh+7Cx2AjuPHcYaABM7hjViLdgRJR7cXU/6d9eAt4T+ePIgj/gf/nhqn8pKyl1rXDtdP6vmCoWTC5UHjzNBOkUmzhEVMtnw7SBkciV8l2FMN1c3NwCU7xrV39fb+P53CGLQ8k0393cA/I/19fUd+qaLPAbAXm94/A9+09mzANDRAODcQb5CVqTS4coLAf5LaMGTZgTMgBWwh/m4AS/gB4JAKIgEsSAJpINxsMoiuM9lYBKYBmaDElAGloJVYC3YCLaAHWA32AcawGFwApwBF8FlcB3chbunA7wE3eAd6EUQhITQEQZihJgjNogT4oawkAAkFIlGEpB0JBPJQSSIApmGzEXKkOXIWmQzUo3sRQ4iJ5DzSBtyG3mIdCJvkE8ohtJQPdQUtUWHoyyUjUahSehYNAediBaj89DFaAVahe5C69ET6EX0OtqOvkR7MIBpYAaYBeaMsTAOFotlYNmYDJuBlWLlWBVWizXB53wVa8e6sI84EWfgTNwZ7uAIPBnn4xPxGfgifC2+A6/HT+FX8Yd4N/6VQCeYEJwIvgQuIY2QQ5hEKCGUE7YRDhBOw7PUQXhHJBINiHZEb3gW04m5xKnERcT1xDricWIb8TGxh0QiGZGcSP6kWBKPVEgqIa0h7SIdI10hdZA+kDXI5mQ3chg5gywhzyGXk3eSj5KvkJ+ReynaFBuKLyWWIqBMoSyhbKU0US5ROii9VB2qHdWfmkTNpc6mVlBrqaep96hvNTQ0LDV8NOI1xBqzNCo09mic03io8ZGmS3OkcWhjaAraYtp22nHabdpbOp1uSw+iZ9AL6Yvp1fST9Af0D5oMTRdNrqZAc6ZmpWa95hXNV1oULRstttY4rWKtcq39Wpe0urQp2rbaHG2e9gztSu2D2je1e3QYOiN0YnUKdBbp7NQ5r/Ncl6RrqxuqK9Cdp7tF96TuYwbGsGJwGHzGXMZWxmlGhx5Rz06Pq5erV6a3W69Vr1tfV99DP0V/sn6l/hH9dgPMwNaAa5BvsMRgn8ENg09DTIewhwiHLBxSO+TKkPeGQw2DDIWGpYZ1htcNPxkxjUKN8oyWGTUY3TfGjR2N440nGW8wPm3cNVRvqN9Q/tDSofuG3jFBTRxNEkymmmwxaTHpMTUzDTeVmq4xPWnaZWZgFmSWa7bS7KhZpznDPMBcbL7S/Jj5C6Y+k83MZ1YwTzG7LUwsIiwUFpstWi16Le0sky3nWNZZ3reiWrGssq1WWjVbdVubW4+ynmZdY33HhmLDshHZrLY5a/Pe1s421Xa+bYPtcztDO65dsV2N3T17un2g/UT7KvtrDkQHlkOew3qHy46oo6ejyLHS8ZIT6uTlJHZa79Q2jDDMZ5hkWNWwm840Z7ZzkXON80MXA5dolzkuDS6vhlsPzxi+bPjZ4V9dPV3zXbe63h2hOyJyxJwRTSPeuDm68d0q3a65093D3Ge6N7q/9nDyEHps8LjlyfAc5Tnfs9nzi5e3l8yr1qvT29o703ud902WHiuOtYh1zofgE+wz0+ewz0dfL99C332+f/o5++X57fR7PtJupHDk1pGP/S39ef6b/dsDmAGZAZsC2gMtAnmBVYGPgqyCBEHbgp6xHdi57F3sV8GuwbLgA8HvOb6c6ZzjIVhIeEhpSGuobmhy6NrQB2GWYTlhNWHd4Z7hU8OPRxAioiKWRdzkmnL53Gpud6R35PTIU1G0qMSotVGPoh2jZdFNo9BRkaNWjLoXYxMjiWmIBbHc2BWx9+Ps4ibGHYonxsfFV8Y/TRiRMC3hbCIjcXzizsR3ScFJS5LuJtsnK5KbU7RSxqRUp7xPDUldntqeNjxtetrFdON0cXpjBikjJWNbRs/o0NGrRneM8RxTMubGWLuxk8eeH2c8Ln/ckfFa43nj92cSMlMzd2Z+5sXyqng9WdysdVndfA5/Nf+lIEiwUtAp9BcuFz7L9s9env08xz9nRU6nKFBULuoSc8Rrxa9zI3I35r7Pi83bnteXn5pfV0AuyCw4KNGV5ElOTTCbMHlCm9RJWiJtn+g7cdXEblmUbJsckY+VNxbqwY/6FoW94ifFw6KAosqiD5NSJu2frDNZMrlliuOUhVOeFYcV/zIVn8qf2jzNYtrsaQ+ns6dvnoHMyJrRPNNq5ryZHbPCZ+2YTZ2dN/u3Oa5zls/5a27q3KZ5pvNmzXv8U/hPNSWaJbKSm/P95m9cgC8QL2hd6L5wzcKvpYLSC2WuZeVlnxfxF134ecTPFT/3Lc5e3LrEa8mGpcSlkqU3lgUu27FcZ3nx8scrRq2oX8lcWbryr1XjV50v9yjfuJq6WrG6vSK6onGN9Zqlaz6vFa29XhlcWbfOZN3Cde/XC9Zf2RC0oXaj6cayjZ82iTfd2hy+ub7Ktqp8C3FL0ZanW1O2nv2F9Uv1NuNtZdu+bJdsb9+RsONUtXd19U6TnUtq0BpFTeeuMbsu7w7Z3VjrXLu5zqCubA/Yo9jzYm/m3hv7ovY172ftr/3V5td1BxgHSuuR+in13Q2ihvbG9Ma2g5EHm5v8mg4ccjm0/bDF4coj+keWHKUenXe071jxsZ7j0uNdJ3JOPG4e33z3ZNrJa6fiT7Wejjp97kzYmZNn2WePnfM/d/i87/mDF1gXGi56Xaxv8Ww58JvnbwdavVrrL3lfarzsc7mpbWTb0SuBV05cDbl65hr32sXrMdfbbiTfuHVzzM32W4Jbz2/n3359p+hO791Z9wj3Su9r3y9/YPKg6neH3+vavdqPPAx52PIo8dHdx/zHL5/In3zumPeU/rT8mfmz6uduzw93hnVefjH6RcdL6cverpI/dP5Y98r+1a9/Bv3Z0p3W3fFa9rrvzaK3Rm+3/+XxV3NPXM+DdwXvet+XfjD6sOMj6+PZT6mfnvVO+kz6XPHF4UvT16iv9/oK+vqkPBmv/1MAgwPNzgbgzXYA6OkAMGDfRh2t6gX7BVH1r/0I/Ces6hf7xQuAWvj9Ht8Fv25uArBnK2y/IL8W7FXj6AAk+QDU3X1wqEWe7e6m4qLBPoXwoK/vLezZSCsA+LK0r6+3qq/vyxYYLOwdj0tUPahSiLBn2BT6JasgC/wbUfWn3+X44x0oI/AAP97/BUvpkJ188R2WAAAAimVYSWZNTQAqAAAACAAEARoABQAAAAEAAAA+ARsABQAAAAEAAABGASgAAwAAAAEAAgAAh2kABAAAAAEAAABOAAAAAAAAAJAAAAABAAAAkAAAAAEAA5KGAAcAAAASAAAAeKACAAQAAAABAAAArKADAAQAAAABAAAAsgAAAABBU0NJSQAAAFNjcmVlbnNob3T3keFFAAAACXBIWXMAABYlAAAWJQFJUiTwAAAB1mlUWHRYTUw6Y29tLmFkb2JlLnhtcAAAAAAAPHg6eG1wbWV0YSB4bWxuczp4PSJhZG9iZTpuczptZXRhLyIgeDp4bXB0az0iWE1QIENvcmUgNi4wLjAiPgogICA8cmRmOlJERiB4bWxuczpyZGY9Imh0dHA6Ly93d3cudzMub3JnLzE5OTkvMDIvMjItcmRmLXN5bnRheC1ucyMiPgogICAgICA8cmRmOkRlc2NyaXB0aW9uIHJkZjphYm91dD0iIgogICAgICAgICAgICB4bWxuczpleGlmPSJodHRwOi8vbnMuYWRvYmUuY29tL2V4aWYvMS4wLyI+CiAgICAgICAgIDxleGlmOlBpeGVsWURpbWVuc2lvbj4xNzg8L2V4aWY6UGl4ZWxZRGltZW5zaW9uPgogICAgICAgICA8ZXhpZjpQaXhlbFhEaW1lbnNpb24+MTcyPC9leGlmOlBpeGVsWERpbWVuc2lvbj4KICAgICAgICAgPGV4aWY6VXNlckNvbW1lbnQ+U2NyZWVuc2hvdDwvZXhpZjpVc2VyQ29tbWVudD4KICAgICAgPC9yZGY6RGVzY3JpcHRpb24+CiAgIDwvcmRmOlJERj4KPC94OnhtcG1ldGE+CmrMVwEAAAAcaURPVAAAAAIAAAAAAAAAWQAAACgAAABZAAAAWQAAUsTv2qypAABAAElEQVR4Aey913NcWZbut9IAyIT33gMkARL0ZBlWu+rqUdzpmRt6vi/3v1DoQa+KUIQeFHrQP6DQw31XaGY03TXd1eWr6D0BwnvvPdLo962TSVPVXcWD7mJ1hXjIhEnkOWefvb+99rfsjmQ57M3xpgd+Ij0QeQPYn8hIvWmm90Akm0bCSsZGzDK8DrMZy0QjvBWxAt6Ov8aO4vahjzfLQ+gu+7s4IT9uWt8juYHXe/lXBhxm02krisYsyr9sBkTywUjmkFPSfCwesRQnbmSO7CgetYzFrJQLJI+DomN0iW4TPcZ5esDMMc57c8qP2wPPgJlm3DXwAEDjyK8GNg0UWnpvz6oKkgjOuGWP+EiMV+YIwPLJCKJ04/DIxpbnbO1o13ajaYsc8QeBOdSBwGZ2BHPl1U+MZJk9vLzlr36a6ZSwLVTncLewt/Ib+XIU+oYhHij/0Z9CG/NtDfudZ4tGQCn9mE1nACyjwSsDIDMR4KgXWIzzt56GVmsurbISBGg0FgMjUALhKwtgF7d27PboY5taX7Ll/S0TltMh4aABzWaZJw7aME8icR9exjpg6YAwh8Dqy0t+LXrFk6Wf+itkn7zi5V/62LHbqP5HROnf3+uhZ4tqeaeJEbAXlYgVDeWXtMAKdqKZjBXHCuzyyTN2oqHNKuNF/nvAYXmyQ86Z3dywLx7fseHFGZvbXLFIcaFZkZhsmEMdJQkb8tBp2ajkXqjDTwt5kn/8+ZcQ9+Nuwf8Q5xzvo8+bF/Lhcg1Uv/y9HppQmSMJtSw0EPBKwgLgDIAVWNPplMWQRKUFRfbuwEU709ptdYVlVgoNiHCy9Cvb5+mmt9btk0e37On8pM0gZaPFRRZLANqwB9cL281+C6cEYW/Gcx/nZj6iYYf1uA8W/pmC/tDXv/M2HuPRBNg0gNWwCbCiA1rsgKtlkKwOWPBcilT92bkrdr7jhDUUVlgJNMIBK+uAA3Zv0z57Igk7ZbMbS5BcEI2WFuZQI/INCHOeQ/xYyNMNw92JKeo8W8t7mCOgEXRayPuFucezz9I015T/ntv4rLHhf5CUVH/GXujMrNOBtKVTSFj0p5JIof184LKdb++1pmSFJfisU4I0A7DHa2p33T4fvGtPl6ZtfnMJmlvABcMZtoKxDAeE54/7OpDw/G5hW/l6Wxe086fQxuc9+mo/ZQFeFt4qrMqAqkVe/yToXM5CCaIHABb8/UKAbe0BsOWWiBcA2FQ2m+JjewjSye1V++zpXRsWYLeWrTBbxCssh5VkCPjJqzX/+aecm4QVl89Pf+Wf1C0RddgrnxF80LvVFZqQJx7j40EbkSghWymAZ1lWwwL9GE08/ik8XDqG0iStC7CmM2lfTaJxrAC8J/tr9DBtJVgCfnkGSiDAFpVZEn0qMGtx610E6dTOmn06dA8JO4XStWSFVgTGw3NY5oy6LeQD+RCFPCf38bC3EgzCojV/K79X6Bse47l+Cm08xmNxiphfGrwGDDAArIRBtFCA5X0AG9lPWTIDYAeu2MW2XmsuKrdkARTVHQdc5BBBOrmz4RJ2EA47s7FoBZEi/AnhAatZchzASmc8znEc7IXlr/l2iXe9ruOn0Mbj9IXQoTUgr7KkWZFlIYhJgtK9GSiB7aUsgZnzVwNXAewJa0kAWBxakcwBMlkfcsCidA3ft8HFSZsGsHLORo7BYWWmCLmS8QgCwjHOO46w4xxpo5rVYQ6B1Q3eauprOLyNYZUu+tDtmq+pjcfqhgCxwan0aUrW/iiATQBC2i3AZnYPrSgFYM9etUsO2AorxhsbyewFPZJFkE5tb9gnT+/ZEwA7tb6AZ6GI1/EkbFhB9NfwVxfoIXrOYcpjh4Nrbg7yYK8DCz+FNobo8pc/ysPFEKLqSUnZI/yuchjEk2BN3i4Am907sgSA/fW5t+xSeyBhEwJsejfQIiIFEZvYWrOPB+/Y44UJm1yft8KiUosXJl++2ff+BhAQ8aGXM4BwHEoQFqz55gcmqnDQ0zOFfq78DY/x/afQxmM8Fl4ss0ICVzR2WucO0ocuZeMlRcS0KNAFpX3/yIrTMfvgwtt2pf2kNSfKDCvrcw6b4peJzTX7BDvs4OKETa8vWpzAgzjG29CHCLX+adn1F/LTJRONlOh1nOhLIOP0Vb8R6+g/+Wf01+DPfEpzkU9ANfK8R39zF17uXL698uG316fVljCHABvm83/lZ711x2ijbvs62xn2MfVcUQ0kslKvDACVDTaC0pWN4fESjPehBHDY35wHsB2nrC1RCRaFEcxawsIeIJtEwn4KYIcWJnEcLFoMShAPSwm8NZKWtEXmCgIY1KhngHWvRmCDy3eqYCCwRqQdCtg+SLpQcJ2sHo7/st8JZGqwTwjOYT4eU1UL281vPv+36gENZ1Y4QJgZDgKp2ootUChJJgqAeaUBbCEerQ/Ov2NvAdh2AFsgpetvDVgtmbKr6QjIP63LH443GiobqCtmwd9cudAsSymGLACsf0auOD2IZiHAzxA5xuVd8YnigYsTvRPQD5nR3hw/lR7IAxageERgHrBpgRUOm3XAHrwA2L5XB2wsGtJxIMDmJGVgCBZKsbvltHJBNALQYjIc6w9IyDQNF/A048RpXOI6qBVShgzVygFY5X/2cDSYeTwat0LWCDkpZBZ5c/yEekDUTsPPmEYYU8SSS1gHLO9nY4z1PoDFBfvBBUnYHxiwEFeXoIpf1LKv+MUj/MOSpMKoJG9McQrqYwejqABLO/wlxWdSAF4PFAGssYJC/haAO3OI9pji2uAzTjRvAaD1CJ/jal66/5vj9fcAAy+u+rcHbLQQcIWTsKzgLhWFRg8jA3wZXhKTSnUowB9cBAgTvAS4mCQpOFYspGxxe4cHtstrP4XmKGsD7joBP8pnBW591h+U7yLuHjDxBrCvH3R/zR0FEkxULwJWbz3jsEjYDBy2AAn7GyTsVThsR6Lq+zlsFMDGBJQQh7hnvEhLddZSh4eWdqlIbg7BuEniG8sSJbyKrayomN9x/vJ+HAkqSXlIWsTm3o6t72zb+u6W7Rzt24GWewGW5d8jzkXRRSHEZ5G24kMgN0QL33z0R+8B0CkJG5GVAKULh6xUl+eAfVHpEiVoB7DJVwRsNKSnS3iKFAJAlKgjeEgcTa8oUmB15VVWX15tDRU1VlNcZpUAtxiTmSJwYgBWEvaQtX5zPwDswsaqLWJmWyJGd/twz3aPDpHAkqi86HEpd1LG5Hly5e5HH4U3DXjlHhA6n0lYrAT8Kh77XUrXqwEWoIUFrCReOs5SDm/V7CnDlltNaFhnXbO1VddbU3mNVQHWchwSRfDYAmaaGuzn8V3A3N7fs+WtDZtfX7Wp5QWb31ixJcC7l0nhFUGq8rB58IoWuE3vlXvrzQd/9B7QgGOi+kuUIIul4JtK1ysBNnIcwKLnH2b2nZsmkaDNVfXWWdNkJxvbra2yzioKEkhcRdo6JfW+Ey3VpJNuFVBUlDSUL1GD6eVFG5+fsbGFGVuGJmxCE9JI8Ai0I1ZUSLIaytzBGyvBjw7CMA3QWAuwss+7HfbblEAc1u2wOQ7bmaz+fg57LMDCOVPpAyspSlh9ZQ1Zj22eRNZaUWvVRSVOEQ4ODmxnf9e2Ad8utlc8yUy4qJUUwHM5r7go6d+15G9sb9vUwpyNzE3bxArSdmedYHMUuSIsCOScZfb5+Q1gw8Dlx/8sgJWEdQ57CIcVgJFYz5SuFzksnq63OvvsBwOsm7TSR1ZbVmG9LR12mgQySddSpHUMAB7s7Zv46fTqoi3sbtjK4Y7tEfwgLluLIlYPxxXQGyqqrSyeVCyELa6v28T8rD2aGbcR0tBXUzseDhktLrAskenZwzdK14+PwhAtyAMWxdm+aYd90XGQt8O+OmDRzEPWfkHQW5J2tNbU2emuE9Zb32rt0IIYjdvdYomfn7OxFV5rC7ac2bPNyAGFO4jU4U7luDnqSiutCWksydwKhahKltnu/r6tbKzbvYlhG5wjQXJn1XYiR0hZ9EuifqKqAPLm+On0QI7DRv5awE4RS/DJk9s2SCzBDMEvUriiSMYwBxG0VoOpqreh2S6cOG2tgLUaq8D2zo7NLi3ao/ERGwWwU5vLth1P2WEc71YhihPktegga+XQhlpAe7Kpw3ob26ynvsXNXgd7B/ZwYsQeTY/bICk8a+k9SyewEGCFiCl8/cXDBS5fRIxfOIK35UfL/+nlv7/w0Tc//pA9QLdHsK+LwxqpMEpE1FDlKcEzpUuxBBfetbfxdD1TulT5RR9WTtfU9rp9TJr3k7kxm1ydg+Qm8NeHi9ZKwEU7sACcbWqzqyfPWgXUIIo14NHCtD0kffzh7ISt7GzZ7sEhohGgabbRAAG2QMllOAHiBTGrr6qyE20d9k7/OauJFBO5k0U6z9vg9JR9QbGP+UMKfZSieMlMq5kqW546GXOXhwDyXdfNB9PoE3L8Bm5gTCncO/Cg6aQ3x2vtAQ2UWwkYdOew3wZsBnwUguDfANi3Ol9wHHipIi5wAGAnHbA37dHsmE2tzFqB6hoB2jBHMQb+PkB6Hv56pfcMClSxHaDxfzX51G5z3cGlGdtG6dLkissKgQ/WscUbIuE4ZgFx1spKiq2npZWsyUvWWlxllSRDLq+to3zN2h8o9jG5v24HxTgUcCJEU4GVIHB48fBCp8vR/NfgeyBb+ZPmiH9xiId5vDef/Vv0gLo955p9zmExZSG/JF31ygP2Hy4C2BdjCf7WgC0tLLSB+gYyHTvtIjOjEG/ZHrbVz0ce2+2ZMRuBDuwrZ0duWTFXAKtgGY/GwsKggl8xHkYWg466RrvWd9a6yuusvrDUNnd2bXRx3j58dNvGtldspwiF6yjlARSSqgJqUEUEqoB0ddewxybwGf1DqsZJZIspaIb3XRL/LQbgzTXC9cCfASzD5ZTgGWBl1sLG/puL15wSPAsv/E7AoqUXhAzgLkkk7FxLM68uO0e2I7YB29ndI7nxod2ZHrUxuPGhAzMAbATAppTDA+Ay+JDFEMAsVROhFvDfd06csd7qRmspqcJtu2ejOBJ+9+CGjWwt2VYB/AeQxlhZghBFiVaAy7lOBdSNvOVBNwK0qEeeCqjT3hw/Tg9ImLinK08JxN5k1gIDkrJEA8gO6wHckrBYCZ7FEnwfYOPxcDldpQn4a3ubnUXCnm3qsQJmyc72rn02dN8BO04JJCIMkHLyokn+5ySsGkuajkIMZf5K0vIOrAXvdPfbyboWa+PnDawFIw7Y6/Z0Y8E2Y0d4yuQtQ2JKSktq8tIhiSpwAt1gULimJKqkrr576KNmx5vj9feAxOkLlCAfS/BNSvAMsN9UujSmf5bDHkPpKkbC9re02LnWLrvUepLyMnG3vX7hEnbERlDmdsnhAU38hxIoBNFnV+BL1hIf5VURLbKe6ga7Bg/uqWnE3FVlG7s7NrI4Z7+HEgyTJAmLZQUAsLyCqiHMTAcl6hXAdYmKtI0xMZTRoFjaoyPcFHDeeGFw79c/Wm/uKLxlFQ8t4fINx4HzV4RX9uAooASyEkjC5j1d3yVh4zFZCcJJ2GQRQIPDCrBvdfVbGVaGDKaLWxNP7d7MKBm5U0jKbTsgPlbxrqrfFYVXKjaACAScACmvC9pI/EEfJq13ek/j0q0lukscdtspwceD920YO+7K0Y6rVpKk4qa6njpDweIqKKY/issq4swVMaRrirqjXmxMn+e8N8eP0APO+zRQDNAzxwH4ReqKFiiAOwNgJWE/gBLIrNVZnHPN/q0BW4S0a66osoGWTqTjWavBrlrAsv8UD9VjzFr3ZkZsDlqwvr3pABVpVUyAJC4xhs5Hk6S/9NQ12QC04kr3KavFjkugo23s7drU2ordHHvq1GBum4CYg32Cwyl+yzVigDCKSUxS1oszeCaDeDH0QP+gJ57oKF5Lf+XZwo8wZP//vqVL2DxgX3bN5iWsrARF4EZmrbc7+18VsJTbRMsPc8SRcuXEA5ykcvJ73QPWXlFHtFaxLRI7MIHC9XBu3CaX5mweLrqP9eCICKwIQFMGQgH/iomZreLzp9racR60Wld9o5UoLpdG7MFTV6EFo4sLNrmyZDOry7a8sWbrWwI/UhWR6jPUZ3Agbb3tANgtCIrsgiIIwMHWDiD3zfH6e+AbEjbPYb0CN8PmEpY0bwFWKTICbFdJDdSPFfm7JGwMHhmWEmgdjoGOdvjnux2nrb++nWitWjsCcSupAwrNzRJ9NWWTBLNsEtiye7BnGTRGmb9KY8VWVVpmDdVV1tfZZc11tV5yUWAFirzihBeqtP2eLa6t2dzikk0QGDMD+EUXdnh/j3ughXkVEUlcLfsym8nwq2yFONI7xiutMEX+vTl+hB7ISdh8ALeIWWAlYJylfDPgLmHlOBAl+CEBK2CliKaqLqmwM1Wtdq6x00GbLC8lTjZia6ld4gJWbWVtFXdtAFgKfFghToTSSMIqS0utsqLcqqsqLFkoL1uGdJk9TGO7VlpWzueSvAP1QTHb3z2wScIPJwHs0joxs0jbZQK+DwimScGDYoU4ipH4bm+VdQCKIEkrC4LTASTtm+NH6IEcYF2IoHQFgGWk+cGzZsVhkbCFSFg5DqR0dRbXWCGC6BUkbLhYApWcOSKAO4Gy1hKrsIHadjtb32ENjfVWVlnu3PGIAp+7AHCfQO1D8rdSzKo4xreSTKGVlCQtUZyAJkRsP3uAZWDLVgjeXt1ct1oCwKvJXCgvLMH6oNqKRrjhHjUU1mweejBLBNjU8ryt7W3Z1tEeSws9w/LjFgS3Egi0EAfA6/ZYLU1vjtfeAx4L8IJZKy9hwWcAWElZuWbzHBblvUuAVTnO76MEYdO8NUPS7JeEkLXkRta6k7XWV9loJ1jim5oaHbRa4mXSyGJeUmaCQB6DbScoP+OmWSTxLkHgC1sr9hR37uzKokvPxtoGayYYvL262Rowc1UUJtjtBooAGNfJBZtHyo6xP8MUCt4MsbO7xNuKI4sfywMmxSvDPfMmLy1Db44foQfU7bLoIDgCK0FACf4iYHOU4BlgNW77oEiVXz7Ci/QYkMxgNlIhuLAVuCXV0iWYJzBXQDatOlpsTYkK62xutdbGRquHz1YUl1gpYPMUGTgmepAV+DrPg9AWKVCiDiNEZX315K7vt7BxsGvVldVWhwOhtaIBU1cDwG20UoK9C4n22ud8fWaBZ5gErFLsFkitWdvZxDVMloI4K/fRIeYqD5s8YoELN7DbMnsCpiBw0ymBm9dPcR4sSsFl/Hz0t0By035JazVc2zZ5aSZJc1EP/wx/8991bb3BS0fuPf3u7+Tf9z9xH87362qFUIPzBz+Le/v1dUW/Cffl735vvut6el+vwFnC9fgXfFRt1fl+ldxn8x3z4o342A90eF4eeBOHjaR40Ra1WdjJWwnSshLAEf7h0jV7p+u0WwmcEnjlF9p7wBmTLL0f3vnSBucnbI49DgRYGffDHO4E4BRVf0ljS/MoLHT8KjitArPbanGz1tRbczXpMkkBl6LJ3D8JEIg2VK/bNpvbLRE+eJ/Yg3+/8akt7W1YCmaSwHqgYJrSaNI6apvtDLXvTxEY0051ZtVlQicjkdFsCRoxu75sQ3OTNkKU2CSK3hZ7j6VoTEQOA5QxQ5or1lfSN6OU8iOUNXFczi9g6YmjkerloKVZh5jPUgcUhiQEMiMgaJmAU0Xx2MWJe5D0Ft/JwK3lmHBAIUUUt+BA4tpOQ3QDDgHGyzjxq4CVB72/T99pFRAHDzKFdYI+xzdsl7K3i9b4hKP9oj36wJHu6+9HvCqOUuhT2Ltld1ZSqOo+yF6tVc3LSHEhTZc4bdT1PQ9PjfuBD02LNBqwJmJM9kUJAtoUoT+fAZYEVqV5/+Nbv7B3u888Dy98EbAqBvcfecBSgVtp3mEBG4y4dlKkYxk8L3xBB4vTKm2mgoDsiuJSKwesMmElcP0qzbuprBLlrNGSSaLD6NTNzCETZ9r+eO+6ja/O2+rBpttaC4i1LYB31BRXuoTtxanQRZZCeVkZ/LfEksXFrDJw5MN9z7qdAbhjgHYOabuyu0nq+J6b07JyWCNllbGr9JxCBr40mbQyzi/nVZygbbLtghIV+UjzLDvEMqxv7mCNILUHgO8A4gNswM7JfOjlpADEXDMNcPRPh0Ck5U9VbFwi6j0HLKuQzssDVoDURwGX/i6bsjtDdD6/62+S8AG4BGCtTpKOAqzGPbdS8PkYHkSBMwAmwgPurskXYzIKHIxOUC+C8zRZ1GaB93UcPMb3AjZFZopyuv7xrV++AmDnkLAC7DEkLL3oHa0lU0uofPwCrQ8Yb8rmpqotQeWWwMQkUJxobLGfs4lYU229VZaV4nSlmiLc9Uu8Wg+gKGPLM8xABofOjZASk0TpqkT5aqmqJruh1hrJcGioIrWGVwnxuIVcU/vmru9uY0WY99cE3xfguavUwT1AUtE8RTL65KnGAtHk16gmvafcgVuC105US8MoKSnHxQwK3ur2ljs+pOitkd27D2i9FBPX0ipQQMSaAKIKNm5SA2miCy8BFlAJTH7kABss4cG9vDIjzyuFMYiRALCco8J4vmMk53BFB7sAIDDrUDt9FxYmYAESWpNG1/JiJkw8l/L+ru6PQOGfTxjGRC7s13Goqd8nYQXYQML+0q71fJ+EnRtnk7lAwoZVuhyoGmFeLk3yHSmxT2cKxIGoyM1s2UVBhdJhLuEdO9PRY91kK+gSy6TUPJ4ZtxsTQ3ZncshpgbZ1hOTivo3CcQA+fZxgmW8hFLED71gPKTmtVXVI7HLuA6dnsmxhjVjYXMXRsGTza8t42laQuGvYgKmbwKA3Vddae32TdTQ08XONVSgJkmWyQFKHa+QYomExtjXiddeYBLJajM5M2fQSLmImwBYODUngYiZbEfEUAmuKJTpF7ELAh5G8koYATYdLOfrDD4Ev9wr+JmACJGnSnKKfBVbVF8t/LgK4BFkHqvcxwgCpqmdOsRpo+VeAjzrSpTkRcs8+rOvlpKzGywHLjRTq+ToOjSFizIWFNpCT5FB7xA2dxyJFQgH2ydz4sTmsHlgzWgMj6RCE+tFX6nCf6UHj5D71jpLE5FWdLLUOCm1cJXbgAnG0pUj3IzjjLDbb6xOD9sXIA2jCPqYulmBdnsGLUuzwKHPAo6etpqzKGlHIOqoarAtLQhcBM+UArxjlTsugyh+t4Q6WZ2yRa45iAhOQtVt0C9aHzqZma4JjV5fIDUy71YnwPw22UOBclNTyQ9q6Sxs297ZJjCTVZ2HeEypn8bzN8yrCLFcAnfDlmWuIzzoP5jyXbs8AKxByD67OkAX9lQOt35K/0GP+R/WTg44+DACra0kaIn3VTvpCF4pTSce9eNzTZ5q4rTDoN9BneOmeevGzyjzl/+5KqMDzGg7umpOwrLbcU6ZGbxs6gzisXs8B+wsk7MBf5rAf3v6CRL+/QsKqo9UhPHsAVoFWHac3gt7wztKPud/1XSAp5vVW74C9QwPbSmvYCa+QyK6M3Zoats8A7OT2kq2yB64e2MdSyzpZiCy8QYUZXLvl0YQ1U6yjAwtCNzSjFSWvtrwCG546hkIdkHl5xSbY1mkHHqpSSQ1I1abaOqcR7AlthyxH+0jLPQAt5VEcNUkGhF6Snt7hfJWkXcABMkrNhCdT4/ZkfNiy8E6XFDyLg0sPlzuCCZzvBI0R/aS/8UVdpC8BIPkFQKXJPtYfpRQBVf+sPq/rSLdQP6YJLNKkkPQthIqIQ4t+ySoia4sK90ggxCQ8BFj6U3/X9eVVklCV3iOacZy9fmlO6EMTRaZMzZdXUrqgBC+nedNoWQkmWDY/vP0lOV15CYuWGrIYnLdenaEf1C/BT88GQp2d+5N3uIOXzytWS6/TTd12ue2kXWhmqxucBHSvDbHs3iZo5t7cKLlm80SkYU7gMq7gyL+sGYlnREqeCjOUwW1rsEp0AdiO+mZrr2kgsbHCl/qoBpNBE/B1HYGhWGBEOu0A0LX1DVtcJjgHbrqFbVcFPRRJVlxaYlXiubSpqhSOi0eOP5Hus49FYsUekNF7c/ChbVOTQZ62LHTCFR9ZIfiguOyLoNRzO2hyfaReCZQogVbclD9j2kHmULofTszfpUymJFH5OQ4/VScEZUixAkB9BNg499O1VAVSDhoFYehaTktor1KKpOTKgiCwquDegU8MSW3Q/RoOtV8xH98J2D2sBLTXla7vBOytLxywzzls2IcIpIQGQwPlCoMDMhiQYFlUr+SViWAwM5KU0ZS1kA7Tj3fs/b7LBNC0YTmK2ML2jocTfjZ0l6zZUTdRiesUoBQV8Yqz5EsiynOmugcMN1p/oTXiGWtlue8mAFwStx1uWw5FKOZcFzJaLjVofJOCNkms7djstA0jLUUbNlj2taO5VocEoK6HdpysqHfJ3cFkKIPGSJFah27cB7CfP7rDhnyrODG2nYvFMXkVYrZLoZQdEdYoJNE7/l09EACWKa17cAioup6WeymihdiyCwFWIZaTQwAv64RHp/Gznl0mL11MFgwBtgDzmgArjT/FynCIeVBS1G/JA8cwEwkEsta425uhlcK4iWdQ4iLyugBLF8gN+12AfU4JULqIif7LEvYlwB5Pwmo2Sww8025zgA2UD8Ep+OejxN/EZ1OA9Sh2SPxs0lqIfXz/zFWyFnoxX2ExoLNXKBL3CYHbd8YGbQ5QHOBK064jHkAhqaNOwLaX0jLLS/dPUBapFLttXXEFEwF+W9mA/bbRmuGqZQBD0T9pwLuKw2Eeh8OTKXLO5qZRzhYpSofrGMkjeSZKEEd6lXG9xjjJkdQJO9HUwavdaoh7oJaHm+BukLf2FBPaLFFp0r+1FAtE4pken+sPzLOrf4KHd7A+W2VygJVtWHHFA80d1oJCGIeGyAEyh1Vihpy2NWo0eAA019e1BFgPSgdwgRVAeil9qmgfTUqQQfdaEjNlVWGxtTXQB8QsFzAR9lkRpIjOLC3Z3Mpyrl0/7DdNT0lYhXuKEjiH1YCJw4q6YS9PScK6HTZnJcDe7p6ul+2wq/Z7ADs4B4eV4wA6EH6ZCAZEQxKYYWhIXoIIqHSwgBv8e94xKfK1jwqO2BQ3S7ZBkuTDS3ah46R1VjdRT1bRVWbXnz6x2wB2cIEgcDxhKleURTFjnWQXPcRFzvCsWFgHCOMVY91LwG1r2JispazGTrR2ethiJ8u6siMUNDwOwIaIIFOhjtHFWTxmVJZBQonbqXMlogQELbZJ1uZ2gH+qvs3ePjGARaMFSQedWqXQB+a3O+ODNkz7RDcE9Lzm7opocDHnoMFVGTj6xgHLpBRdchoBTSljov7Dmctsvd5JSaaEV8tRjbFHo09tku95qiJLgHNYJKzX2qWNarQAoWqADljeiBBkUlGA1xGX9kDPSTvV2WPJ0mIvFzWBvfs+9SIej4/60/7QX1y4fEPCApZn4+dtd0oQOA7yStdfBOyTWSldbMpxHMeBBpeB8sMHSAOi33Lfc+ANPiAo8Fn1MdVfsmTBZgBgIeaqM+zNdJYNxc4293h5ziSDOb60bE9mJuyr0Uc2hdK0laXonEDJ+qLiYpqdXrKRh5fSIVkupGfZBjJBNFg5SZVdzW12qrXD3iMjoq6ykqiuiD2Yw3Q2+sQeQjdm1paIKqM3kcAqbZ/XntVObceTwlJRC/i7y+rtl6cu2ZmWHivFKrAEJVEWxGdsG/WA7Ip9lmNJZ0nZ/PSkJWpRIGF90uYAC3USaEUJZNEQlSgvKbX/3H/FLrR1WyF8eYmyTuPYka8/vGtDk6OEUar8KBIcSawu1fni9LqXZyADVrqRScNdpTiy71V1QQmWmDq7evqcnT/Zz7mF0JctewJY70yO2IPpsfyw/KDfXw2wOTvs2zgOchz2OwBLwMlxPV0aEAfot585eJsO1Khp6IL/GkEkAX8lyiuFogEqWLYbqMlFxkHnaeuqarRGzEXru0c+aB89pjrNyrQtHWz4slIgrQtAu30PoAooklySOCKr6b1Dl7RJeG1na7v1tXfZr1q7qaxYbYecKjvvZ8QsDM5N2jI21biixZByTD2UFCDAS9aDI9bVg8J9XMMJaymost/0XWGXvpNuCttEIdJevf9x/7rdptCHzG+S0JLMNEeIcmAFz8w1aa9Wm4A2ieuzRPKeB7KjUJXDj/+xY4C8uG4rbyABM7VvMyjFn9+7aQ+QslvQGJqF90+A1bV1vgDLI0NBxBHdmac3+FsEwNYVllk3HPzdMxfsAoCVF00hmXdQFm/PjttjnDOv5aBN3+Sw35Swf47DvgJgoQSyi4Q46BvujdjTINEw52sOSP3OG3Skf3/hZ0kFZ124Yw8x5qdRUBKAQlFZ7544Z+ewHJyoq/fTFjZ37XeA4u48FoMtyilxroKydTsNvqiADyC/e3Iifz8iZVifK8JM1tXVRXB4t/2irs2a0fr3kMpfDj+0j+7fsDECZhRAk4CXKujH3cq43GJ41rRz334CjbqaFSAdt5p0sf13fVft7fZ+a8R+vMcsnT/ctn/HLHh9+IERbuNauNdAEIDcpkujOPToeYuA2pwHrfpKn5e2ryrl71d32eWmLmvs7rADwi2Xuf4nd2/a3ZEntkr1HKXLRwG3c2SkqJQtHeKEojp4PnyVEFeMQwka2GD4ZGWjvSMJ29PrFpjpRbyJXPPeMsomtR5exyGqJFurBFverPXKgM2wT5eeM2/WEod9TNCJ9ulyDoudMtQh5Ai1+UNYBCz674e+a8R0PHuPHxi4CJ2updwHEF5aXVJJXlevXenqQ9Ke9CCZXSjDY2p/3YYrOjAYHGn5bqbhu/vOub+krHzpupcqgWvQiuDk3YD1NPztZ02dFJ2rBGhw47FH9smDmzYMj10j3qAQE1Yc7V471aicJ5qJG7hT1EE4KD7ALVxktfEye+8EkgoJ20L9BFkTVrDL/v7Wl3Zj6AHF6jBB0a9yJ+PjQsJLmgJiJKkmlHN5pG/AYXPPrGlHe6X9J7j/5bpOJHiP9Z/sI3i5wHn19Uf37M7wExsmmVMmtFhxIGEFWoXq+RZR6l+5samjq2vp2aO7Keskyu0q5dfPdfRi6ahnFTAboyrkp3eI0FO9s911n/xO6WinO3roSdEtvWglbecrYyN9ToLG3c1aRTj8d+4tE548mq4A8jd913uuV2hl4SWlUYuqLBceo8x1sbc5kMVhpXSpVJHMWm4lQBF3Cat4WK2oLwMWLud7zcoQHRKw3vTwX7wDpFnxIGrwASYqmV46alvsSk+/vXfynOeKxXnYNZSiu6OD9tHNL2wBW+kW2rwCWAQCgUH5WvJVxxhkdc4RNEPWBKyU1km9rn7cv7/UhrtQgn2aentq0D5/DDecHafS9wrFkgmwwfRTRI2FNPbdLPVnNegyvR3F93x/hgZyjK7g4DjDhFLRZrlhVza37A+3vgKw2GMFWFX5IIpMm4/gg/JBE7C0Amlw87SAT7mDwgHCwOl3rQ4nWQXOd5ywt5CI1YqP4P37o6N2Bwl7axwpe7Rt0ZKg9pmHPjKZAzoAn5cDQzV0uY4DdidlJ2Uu7L9Mob4WvIIlFIfOekTbn+587Z6/xYNtDwLyEv7QMt9Sin6MJqBHgD+NXVdg1b4VmoBya9PxrlzS8/yWAyefUeyChIgmjBRJ7SJ0BO92Tu/6gQAL4LUY8zcJKQHWqQzjrwrcBfzyWzjseziTlHHwLKfr7wGwTF5ML3QSS5mWC2XCKoJKUVlnqCJzpYvd8DBJVZeVIBkyNjI7aTeRNk8I1p7GcC/JhVxx0GrI9QrC85gAdIbTFCZEPaGN3U2t9t/3XrAerneAsvdobsJuoyg9Ig19mljaPSSXFK5CAKuJhCXFaUqaegrp6L7VlVVbdw0p6NCV/pZuq8RJsYHSNYV56I8M/h3MWwc6EbDKJCVnhXi5ewDVFklY/XNpqommQafNfC6NdUGg07O0YopTfd1r5y/jNlZ+W4RJNW0PxoZ9dVmEM6eJBdah5TWu0ea2ci6wTavnymmVkW224ChifegEvzx92TpwW1eXFlHR/MAeT43ax7e/shlSi7Z4PoFI16KxEpkOIg/d9DE5dGoT4VlUXV0vRazt4zFUmyVtZcbzg7bqfLctIzRcwgJkWTX0OQH9uwCbArCK1vrt27/6DsBiLP/9rc+9GNysJCxWglhYShA0N/xX+icqYDC78tqtjOfS7jswbZ1p6rAzLOUdBKkoWGaZto5MTdiXAtrcuBvmBcxn1ECAZbCkWEhyyfSTJhCliiDwTiTMfzn1lp2g7oFKfU4odpYidfenKfQBLVji2kfih2jrXtOAnhcPBgoMSJb9GlrsTHM3u0yTa1TbhDWtwCfNo7lJ+xI6MIR5S/ZdmdpELeQOzSqgPX8AWP77IdD6S8sk72nJ1eDql2o8dl208QoStlG2Y5weEwuzNsxkvYeiuLxDnLCsK/yTa1XKpywm0DxaiqdLqwxtkCKnYOgemeKoKNmocEzCOxc5/+nshH398A7ZyNSKULsk6fgurEYFKs6XR0wi4AgHiSRiMcprNZ5DvVaJz9iAT+8Q/KOVzUMikawoAVwmeEg9X74yj3snBVhWAE1aVZ/03bs1kXPCSs4OByx04bfvfA9gfwdgAw4bAPZYrtn8wIT4Lj+3NHEWEwdtVAHZdFOaZa6Wohoy+r/VN2D97Ug0MhYEvo3NDfv94F0KzT3wHDEFK3u8p5/J9ZCS6nmB9YiU8kNmbWVNjXUhYf/rqWvuSYtQFHmDGNm5vU1AAPiROKOzU779kpwQChXUgCvqSjUXqspLKMXUa5c7+q0X60U18b17KIoqI/oFyptq186R2hOFVng5JJZJX66Rns4nNZiMoyaXcz0BhMP5Xg68+rtAgy8L7xq1cnnm6uJySzIx5IGbxfQ2zsqyhS06C1d1Gy/X92plADOOeNWEI1vOKZaoh6Rvc2W9nYETy7Usx8QaBU206cnjiWGPXMsg0YKQR7UVOiGw8xzinmlWPJkckyiu9dTv7SSiro3ouEWsKqqoPk/q/TbOFpX/F63TKhmEXAag9UkrKcxq4jG+jC8/+ZhnuX6eEjyL1pKEfXXAisOidNFBr43DIiEUuaOOVmaAOstnNZKthKVHts8rJwfsfFevxwYUw61TAOUPaOSfjj70DtvBG+Yzlw7TIIlvOVhYwjSfFe/ZgJdHlOC3racphdRoUZQWSaJNaMDY0jyvWRubm4GPskQS/yopK6Cp2ysJ7G6vq6OqeAt0otnqmUgKQD9iIJ6SS3YLqTeIMjS1toj3i0EG8L78Y8Xw6CrapEPvaYB8kPjdpVnOJKUbBdRBP6Q92qyxqharCWMBFnZIi9/EkrGBxeBImcEJ9nlAmdOS7M/I8qTQS0k7berukk73hHeqeo6kq/ZLk2VFpje5kRdZYVL0UZRzJa1BkmdlSMJG4JVH9HOGPdcUOK+YjN7GVjvZ2mU9TW2U78fcxvmDI089Wk37q6WV9co1BFju7LSAWaU3mKl8Z2LScS8B1p9ZfBig+9admCKdEryahJUBPcjpCu/poo3HODTfFNStgA3N0iiST50nhUlALoaenIfHXsBaMEBn1eEJQmm3r7FofE744ePRIRSmVQrKBZ0tOnC4u4+WzzLOmqaN7Kro7NbmFg+KuVTRSERYJVo2PBUpdUQHr6PoKU18huCXpfU1L1Mv43ywNy7l7MuRdo3NVltS7vuMJVCmEBj+mtlgecUtO0R1G4Fe2zbtACwpG1ECa2JIageqlvwckH0p5wJ5l7Ww4hOMgZX0TWXhlIxtkjq9CupR+R6tQLLvpjFZxZIohyV46/i8zGYeJM4fY0hYpkrONcvE5X6iNAJ8gn500ABoTW65bxVzEJVkFhfTDQFOTCscz6ZzD6k+qUAcZSt3ELp5ofukxy33NjXZOpeZYqOUG3epdzZN0BRubQkAXVdtkOBwh4awq3ZCjRhOGqIR5z7CMG13KiLAYtgRBfFtj2iTKME1lC5lzX5L6RpHtP/u5mdQgpyE1ax+TRxWy4MeTNFDekljlOgRp1PsqxTuLoKz+5s67BKg7aCiTCWa8xRmqEcUX/4Mg/rIwgT5YPueGyQJndohQJv9D2pJgmylsEcPkqEhl5nQTNxrCUu8Aq215KuaooB0SOcpsHsb6bpFPVrlf0VRJCRlSwBeLeCRiSlK+zwNhjbq5z38+RtkIixRFFr7io3j4p1GYs+ixB3S/gzA1EDlX5J8iF0XNrkHdSAFsa08rCYr+zgINAlWGPWBapR5n+g64EmAE8cUB3SlR8utlnW0fwcFYNHf86sND+hLsKLa3DQlHik+qRUJYaz4Ym8XzyMzllzcokIqzKYqlC1QilPN7XaR8lGd0IEG7NULSNFRnvHGvdsEtE94XIJWSGFfbRC1kOcO/LqlRrZtATmrrav4JxoYmLU05pKwUrqhgpKwIDewElAj+MXKLwg2N2uN09G/u4nSBWBnX7OEDbTJnIJER+WDiwWUIM0m5RUMO1nGrxDg3YcC0UH01TaPP4Pb8o93v7Z7VPmeo26s6szKpCWzSEUcxQWl7QRgP9ncgUZfZqUs7VE67IBKMesra1h/yOdis7sSrAIJgZGOlo60jwPDAcsAatbH6fQCnAh7UA3tF6baB1ISK8oDasCwUGfh0KOfxon8GoUmjOGnX8bctUn9BE1EngzwAkgGR0ARIDVwrqD4shkoPLzlnjWFB0qpCwCLFM3xXA2sN5TvSolRH7mnC5RI6ZJxXtfOJzICRSYEUJFiCwgFWHFsmZy0Gok9KN7Al2Q6QN81EVQ8TyuUNgI81dxpp9u6bKC9m3pnxGIwgYcwAz4hHvj+k4c2zTMr/cjBqj5TE7i+Qjjd+pB7PgE2zUqoFSGQsEItneuADSbjixL2PWq0dZbk7LAvBr8IsP9+Iy9hc1aC12SHVedqAGSeYvSQXhincx0ujpbChldMJcR6nAkqlHxBL+INNKAbgORr3KE3sU0+mBoiZA5tlk5qIfugGzvu6cYOgmgUpVWLpQmqQUcuR/aJTlqwiacjTjdqCQppqyNulnhXZc36oeVKA0c7GEuXXFGk3BTnjaL0LGFol8mnu6OTtBzyylDAtBIIECtwuUUm0gKmp8HxSXs6NsXGz4QHYgLac/MYoOLaaqekHE3iuXnx/AKwfklrDVcfIFFUw0EKqP7iwUNS3iSh+aaUGIFWNk7V3FX6jEChl05Qqo2Ak49rUP/6iz/m6YjqSGhSKLBaE0qRb84ruW9FohQnS41dYpOVvpZOrDYNbA4IjWIl+hR7+B2UtknMbbIWHOCtdD0C8NFlPsFk1XFTGW/oSdX/nsFMM55JWPFdqFlewgYbywWUIG+H/Vaa958D7OvisHoIX47Ux3Sch5zxnpZ2txzAbeXGK2Om9yAxZVB/BxNNOdxU4zIELbiHWeoGmroAW8jsP93aY6ca260T4NbAO0tQULR0r6JoDK7PkOJCKODYJK7VGutF+va2tGM+IpwP6bTHkrS+xQDQ7ftMmG2UnT1srftIyjm48uzGMnGw265Fd7a0Yt5qJHuXzfOQ1KUoNWrzHoO3JWVuZt6GJ2e9gs0yytwyoYw7tNG5o3Z0FO0QoIQjBk7Sz1cVpLfiC1SwWUuqbLmewMlni+SJ4zxJSFlH5LgQOIVF0MaEh0ciIVVIxEMuAbb6WGDMu4V1P1+WRSU4TSfrszDo4HNMHpmx6ogD7sB893b/Ofqpjci3Us/KWF1dsQ8pVH1vcoRs4nWnUxpD0QmtHr5qcGFZQNzDB4d1syP9K44ry5A8XXpWPvANCRtUL3zRrPWtWIJvA1bLY7hYAj33cY6MpCu30jZGmnVoHcGsZGlxKYfokkdEy1MN+x3ItPSzgcvWSin5KsLmFtlsToXm5BbVQJXii79E9e4TjW2+XSj0GE5oNotSNbY8iynsvo3PwHmX160PV+XV0+etj8ioBgZHnTtPfOjo5CSmI1JqkIpa6tY2N8lI2LRtan3toRBJQdTO5XXYSNsJFu8hs6GHgW2j5kIZsaYy2Atnyygt86ubBIjPBtuQiibAdbURdCyBniDPGkqZDsW2Kp5CQUA8uoNVblrZWKVXyyqh3SLLMO0loTBFnOcJjzyzQOr2Zjxzqj12iClKBfKUz3ZAW5UJcch3bTnkE4T7CapSfvRfgBbA3YXMz1pndM8WEkR7qUb5NkEzsmEnacsysbnj9M+HT3HeoGhq0giY/hyMpQ7NHTET0Rh3HORpC3+ntT6++XjYvNKlh9bK45SAsf6nt9/HBR54uv6+AMvMzKL5CqwKNIkiZTUDxfnkE4+wJ5eWPUbHCihmoQDqn7HDzJm6dvcI7RFJNQ8IZFRXnpZ2YmzS7jNIZEbSNjG/LGO3VFFl3yWHkvPaPlT+6gt9Z+3auSuAtdpjZ7cwhg+OjtrtRw+w0e6jyB36gCtG9pD7q7Pl+s1o8BmQQu5XSWB0PZSgA2rQBXC7G1spHFLp0f27SJFNOIUCVlQfYQzgTq3MezmlLUC7D1UQZ8/zeNkqlcainLYqauPWVrOhNHlpsp8WE0ReDIAFXEleuaTdMQJYBRBX2riXlDBJyw0cAmusKMsop0tI9kWC3/ehV4cKTpfGznnS110q0s+a7FI+hSZJVwLovF+6mIiX+85Amxpd6ZyZwSIyOmJfo+hOs+eaJrkAG0fiy1znv/Oz3vNVgOs6qMXb6TSX9DT4mxI2ACzjjlVDStefByydfsB1Agn7KWkoBL+4pwsJi0IS5hADC9YXnSXQ5c8OmJn/xkfyb3sn6zcAKw4TQcOVx8ujeARYcVlMXFFMOJr5afhqanOPyjH1vnHdu22n7DzgTSPpVIp+BWdCCR6hWpQrLaNZBk/F5GYYrImdFQ+wHpoZxwZ5QA0BMgiIA7h6+oK9Q2wr+a6A8dAmZmbsDkrEV/dvE2DC4PrI0UEsdaoYLonhEomB9VhTTSLEUxJ5VA/1UJq5vHJKHa8DaAkq0yg2gEej+vgBfYt0YjVQ8qJqgC0B4j0oh3oogfQsRXpWANR62U3h1A1kB9QD2lpiH2RDlUNB3cV/NcOleL4/9Z6or/pd723ifl1joqiE0wyFpCcxO60CXhXZU/VI7fvrgoC+Z6Y7+FnLAr6L0NBYqP5DI5O5n2dSwmYBdGsGW/XwBE4WdqVcO9z1mzkfZqJpiXe7MH0lR04AWCY6k0QAFmAlzdVGjbPTH/pS5kVX+vhbRo4DfvmndzFrnUDpwqylQP6IK118QIAdwyf//17/xM1ayjiQ0yA0YHODSV95T3qmJq3jVj7QGmw1lsnj0lPkXhJC0kV7fHupH5YzPZh/FtBKKZF5xH9n9qaYfUV0WjkS54NTA/Z+b7+VYGJRGotym6SRKtMghUK0wnJ+d3rYns5RsohasivLBH6TYiJR3kim7GV2qbnQcQpXa6cDYJn8sa8GH5DZ8ASv1zCDCEDhipIOkka6tqSH2uxtZHlz7w3viXcr0CVJ/EADClwDIZH1OBr6K5utv7wBNzMTj+c5RLJJ4s1hvxxaxVFBpJRSxPXs5Uhq1VfoxjHRBkjEvRN4pbTU+r4M9JsaymN6H9JtfgicevEnByweW38jq1nCh2Wu22aVkVdvGik7BXhHFqdJUWcL1ZwrOsuElLNAATMx+jeY8AgMrqHAoWqi20pl/6Y927hixVt3uKakte6rQ5POuataw1hrzPLjGLyvt4NP67OMqpvPPK0pNwulLmbQIeRO/u219+3aqbPWUYbzBPAH1Qu50SGCNADsx+6a9covAmxIDpsHY9B0mqR2M5iMsA+0elEmFzVa2renGguU9DwLnGu8WpY8yii3fLgmwfmBtA6uKcAWJ4vt1ydP269O9FlZBZKM5V/Lm2b3IZ6dWaLpR5h4t6afmqq+LKMkHO2w/KJtl7ETeE9zm7135iLpLu2kvVRj6E/bBBm6H5M79ki7Qa7NuydJMaeK0dUzMJQuEcTJ9Az5JU9hgpJUel+SppjSSRW0qQpXcF9Vk52rbLJ6csuq8OEraERUZweqMY4ZbhIFbo4qN7KTqj5DG/ZO7esgsBYxWbg0ZjZltyL/eWlJFy9VPCwCypdX8OtLuSKtShizIl6FEHf5/YtFH7gODfPPL0MRRJ80USaIAZ7itUzOmFKD3Jyo8ZGlRINJm9L0i0Bf6NcBuvS9eLOir6SguWTi66sfOcCq//KA1Toh7st/rVrPAPueAHvO2gkESkrCZsjw08MeeRAIEvaGJOy4zZNxEOGhZSIJc9C3bhp55uHQyQy0PFYyQqeRLmquD7RmsrQhDn1emqX7rZFkhaSdCLR6X4qI7IEyOiusTcUxqrRUIiHf6+y1t9o6rZCs1jhcUh2QopP3WVI+f3zfbhA3O7ROYDa7hmuAtS6TW4rHhkiodqLAkNCtAKQaBWZ2edWGpift88F7Ng5YV9kelIu6hFd/yp2piRLEJtAeTTQ9C1xNP2tp0y41+q62Kz07yaRqIB6gHbNQD4qLrAmqm1DM0h+Ds2/w+Q2WVC3bog11BIOX8BwJBlN9CWsnGuoIR8YOyzsvvouXrvP5bTxzSpUJnC14swBzEUb6Okx/okUJ2lrLvcXnq/meZOKptzXeuq7OX15H2s7Nsv/EhO9BIV6/D29XmrgEi2y1OkEOCUlch1herHMNXTCCNeM4B1f0Sa8wRkehBJSeGkRmdnNWgm8B9lCyAYM3htzxFyiBVy9EwoZN/VXTM+J8PKxme16yyo6onwVQDXpS5YDEx+hgaaJe5JgqLiohvw+vEmXQQyhd2ZUDzpfHpwIJ1AhH7Ghqse5WTFFsU9+GJPL4T2iElmf62g34H9740r54+gApi4IFN/XKhdyrBG/VxeYuO99OcHTXCXcmSMm5P8xONyOURSIIZuWAiH48Be7NoodkC1XbxcckSd0DpJ7ToEq54LueOS9lJRZl99TnE5jTSouTnr0r6XmGe7ehmCkCS3xRSo6AJxewtH4NG3OOWN8Ntyas4fZdhcYoW9a1fkL6FFOwJ+2f5Vjn00uu7KjPi+mnEqwk4sJlSHQV36sGtLW4lhu4ZyV9WEbfS7E9IlB6d3ObMM0Zu7eEp2plmQAbypSieHr9B6cJCALapjGUU0KNc8WQ/pBXSmMV+uAyAqz6TR410QB+0ZvgVZQAHQMO65Sg70UJ64n3eUqwbP/29Sfu6Zrz4BcFcIdUurihPE06ghRsBo62BNKJjkTiVKAQSeMVXyuh47iLx6CuHG16kTUPV5M5RhIE26d7ZbhGLbvTNGO0PtHSYafau8nNIgGQBy5A8u5p4PhZblN1hOySH17/3D5/cs954h5uzliSezFZVPrz151n7SKmsbZmsl4B1h7S6ZNb1+0G+U3idvtKIy9LsDJoVcCcxnKoQXKA8VlJWXcbcy/nfFotGNR8UIuA68oHwM3KRcarAB9/A5m7V6h3eo6oqQFiaYu1KkhK0V/KUFAg/S7XV6rOIGkrEzgoFkhjWYHOrCENJUW9oIYUUL1cOnGPgC+5UEDkevC5in8UIhASSFsBt4lY4J5GeQipr4uUr2QPCylw4N3Ndo828M7NTgemNxTCTa1KSE+lg8tj5unkrJCK2oqLctD2NK6qZ/f2UX/FLwIs4+XUUEIpB1jeClYrACsO+0/v/ZoM6hcA+7LStWz/+tXHWAlGPPglzkyNMVChDt0QjPss4cEKmCWKNKqFI9ahYaqKdh3abg2zvZSN6zRg0rDZlcB2otg7sZOq/pUqAy6sLnkVFg1+AaPajg1QdkDFBLRgJZCEktQ+hG4sYQlQ3dZqNvSQJNaceThOdP74kH1FRNciWyRpB8Zy8rha8Hr99sQl3160jL0UNjErzXPPj+9cR8IO2hLKUAaNNUGw+CEKnrsnGSChiuFxyS/FK08J8pJUgNWh6RqYdgKpl8JJn8FWV8AGzzXJCjtV22aXqdv/LgUiVENMklnXJ9Z7rQAAEoRJREFU24LTrmPfnVid9/DBCdzjCwSFrxOIs7O9bXvENrjWzeSQf949SEyi/KHB94NJ4k4DwC0aqvbJPZrEJCZHS1dNs/US06sdJlsBbjl27CNWxTWykKeXFnEnz3jm7xRhjCtUyIlgK1a4pNMehIMyMOKMayF9coTyKhNfqEMdlF+daL9LWM2avOmDn/Mc9tuAVRwah1sJ6Jx/+epPLwE27Nad6iDWeJYNGsCDlVN4ohZlQ+nVbUQ6NRPeV4W2qTRmclNRDoKPqxE49fAMYTdkOVpAmsyhAE2RcyTASnJ2EBYoU5EHIEMptMviMt6oxfV1m6Pt8vt3tLXB2dgHgYm2RDDK8MwEcQZfUSN2xl2HTU3NdgoHwX/qPk+YYDOhUIUAZMkzZr98dNee8vk9RS/hYSuCF6sos1JC5PfWIWniHea/Pf/i1ABgCHz6WYPrL5Y3zPUM6hHFm0tdwvah5J1Xrhp1F2SE11jtwBvnceVObJPKPqdCzFMu9Xbgq5qQ4jlqQyn9VsJSX4rElENBWRmiAQp2D+iQNjHBwwYXVcE61clVBfJD4oE94IXlvA6QtiNllc0gh4DMcOVUXUzSF6tUjJzBYvFgfNj7ZASqsA8oU85V+SJsEjkWhwdIGB2yEsnSE+ZwxL0AWOewL0nYALCiBALsu0jYjrzS5RKWu2nrzlEG/V+/+sgeTo1SknKB2YykkgQIczCgegApR0mWwFby4HsJSTvTc9LaG1usvLwM84yMXFCW3EtyKZATSAYaLkmoeFJtPjdDdUB5cKTA1BNppRDBQgY5gxdnnz1s742NIg3GPSywhE4f6CewuolljwdUN87R+f9x/VNT7v0cwcpn+s/YpT4KzjX2uMtxl8G4M4UBnK1FFbytKiiqBC0fvxdhY4BljPf9GLie+/3hWq4k8rs6X6tJHqDPpJxLO/2RuYstN8LS3QBvPYH57G3MNKqu2IytVQFZhyiUijt4Akivjz+2UYLA55Fu2sYU1uwerQpWhmpWpXocE3WsVjVwUklLWQAUvCNPmFYh8VpFi4lSyEs3Q2yunkm2XmUFKDhHlhRZKlpxAnRDr/q7e/HSNeNarhKbQLnbtXFMgPcnh+0WMRoLxEyogrlS3xVgI2+kMhviOESUtyZLRbiD/mRF8UnOZBNgncPmlS79ljNruYTFJax6Cm4leIkS8GCSsAovzHPY0HZYbpbFA1TC8tOQrPLAkwEyVDtYymvw/CiTYAulSqkV+ygP0qql2aMwY4bJWim8q4TCESryoKJtm2wap2VY2mqSCtvSUjexYS6vrHjQ9pOZGdJasAIgTQTYvt4TdpGkxQstvQCbzsc4fkOSc2IUbXjGLpw9b5dOU7GltN559dz+pl0feWRfUDjZSxShhcvOqGVUdEPKlkxuzkklFRysUu64eA6UeXog0OaP/M/6HoPvFnOd073Ye4klPdt10gOhizl/FYVngUk1jLt2iGxgxdOuAN49OHwVadnS8mugUgqLVLFnpaVUokSVscLIZKVVRqxdiqsUR5m9VsgkUKzCLrx+mWstYsJSVoDohe61zcoj928pe6JVc+0m9p44jdS/wEuTQmnmG1CQpzNkJ4888aB0BfSntLrQZsUzCLAy+hMrHlrp8knOsiJdw1eFFwAbdKkAC4fNSVhxWIWTJmWxQXowCgHZH8MDIw7rgMV+eRyzlosUpGMtwdF9DR12Fa52kQzVcrRWRQ0pkEQ20aHZCQaLIGdmvWZaAv6n+NSWxiZrZdmWVqtwP4FZMBBoqXXi5qnh6QmCScYdhAt07CoSYZcBTqKJtzW32jVsq786c8XK6Ng0AzM+y0Z2MygwM1MA9qwNnOzzYhjabHmIJe9LLAnXiUGQb/+I9ilbVuJZttcClEIpVe6y1LJMW9ReAdq/87vDlG70fzlum5e4+l6KNtUANbp29W07e6rfWimNryJvWgGGoCCPxkbsNhJeu99s0AbGySfsqTrqd1EQr6VZVKqJjfYaoVEoOzRCrEvOAYXnBabQ3GRhQkmHEL06pL34sWwHCb+KZ2uUSfF4nFJH5IUtQoO0oZ+HGMJPZYt+t+Uk3qxeOH6DX39uddUeT47ZDdLgHyLEFE4pd68UcdmjJaklXTU2YQ+XsAIs7fWSplzFY3PVt1zvm4AN7LCYOV8CLDPwX78Wh0XC5gAbVsIKYAlMIcpwvUzwiUw4vXhtmJxuPxwhRnSIpU81AFS1WlJWzyufeAFLsdJBVNO1F222Da22Boni/mk+tEAAyiSeGZW2VLLgFO7NQy1L9NoBJjEpPdKGLxMs8WsFxmD7rIDnbcEDV1GqlhgkTYhGPFAacpUl+gqg3CWOdmh23A3z6voClESBQJ4njycVYDUsDJaWw/zhgKWDdQis/h+QyFDoXCH3wS7qAZyvJfj8xCnraGll47wKzFMH7MGwancIz3sEXxybm8R7tE3vRTyNpx2+3o9y1gl4qqqr4a7irKpNixmMSbW/Dy+F2x6xxMtZISVP1g5tEFKEVi/vmMyHWgkEDgXCKIBnDtOlhMUw95vF27XBanUAoLVhSl9dK9kE/dYPbWnCyyZLyzJCRaWhbk8MkWi5BDcONqQOeDMCQRM095yv+s0nM+ep/9S+gMPyO5SAXzkCSpDnsM+tBABWjgNJPnHYsRwlkJVgLldII0LWapijgJv6XrHYSN/tvwBXIzIdO+nmzo5H4d8YfkT+0zR5T9R5hQ4onZunhsTSWBQdxV42llZjIz1Bzj8VXwCuEub0kMqbegywlJM/TsTVCrGmsQgmF+0Yjpbr7j0UpNPEyv781Hk7h+mrHU+TOlSKyPbeljsdVKJzjzcH56btD1RqUXvmFcBBb+lfjPAwD3FEIxZvA8G+9KkjVbpIYFR71OE68t99IPJ/0/s8k0Ckere/6jpjLSic1ZVVvrmIytc/0bPAEYdI89mAIgkEVQRGDxDRf66nz3ooK6T9yIrIO5M/yUtjMsnzjgPVr1UJTtEAST55p2TH1WpWRZ8rlaccm3MZfFVuTR7HdukHPa/68QHjPE628Cqu2gTnqfDzRfbEukh7z1JxpjxBsif3lfPlJoBVdrImmcbMXek8G/PEX3wsxEH/CbCcob6TvR2IPtMP1L95CfvPP/vgBbMWgN3d2M2Ks6UouuCA/fIjtxIo40AmLaV6hzmKmOGtVTU20NVr7xCO1oDXRQmDIzOTaJ5P3cQ0S1bpFuGAnp9Os6WFM1oEuOC/Br8lWAfPUtD4CnRCCkoFta6Euodc4w7+/eskHc7gidvN7AEglqcs7kLOVU7//samtSHRLpCG/f6Fq1R56fDmy9LnBX6RRpJIa0ip+5Oj9jso0Nz2KmXgUYxQKLTGadMPdDGWvICjKWVbkWT6p2AQdbYkmg51eB6w/gadzRsu7UUllKf/85Pn7T9RjVEFkWUH1qbQjwkw+hpzmyLHPLsDQNXg5ToJjbqI9eA8ReaqsVMnMF9JqK8AaClPE0T1TxPAsoS0lIdsh3jbIzR18UtZNhTLkGDCqcSoPGqKHe4iwEc/a7XQHFPp0inG4A4xFo+YLCNz43BmAliY9KcaqDYDNfh5zzkC4OuIYSiCw07bXVzVNxAU2mlyG4WOh4QayIZL3+QsKP78r/JFk1r9R2MCCRsCsA/v3s+WowwVVVdiVtkk4+Bzr+I3y9IrwKrTwxwKfevDXHShm4olAxcw5RS7hq3q1Lcg8NpcQ4HP6mTli/lGEApzg8tkSExzGx9SzJPdkLK/OHvZ67kWY7IaWViwe2j0f3p0iwCOJYpg4OaFrMXI2/LcJkB4gASqRPtW+aBrp6khRaB3C1p1koEX6hWooc2VnxAldU9a8MN7Xp5I8aLK7VLEPuu/OzsU6BJE4HMmoHV7Jn+Xr1uOAyllOoKJp6vnQMzbOrcME5SCYH5BtNH7ACCOPVOK0BRxA3cpG3qD4Gcl7ckdWgMV6mluJ1+tz9N/uqACniuGaVCWDm2UpzyxOfSMRSKvVFJpH7tt0D5oCHf3ACHMTTE0IcUDS1ory6KNvugmPFA/16NUSVGSUqZYAk2cO1SqmcIbuM7WUg1o4ydIP3q39xwpMR3sq1bH6rPpduEbBAQ9mRl3KqY4EFUBz/qK493w6l/oH7XYkyYBrdvsfYXgovwXf1TGgZSuf37vA3uv77x1KvhFsQT/7f/6P7NNLS3W0N1lW3z4I0LqHk/TKGaSVw0JCdgyfORXm9rtas8pu3jmnINSNsGPqN90ffixjbCU72LnhLQixQhKRiEpogfV8ftoEdqKh0dAC06QAdDmUlJb2TezNK6gYA2iOP3fX31io3TwYQJxQSkhkrPoOHUBwwbeCghsSVD7tIv0GBWS+4AqL00sj4pcOiD2bo4YgX9/fAvz3QjRWyu2jS13F6BLmigXTKCVoFQQjUtPwKefVSSigCqKisqSQuamLj6oCCfvZLRd72+ZwWhXC1z86sB5Csb12RmozRFzZhoN/jqc8C598ZCXMnuLoF397T0k9/XZW6wodXjiSpCWOzzLFM/89d1bXmJzHEnnJj8CsfeZdHQUFchZATVxaJ9eknYK0fEgbdqrMVSt2U5S00WxlA9Xw1JfCnXbh6OP059f3LpuNxfG7OnWvK8ANbi7z5DoeQlry1tMILrVtgCt6jbchNJ9TayFCngUlhXD8x19rw5WPknvBA4NfpZOECQhchP1o1YzmcoEWJ7jn6/92uldd2mt6ziR//V/+Z+zFVUEkgDYAx7+FgrANCYQxThqQ7WwRxka9lskql3BhHO+f4ABjLlp6Y83vyZ9BRsjXpwDUjRVvyoCULX0RlmCM+JDBGmr8SoKpwxV5b+/f/6Kp7lIgVoh9G9IgP3yYxvhOnsFSGlGLQ5oZBSXMiIbsCLAJG1k8xQfE2BbALxGWDuNz+Cj/5eHJC2ODdkibk+Vm/fAEdquSCQtVSobpKVf54ALfuYL11SGgNKSpZBpkuhvAjItyE02lkpOK+TZupvb7dqlK3YObV/pM1ssuaPr8/bpkztYBp7a6NQ41pECD0y5iNfrXCe8HeDKzy/y+JDJ/Wh2wp4MP8WYP28rcE2FAGpWyIEhE2Ad5q4SJpqKbIh3b2D4n5inj5Hkyq1SuxRUU8Pz92JxuIBL2G3AgDLO3xWfMDTKpieTT+zr6SHcr1SORLnrRrpeIfTyFxRVTkIzlAHxhLbcoo7uZw9vQkVQlomfpUODvqEfXvmg0xTALQX9GWBFEXg2CRx1oBw2Aux//iZg/6f/8X/IaneU+q5OO4IrPsRWuYwPeU9KDBfJIjXCHCoTebmTjTUEWB5Yxo8tbKEf3aRI2tNHpATPIeWQVuKrLF/45fBNcw80/CiSUWkwqKeYnQAsttv3yQQ4hcRWkt8KgyEJ+/8gYZUOsw3hLSRetZABCfKgFC2viCl5dY5QXpAQvH7eNQBgqxlomZLSNosh/F8e3fCiatPTSC0+j2BCuSHiC+XDwQroXgSsPiDaooh4vxdt1HyWBI4JGNw3xeqgwCXZQ1U8uQ8T0S+uvmMniIVtpJjwwtGOPaHQxkcPrnsO/zxp4LUs07JRv0WKTn9rl6fayFS1xbP+TiXycS3PUVVlC4VRuWrumkX6igs31tfbiY5ulnnShLCOxOjLybl5++juTYptUFQEACgEUMpoEsVU9bn6Gto98/UUk6mKbF/9bQXz1Z+onvMfg7dsA6+hVg7tDyFry28uvkPVGQLQeaYJHC+qMP4nyp3KVqyUG+f86rwQB13ktlvPmlW/IqSc03p6TE7COmChBNc+QAc4Zz1l8Gn6OfJ//O//W7aqtsbqOzttlze+eooGDq9a2dtkfJkBGqQQh2ynZ9upHXCin0ot5325O8R+9wkS9ubQIxtiWVPkVFaVP+R7F3GX+sp3BUorl0fLaRmAPYVE+DWK00k6txnALhC19GR60v7t+meetbqNoqSCDzFJHfm4NUuRtiqro3223h245ImKlxop9UP6CuKGV5pCyFv2p4mg/Pzw8DAbwrEPLe8LsKpBoGBtL1spQHKKK1tR2irJCyKDYhcKk1T/IHW5fzBRVNZTgoetlFByzhFY/ut33rMWHABlSNynrAp3URo/fniDPQXmmchb1s1qdJqIsXfIeuhk74Qyzl1HcZycnbF/Y1KJY+7SPve3S7jSBuWKyXLS1dJO2soAJkQmBHZvZfQ+nhiz//bphyRabuH/j7O1KKGCmpAoi+VFJdTErQGw3TYA0E+0dVolThptGPIFHrY/UD18YnLcQVuC7nEWS8VvLr3r+0JUY1ZbhjY9gEb98c5XNsWzrAHaGHRGxv8wx0uAFSVgZfw2YMVhoQS4ZqW05gH7/wEAAP//SW1cVQAAQABJREFU7b0Fl1zZlaa9I5mZmTPFzMVgd3nK44b51vo8v2vWmg9+wEC32213mwsllVhKUUrJzMwYMM+7b4akKpftSlkuu9bKmwpFZsSFc895zz57vxtu6Nf/8fNYQXGR5ZSX2Xxkxz572G6dY8M2vjBtiUmJlpSYaHvZ0lNTrbm8wo43tdmFo6cs29LNYjvW3vHY7vd22uORfpvbXrHNhLCFUpIsxDVCoZDFYiGLxrjSdtgSd2JWkpZtByvq7J0TZ6ympNzyM7NtaG7aOoYH7eN7N22Y9m2GomZJHJTAceGohSIxC/FncijBMpJS7O1TF+xcy2FrzCnxv03nj0VtJbxp9+fH7OFwn3U8eWKzi/O2urFmSemptCfJItEor5hFeYU4JMRPYmISv9BGfcD3eqndCQkJlpAUsnAkbDs7W5bANTKS06y2uMJOth6yt89etKJQiiVvm90b6bE7/U/t2tP7trCyaJFYxI7RvhMth+xU8yErysjVya13YMA6ervsi6FOG5mf4lJci2skJSdZLBLlGiHLTE61lpoGu3TkpDWVVFhlToGFNujn/m77/z//hc1uLFtCWortRLZsJ7xt4a1tS+InOzndmsuq7XBNo51qO2Q1xWWWwn08mhq1a4Od9uDpIxsdGzEaZy3VDfb2sXN2iH2riwptjWt3jg/ZJ/dvWPfEkE3StqTEFEtMoG/2sNF800tdmUiH6p5ijItxj7FEvej7zW1Lpb0fXnzHXm89Zo3ZxZacDFbGhgZi2Xl0VGaGjSwt2m/v3LRHQ702ND1uSQyeQLuXLTUp2Sry8u1oY4u9fuKsFTMI6ZZog8PD9nSwz+72PrGhhSmb2VyyWEqChWhEUmqyRcIx216nkaFky03JsKaiMjtR12yvHz9l+dk5DpqnY0N2f6DXrnS02/TqkkVTEi0SijCgYeZExEKcI5H7zs/IscqCInvnzEU70dhmBQlplsxNqE/USxF+GQqvWufEsN1/9MgGmKATM1NmnI+bZgIkOEgidKQ2ATMxxOTic3VoKAYqeSXwufc6EyYc3nHAspdlpWZaS2WdnQKIl46dtrwQ592O2tXOB3a955Hd6+uwrR3uNTXNzh8+aWdbj/j+6Uyy5bUVu/Pogd16fN8GNxZseWfDQokJgfAAsOGNLbOdqKUnJFtrdb29wfmbSyqtOrvAYqubTIhu+3+/+JXNbq1YYnqKRRMiFmZihLeZMfRRYsSsPK/Ymkur7XUESmtlreWnMfZrS/Zkftyu3L1pT3s6bW11BUFRZZcO0b7mw9ZWVWmcwXqnJuzTR7fBSLcNTg5bCpMzMVG9u7ctRp/FARuN0CgHbNC/fxSwGytLsWSk4jad0T83Y7++dc0eDw/Y6NwUDaGjeO1lS0pIpAPSrY3ZeeHoSasvKrcSpOPy0oqNTE7Yw74u654asUE6Zx3Ju4OUTEDS0qcW3YhaUVaeVQG2topqO1hVawdq63zirG1tAvZOu8vx9wd7bGl7wxIyUpmitI6bjWwisRmQ5EjI6hjAQ0ifs4eOWjMDkkLXRLd2bHN93dLT0y0JybPIBYe4x8ddSP0e2jTYazvcaiw5wZLT01zah8NhPlDH8gPoBFxQyjufAVhfGdghhliPsDoJtMnsl5ueZUdqW+xk8wE703bEMpH420i/3yGZrnU9sKdjfQ7+/Nw8e+PoWTvbcsSqC0osGo7Y+PyMffHgjt3suG9LFrYtJqQumJgUgHZHgN2OWAaSTX38OoBtLa20qpzCZ4D9f679ymbWlywhlX5FWsUQ+1H6SJM6ur1jualZVp1XYm9x7NHaZqvg2CXGYmRjyX5384rde/rQ5hfmrCSvyE41MenaTtixukbv68HZGbvSeR9J/tR6RvsZm5eUsPS1Vgq9YgA2plWLe0SoensjjFcqg/vDi+8GEjZrV8LGIjt0fcw26JTemUn75Y0v6NAhm1iaQ9BwQo3OHjZkpkvUOjrxNIMl4DSVlVsS7VlaXrWekUFUjkHrmhi0OZatFSRIFKmVGE205J0kqyurAGTVSI8aqykqtsKsLNtgqZ1Fol5F6twBtH0zE7bBYCZlAb6UZG9jeJ3lGCmWHk2yo3UtduHAUWuprafT843u4NpLNktnFxcUWkFeAZ8Zy+aa9QwN2m2dt+OBrUd3LMqylJ6bAwhDSMydXcCys9YwAdcBKwhrAwj+kpQPJH0qkq8gM9dONh60Ew2tdry+xZI5ZnV13f7j1ud2DSk7ODvmE6ec5fjdY+ftXNNh1IFsW1mjPUj9zx/dsdudDy3CRI5KqvOj6yYgPMKbABb1JzMp1dro2zeOnbEW+roa0Bl9IAn73wHs9Mo8AAMACL8QQNBLkkzHp9LXhek59tbRM3aqoc1akKQRVpeFWNj+/fqnduPxPVacCcvNzLEDlY321qFTdob7SeYcY0sLdoMV4javJ4NdXCKZ+cR19rLReTH1I8fsRSVIQaiGYlEURrZNLtqHjvgf16/Y46F+G0P6SGdK2qNKoKUykaW5JLfAmqvqkDRNdpClqzArh4FLYMlbtWkmw8TSLJ26aAvrK7YFUJKZWjmhLKsqLbXKklIryM607LRUS2OJXt1csznUlbssVQ+H+lgJpmx+c9U2OS4pJcUlcHQrzERJsVJUkHNIrDfQ7Qry8xzQM6uLNsaSPzI+YrUVVVZbXmV56MjbO2GbmJ+zW4D1xqO73h6BNpVrx2hrBBCGHKh0ELqWOlidRV8Hv6vj+YmySkgHE3zTElKsmFVCUvM4E+dQVb3jZhEw/vTax3YdCTuxNGNZTMQqdM/vHb1g5xsPWS5L69zKkj0a63cJdr//iZDGuUPeDl1QAiSChOQylsX+bbWNqEynraWsCsAWmG2E7e6AVIJf2tTSvLdN0jUkgZCW7FJsh5UqtBW1nKQ0e/3waSbLITtS3YhalmQr3NzPb31mXzy5Z6Mz45aRkm4NxVX2zsHTdp79MlFhpteW7e5It6s2DwGtxO5eAetd+iXAIlK+gUrwAmBDLD2J1o9u+e9fXLFHLI8jsxOWjPSSHrunTSPK0paZmuGgPQBYDyIJ6ksr+DvPUpilWyy1a4BwnptfXl+ln7eAGrprUo6DLDcvGztKBg/qAu+bLP/Lq0hnjIGeyTHrnwV8iwAeYwnlEsmDXoBelw8I20pq7AKS/bWDxy0B/XiVc3fNjFrv+KD1ouo01dRZK0ZES24Fhliaqxb3ep7YDZbg/qkxl+QhBld6rG5Fy76DVn/wirkq8AJgUQekErCT75DugM23iwdOuA7eVlrFsmw2v7Fu/3L5Nw7Y2fUFy0Evr0WyfSDANhyyLPp/YnHB7gCGL/ofoZZ1s1yypDO6MugEWAmyCJNMtmZmCoCtE2CRsAC2KjsfIEbs3kCPA3Z6cc4BqkmkGZaMQRnlZ2d7y6JI4jQExKWDJ+0CE0tSNh01aZNb+Lc7V+zK03Ybnh1FwCRbVW6JvXvojL3WdNRyMzJtYXPdHkz029UuViUmH7NBvcRrD5tWbQ6TCJCE/bIOSx9zn1GMxC8ZXagEKTLSpRLoUlvonv1Y3j//4jISts91WIF1rxLWh01SlhtJxbKuKiy1RjpUoG1guS/NL3CrVDpLGGkWxmCKsn8Co5ocS0WfBSjczDY6FZqh8OhqagL9vghop5aWrG96Ait1xLpGh2wJ4Etl0I1X5pfYhWYGAMl2BOm+BYgm1xft5tBT7qmH5b/X6ipr7CB621vV6I25hbbFtTonRu0BevH9vk4bwFpe53ycDr1Rk1XdKl2LXuTmHLDqMAcpf2usfMz8S9e7irPy7Q2k10n02BakaAz8zyHZ/tfnv7Ib6H/zm8uWy4pTh/T6wdGLdrH+oKVwovH5Wbs+3GnXhjvs6XifJaDeqCEufbi81IIdBhKRC0uQZq2SsLAoLUyKKknYzR2XsP8fRtccElYTLcYqwaxHgmKAgfQdjL2dtQ3UggQ7f+C4XWg9ameaDlo2uj1yxv713lW73NWOfj/KYQmsWAX2vcPn7M2W46g62CLbm/Z4esg+7bhj13mFMLgSwM5eNu8z7kXqYyJ/CLDPdFhO5UbXrg77oXTYlmPWkF0EYFE/HLB0eiBhp+3fr+2qBPPQWuhACULMXjbNHiSbGhChA2WAlOTkW3NFjTUiZWsKi7nxLMtmeUlnOXcxzyFRjCX6kg5Zt6WtVYC4jDUfZlliic3JtdKsAjo0gmTetqnVZRtCH+2bGrfu6VEbhV6R9VtXVGHvopcdxAKuzM23NU7Ytzhpn/Xet4foWwMjfVZeVomK0mQ/ajxnB0pr4aASbXx9jck6adfQZTsA7gzSKcIkSkYliYlr4x8mD93Lxt/68Q/5QDj2WYX0ErBk9BVn5tnbR88xcVodsBEAO7O1bv/rMwCLZFraXrUcAbaw0n547DV7DcCKDhvH6L0y1AFgn1jXZD+rhiYJ04U+TWBlkg67vbHpxlMGtJYA+wZMTCs0lQMWw+52f6f99yu/sIXlBWwYGbN0DO1NZLAF2DDG4c76JhMkAOx5GIpzsAA5jIcE+U/ar9rn3e02CGA1JwvTcu2DIxftndaTVgRgV5jMHbMj9tsH1+0yRmQyxyUmc4N72YSRXcB+2ehigrmEQlQ9Ayy0FoAVrZXCddBhUTg5HhnlEvYX1686VyprVefdsz4tkGemWhiDZX0RagXJmMYsLMfirM4vttqCYgdtTVGJFeXkWV5mZjAQWL5Lq1vOOw7PT9jk4jR0zI4V5uS44XasvhWwaAAxHripRWiaKaiXz7sf2D0s1gRUggbYgQ9OXrT6nCIs80SbRz/umBm2Xz+9xRLbZRPjg5ZfVIpR12g/bn3dTla1WmpBpq0hyOa51if3bthteMih8WE0jIilsQRGNPuRaFox4qqB66vSWekfl660R5+JXkvcjlkRBs17Jy7aaZbaVvjYneSQTUEz/Y/Pfmm3uh7CA69ZDgZNbUGF/cOJN+y1hoPcWwDYzwce29WRDuue7IOLBDHcryR9EsuhKMatdYxUBjNdLAG031unzllrebXTWiw1dgPa8L999jNbRB9OxYJ3sUkzEzg2CgIxuwLDC/34nEvYI05b5SIYIlsx+5f7V+3THknYMZ+sBSnZrAKX7P0Dp58B9glg/uVd9kN9SEP4JKel7QWugIqOA7DefVpB6F9fRXZ5WMQuwu4rKsHXAxYd9pmEDWgtzeq9bE79IGGjNGJna8v1rUQaKAU+E7orG84vOyPDcgBDBstQegrkBfriFuvRCpTNJkvOOtJoBSkaFlfJrJKhdKC+EZK73MoBfba4PwRHGAk+sDxhoyvTzLiI5SHNG5E2WemaBIn2cHTA7g12243uR86zrsFxpku3BtCXGg5D2Ryw1sZmrF+pIGbtGHXtPU+tve+JzcFLhpFIyQxkIueKMqEkbbX8ucXOPe1gAIn8F08qKSaCP5kBKMTwu3TwBLrhAQyaOoumhmwGPfwnV39rN9APp1C98lnC2yob7IOD5+xi7QEmBPssL9qNiR77uOcePCdGV1iLssCKZNEVkPqiviTlRR/mZudaWXGJFbAC5XDvGviZuXnr6BuwDRlXgCImhZdl1lUt2hrGiRDCOZMJmC84B3zYjsJk5MJVwzPa/7zzmX3SfddGl8ddolUWlALWM/ZG41ErYCIuYHPcHe2zz5602210WEluSf+9bLoXboyNlcNVHvUet6UveMlIjICFFD740Zvv2esHj7kQSvt9CTv1XIfFsEkCeBqsl93UwXrxnzfI2wM45R3SeQWq4B26hs7eRD8TeBMR6zvQLyK7RRcV4mWpqqyyI42tDHKdVWXkW1ESYOfuYkkR9G90TsArPTOZpXKbDlzmmlfwKN3q6rDOgT5bh4NNkJRkyU5FOjVWVtrJlgO+pBYxcVIY18EJPGno71cB1QASZgHaLTUz3UEb3th2wMozl4RunghgtlieIxiQ+kybpEQKCng+A3sSvfAUVNDJ5hY8eiFbwOP08xuf2nUs8OGJYcCWx7002vfaTtuFGowejCjp4w/mWBE6bgKGdk5IHyEJNWk0WaIv8sJczycO7UhGP9U+6qsIUjmyGvP+DMPhxpLpf14J8Muof3i8NplUMViSTLuE4+BUy0GcAnWWGUu3KMf9z5sf2afdt9H9p2EyMq0R6f12ywm7WHfQclKysCEW7QuM1JsD8NfDvQCP80t32MMmAatj9KYVhNbxAqTCCu/CQJiVJIV2/sM778NmHLda7I10nFJfUQm+AlgGYq+eLrUhvj0D6y5g9bnrY7uglfQOJJY8S0EnuxeJ310HZjmO0smp6JKZqA5V8Ja1SNmmwgpe5dbI7yiNeLsw0JCA0oeSkRwrHDMFx/q7uyzx3R1uzIQFpvQMl5Ti4otZyg6jA7516jy6ZDm8ZIrNrmzAFIzadSTyE+ilIfRj6aeSoBJU2tSxarM6NSJpxyeSMv6dyG9UkywmkxwHp3G3nkc6pCBhV1k5ftV+zW52P7SBySGGKITEyrUPT7xub2HQlEKFrdHu/tUZ+9X9a3b50S38AwCOyZuCY0f7S7JGkI5RefX4PZNVqjC/0A24NAA7PztvSyurXAv7AUBE5TBAJ4vh7eJgAL8NoLfcTV0GqyBK7DhCoAHbIhSB1lresZ/c+siuoRIsbC9abk42btwaew9a60L9IYzlBNiDOfsctekWbtynSFrZOKLb9rbRiw5yN2efA5Z70m1KoEUcsPYygN2buPcrvtD6F6Vs/GO5OJ0uEnCZbq5G0BlaJySxJEn8Mz6JYngFN4HLE3WiEFK+Nr/U2sprAVyDFeZloQ+meRyBlheBaQkpMsXy/9mje7hBOzHKplHvsOgk1ZGykuApSPR6LPhLR07bYTxGjSVltgkhP72yYA+QHO0YaQ/RjTcAmpgMMSZqN71L24JVQAJB0kISVvcp3lZeqPTEVDtQ1WhnMGheh9jPQofdYvX45Ok9u9n3GMdJL163DdSakP2ns2/bO4dOc08lvuLMYpB98uAWzgOkHDz1JrSce5O0GnHdMLqdQJuA6VGKAdta12QV6OWKtZgen4DlmLSnc5Nw1JL8IgYBPS9NfPQB12mLsnIxUMtwzZ70SVsOZ76AW3xobsF+dfeyPRjosPXIupUUFNA3jfZ220k7A/PCnMexMWm/fXjH2kd6bYAJ7d7QvUJEQHAJK6AH4+4SVhOewXbAbkjC/pUAG1cJ9C7w7f73DJQCp4JLkvDebG9uovtuoo4g/pFsMfgsASHCAMiASGYJycMQkIF1hME61txkrdXVxMBwYm5QS+caqsT85oY9INDm0XA/ATO9NolTZHl52bLy8y2DpW4TeqyAmIPjLNvnAJaonWSAt4FUG1ycsjs9HXb14W2bxcmxhrQWY5CkJUmTTfJOE4074Y6YVLK+wxhoamPM+d2Wino7c+AY8QwXLF/7YtB8ARBuDDyxu/0dtojHSF6nd8+8aW8fOYN7tdpyMF5EMt7tegxldN/uAezp5Tmuw8pBfyQnyzDCG4eTRM6Zxqo6uwQPKwdCdWGJLU7O2C1c1//7/hVbxrEid667ZGlXFCM4kf5PZcLWMlEPVNUzWY8TqFTlToSu2Wm7PTIEU3Lb+gAjd2Q10JBiEC7iiTuMKsZctI7RIZwLV+wp7vWplTl0aU1ejeletwCc6su4SiB6888CrPuvmdl73eLSUce5WhA/AQ1Sk4ItaFz8LwE2GckkYnsHwLkqIsCypEkJ10sRRzEGKwkLqRSdpqWixt48ftLOEXUkH37AO4IZAL6ONBkBbAPo4k8xvvonxmwM/lZ6EvKGfbbc4KvIKXbP2CUs5mJctiksrTMbK9be+9SutN+0EY6ZX55HB0zCuODFu/crE0OWt6SB5oqMLzEKsuCT0D2rUVtOtR62d89esqq0HMtkfDog42/BVnz2+JZNIfU3kSInAPWZlqMwCgesgntC3bXRiSnrwsnxO+ilnokh28DpoN5Snwi8Wk0JdrMawHYG/e4gE7eWmI15jrvT32U/77iBAbvK5JKjAXUJZwONYyKlEhhEFBwAP1LfZIfrGq0c4w+tyq5D+f2u57F1cfyMnEZc60BNg71DvMHhigaYnVJbxohuxzHx0y8+teHlWVuNEM+htqhxe9o4AB1L9yI9XQ19rsNyn6ySkZeRsA5YLYN72bRGsgX/7x7of6hxu4CNv/vXfEb7RRspVE10mCSVW7jci1yLSelIFzw1YYwccYg7SxvOCCjI5e+IyHqLpS1FhhBXjRIWp3VasQCrSOU5Bm4A0PWNjxKsQYzE9CRSc8GimdKjUIFxzZ/E0/QmRH8LwTZFeeiSBLEosuz6w3sAfRjpPOOUUFQTiIFUUIzamQh43bmAJBNoZXRtQcorMqsY3vgYLMR7516zFiZFHl41UVvtOAR+ceeyDU+P2cr6slUz6Q7UNNnrqCbNeL7y0cHD6zs2Nz9vP8P4uotxMz09hU9gyyeasxa0QatJKdRga0MzMQWSsKU2Oz5pHSMDhCWypGPASeeVFBdgseWtAFVA+x3H2DyK7qqItiz6fGd1w37T85Dr3bYZorE2oQPl1TpF8M7fnb5kNQTmiIGZgCq7BYvyb1c+JhpsjWg5IIdqpdeeNsfDcwmLNAoAK5WAQXl5wDJAe6W11PAXJezX/R3cXABU/R4YZ9w8PKtAxCf+I0mo8EH5uR2wqApaDpPCIatCBxNrcB7D5hgDptkqibUwD2HO8plBhyeJ+McgWN7asBlAOiZnA8EufYBwIrpoy+iIG9OLxIa22hsEeJwifrUOx4IExizE+wjBQPLJz4tiA4wL0G1jSNsFXKhLi4u2zUogVQAtxSON1FeKplKYY1FmPlKs1d5CJWgmHlfxvevJUesmSu0396/bEzxvo7iCMzOyoKZK7TUcHkcArozJtAjnYWJeH+shZrfXeof6bQKVZp42hQhScRqNfsrAcCwkQKgEbjsPHXZhZs5miLKaIvBFE8rtGkWwAdY8JKuM1mYm5UFA3lIDMyBGhQk2MTpuH/U+so97H9omsR4yrhrLK+1M80EXBnm0UTOyc3LEbnY9sY/uXneXN0Qv9wrIXPfUuH3TTT28K2HFuWkpoI0K+/yzACsLUNbwnrcAdYGUjf++++7nclDym9qtN4lY3TdLk67nSjfS0ZdZlo5E3LWJEOc7SFgZvHnQRm0sgxeRrC3FhNZhNGwxQNOzs9bb3+f6cG4u3jEGMx+JmYwkFM+7xGAMj41aHx3/eGnEATM/NI4vvg6f+lE7e+CINSLxEqV+IKnlol2BP13D8FJnziCt+5ambRKJNz017dFfC0SBiTem4R62mETnp7P0lmUX4o5usgtHTlgN0rYgJdOiGUQ7EXX2BRFbd3s77HHfUwd8OrzxsbbD6NMHcOe2WmlalmUwkAMArxdQdw70Wt/YEPGnIzh4IgY55X0jlUShoenw2imAb32FQCKn2mBM6P2kUBLBOAQVQWFVFpZZQ2W1NQPUmopKK4ZW22ayTU1NWWcn7mD4aunMCn4vgt89Dd11GoFwkpdovFWC3m9AEd6EdbkHaLcYnxCCQapGaM+AZdCddpGYAV+7Ejauw4rqfCmVIKAsXgKwao+QCEjj78Gfu0j9CmD1XbCm0vxdYCu2VAZDCAvbJRiI3l5b90Gox0A5i+72/vnXWEIzMSQkEZesa7Dfrt25SYR92LKJhjrU3OYDVFpYhDBA92SJ3IQtcPJ7AhCMDtr0wCixocV2sLLeDjEJJIVoRHADzCPZ2Jgsmk+2jgG4gPI4S4TXJNZyV2+39XHNYdQNWgtnm2YlWOyVnKMeD1dLRa1H6+cAJhFfUtfm0QN7AN6trkf2Bdb2PJFkO1jwJbAUhyDwXz98iuD1SqskOGaTi8pbJz26a4SwTDIkZlYXaP8yk2jDMwlkkLpqwqQUzRbjlYCOn44KIidNEfRVBWpAS009cRS4cMkGSWVC6X7GYRN6Bvrs/sMH1snEGGM1ycNl3FheZe+ePGuHquvcMxlhMs7urNkvb15hoj1lpZomMYRrIXXhRXVnvPayaf+vl7BancX0RJh4qey2Jx7W42H3zLHtNjwOVv25C8LgLY7W+Mfxv7l5JAK94KLWY1H5StkIMpNEd0UwurLJRjiKy/Mc/ObrR0+7kbIN99k9TjYChPY1gp/XUR2SOa6hotolZisdX4G+V4grWFNoBwNpbHHGptFNF6ZmXT8rzy+yUnS6HPjeMIMhw21HRpTmKwMmUISQVsgTopq2CUhfsoHhIZbrAese6rNNpFUygK2rqrE6rqtJICOqnEAYLVIaVr1v0tZZVJEHhAFeR9L2EbU/g3Eog6oKoJzB+DsMJaaAFqX5qD9WUGnkKh8hRnV8gSg19o9Huim1xy2D3UmWQoRVTmKa35OorrLcIgBb4hZ/IbHA2ahKa0jHOST904Fee9Lf4xkG86trTuvVwgyIn3772CmCc0oJ9k612e01G8BV/qvbX1gnOvIaky7MfSgyNSRJ6bqHBvqbboyxHyPA0ylIdfHNLmEBSaDDviRgOc8eN0GCLY7DLx29+92z75//HWJWJUAbKXInipEgHUwTJi0DD4zAQyclM6NLkBgX5PbEoFEUvNx5i+iNypO6RfrJA9yqazII+FFEUxkxDCfQc480tdqhJtyw/HAlS9Ps4VobzGRFpImc18RSDIFCHtegxdZRBWS8KUwxHSBnpqZbToLi4IObm0Oqj2GkyEBbh5RPIgOiobYewFZaYXIWIYMAHfoXP5xtYDymi0tlrLbRK/twUIjvvQXF1Q0BL306i6W4hfgAqQbKBCiHXchHXZAna5tJpqyLCSbZ5PwsATrzGI/zRGUtuDqkNBjpttnsX5FXiGTNIwYZtQh1qYjgo1zAm4RxCF8Ae7Lg178DfdZJ20dpSwIhZVlc7yj9JDXgHP1blJ3lEvTp9Ii1oy5cJrB7HOmKkYADhmmCO1yRVS9BE9CDmsLqRwGWpYd3XBw+Bt8+YAWG+CaJyeZSIPg1+IZ9nu2l/XlplsmyFZA87hORlKY4TqSrXLX5BIwoVPGdE+ftELxgJeDdZP8JltWPH9yEg3yMzjdoEQINkohpTUAPTQsR7ZWR58l20k/rampMUqQcLTHZ402ZDFx2B0DJOJvFcTA4MYa/HymGb3+L5VqGWw55bxXopa3pSE6WfbmLN5lUK+iv09oP45BgX88/y0UHzWK1SCRtZ2d+xcZx8U6H1z0NppB7SCUYaHFn3SaISPvdo5twvo9smvgCrSIZyRlWjTqhnKtjZfXWRDZBUVERGCGYm3tdJx51Ha56E/pP8QKaWKLqFNgi3V/7pWNspsPZisbKQh2RTp3MNVcwSqcA+pMxkhyh+rrGB20Sab0V3UYVKGT5r7ILh46TJQFNRt9mKOqO837y5C7erXbrmBi0RRwyCZzLthk/fBFKAnXQBqO6h//jKkEcsIFr1p0yrsN+AwnbR5jev3/xOYEXzDr4y5dRCZwh2AVjnIONv2t5i2P2GVx3UStJpu+kZ8rqjGF9agBS4UUj6J3y8DRi4R4j7eRNLOoGgjIykMpzDEIP7f6o/Tq5Xp1EcNHuVGJxs8jLgumOKQuXCPtsEgOlzx07cphM1YN2NKPcP1Om5hbSaZFUncHZSeufHLWuIaxyeNIFaByBQmxFNkZcJRFDRzPL0TWxshsbCd7JIDCFwB1azvjBJEhu6B6RHgTGrM8t2eLolPUtT9v41rLrs40AsBSJl5hGLAL3+3HnPVzBD20QIn4eybm+vGIZBOgUkVR4GvZC6kFNFRkS6LSS8Cnc8zOyXnM7LqiCOe8qjHCkbpXckl67Aze8wYRX+GLP+LDHS3QC2mn0YUhES83NIg+u1k5UNNv5Q8c84VC8sW/g6dd3b9gneN56iaJbchUEkw4vXQi2RlqcLvRsjP2g+KBqRNUwyaPgM33iLjOuqy/iRpfUAmUrB/ERTE7GNZX+/Pt33ie2eDeWgEn4pViCvvlJ+9mVz4kdhXJh8DyAW4rXXjZvV9C4Z4ftSln97Q3m/St7cNMAliVNAS9yPWpQklgq5I6M8ncMafbm+UtEGJ3wGIJSmAJZwO0sZ9fwzLQTyzoyMcIyvs4Kgx6EtNNSrygoRJAbI/LB19QSwE1G74dt55Fi5QaDRKzqJjrtnN1UPGx/N0bFFBY0Kgnn2FJ70E8TWQbTeOWEUu0YxtEZMmKV/lJOGo62bc6zwc3NkW02TdjjxDQ65/CYDfYOkhA4Z8hFO4Turcio4yz7xbiY02nbILxwLyB6NNzD6jBMv4+7O1YqTWF6oVXghq6GYqqFblOenMAuD106/SNDTipkAAL+4HfBgNQ4N1T1+dTCMulO0x4jMUDayzB68AzAXSKIJYG+zUbil2PwncTN/RrtKi8tI/or0PU5HAlrBMqP2mNUh9twsAMcvwjHG0byKnbVF3OEjJwmakgQVyDMMHkleARJJKYov5AkJ/sR0sq+6Ep8CyfErhjEGmftT5/I8I4+M7q+b2/CtNRhY6R9HWD/7fJnAWDhIEUH7bUugW7ypTYZDXSAvFzKW0pR2CE3KwkpL5Y4w++/8badp/ElDFgmYJWH5jfkFX3CkjrQ32eLLOPqYGFUoNXy6B1IRyhSfxv/fQVu3ANNLfZPJ96yVnRNSaMhrP6uMdySD+46hbSMZa7089SsDHTpwODTnJNFrFdzea2dqm+zS4C2FRUlmcHYgkFYQi3oJD2+h8DyYeiiMYj88VESJkkpjyXtWE0lWcAEj59GR23EM1UJ+DaQJPNI8h6Mr87xQXuCY2GSnK8ljCJlHKRhZOYTjF4GeV+FKuI6KYEy2UhbGWVymCjUUHSgpJzSj5bpwx3aKbhI5xSfrEwKGWtLMAyyEyTbivByVdOOZtSrw0SvHa6oIOqLfhejQkf68kw/L2GQTS0skJHRTax0HwmkwwQYkQbKPfMPaQt46WNtOq+kpX5Tn7ms8o8ALO10BoYVLRbd5Ev6k31lbBNC5NShg5gBjLME//iOAEv2NYBNBQO/J2FfBKwk1LcGWBopg1G6q4ysNEL+FJG0ubRq+RgPNUiBtyhKcbL1IO5FjAGAtEFk0s/x939MnYJZUS1ISvn8BVjduL+rxxggxZFKUtc3NtgRzvGDQ+ehnko8j0nS4w4c4wNYhmEAJxorAY5RgckxBkOxvRoQBWizwFoZ8bStpLe8JYu+up7Y3nS8avDABK5c7XiIW7eLfLNFYnrXASSSJIlgFTiaXKRqFarMQQJKlJx5rIGMWsAuoImqEj/8UFnBAGKUdiyjnypRUiBIBpgKyJZRlc3956Ii5GBIib5LI+pfqpNAu8Ixo/KMSZUBvAsAbQEjaxE9WwaluNsc1JtiACCgtlU1uKu2OC/HsgCrgm22Wc2kmqUgKKQHK3NBvPQwyZ/tuG4/vn8Tu4FVIwLoUN3kEpf6RpcLg2BVLRZAJTWhBaEoA+AS2klMdCJqWASaTJ7B7y5gBTHuSryipKRCCqWgbS6ushRWEbt6EL85+hVWuHLFFFE/PEqqxuN2ArQ7bIM0Fx0vVkE9J9ALtwpX9DQRziVJ0NLSYscA7HutpwBPIandMVKqifKHDuskUGYKKSRVwGNcNfslaXiJ3/QfwJeTTKhjZoG9iztV5HopUU3rwHwS0Kmuww1Au4zk3OHcCbg+Y3L8JwQxBlnopxVQXm0AXcVGqlFLikjOVETYIqzDBOrI6OS4jSClu1DRpvFubQJCrRCi+qSmKd5BzoI0Bl/9pDiMuINnC7ZiieROrVSqQ6CUmjA6LL3gQiCHYO8KeGJV01HooOpGVEF9YaWR6m8+UabxCK6T5VsAJ9vACqIU9EyWY93TEPbCfUIvHwx1QXEp6kwUF0Yu7RJQHbCaYvyeANB9TCUwtNwDaA+VZJJGo7iw44AlSF0qgXRYbVoV3XFAv//T36qEdWMLUMnalW4kHlW6587SOgPbZu9SduhQXaNVYjGLmhmE6FbBh2tdT3FzDnDvEOhIjzQGMsqSo6AP6UIY/y5hpetJxWhrbbPjBw7ZWw1HrJJglzV68SqqwEe3rjrVs8Bgp6AKqPOlb0nH8gREJEmE9S+SSlxtlLz+xAz7/vHznqFbW1FuMs3GYSv+7fInFMK468E3IQY5jcGW6yGCNFLVFo9jhW6TTtpW1+CTp7m6zpd32S/S1ReII5iYmbZbUwPWSyCKS0h0zuWVIM9NS714YemGHtHGxJC0Uh/K4IvBknjaCVxpIstWGpMmG/CpJoP01Vp04ToiturQj2ULpMKWLONCHCUg6EFnh/XiDFlcmKevi+00ATwNqCMV4pMB2jq65+TOKtV37thn7TfgshdtDfeuyH4HLP0psEpyJjCR+NBXKAFWL0W8CZAoL7pb38+ttl2VQMMVByxdbf/47t/ZW3tRCcSJfSsbna3lJQg65jZZYWR0ZWDknCeiSUEYlcR/5mRmuEX/kKXpM3za/bhIpxlM94ohITSQEZYgRX0pJE+SR1JWwFWAd6sA24aErSVrNh8JyzFXiZv9LYCV82Ge1BjVJaDXvINDUTqfjhNrobbF0lgq0S0LEzPtg1MXKdjBeailsEHc7jhW98+vfmbXqE+2wXIsuCeyjFP7AQApe0LLZ5DeIo9SCddvBbQCbD0gKkb1yQbkXqUGyTi6jfFG1u8M4FEAziRqzzy67Qo8sSSpPHpaSXRepwN1j2QWJGUq8g1uGcklKrAYdqQcx4niZ91dzSTKQ9Ln42BIZ/KJTx1GbWiHWmuHm+0dHaQWxKoVoDooIOhIeZ0dKKu2CgCfSqD7GmpR5+QgNSJ67FH/oA1PTgLaNY+t0CRXSo8SEyVhtSkgySeT0Ogb7YUTUxC3m22Ms0Ar97emnAOWWAp5uv7x3UCHbSA16k/rsNz0XksV7bZo72/cVABYbhBgSF/MQF+rIRP2Ejn+7x07i/cmg6UjZgMslbfICvj47hcsf3CSgEmzlbtnxDgNNJgAmwLh7ik+SG4fUCZFU3OzHUW9+LDxJJkGxZ7mff3JI09A7GCJm4aMl8dKReG8fyW1vG20SdKfEjYZDHR5ej7B169RF+sQYYl5XgNrGHXi1zeuUpjjkXu+djRQTBJGDKACXxmW/NMyqYkkUJXjTZK0Vcifajdoec4mXSYN6bTFvqvEMyzCOswQdCMOVUE88zgZVgg5lJ66zb26NKWdmpRJovRyASLAVzkjZSyrqInc0zLecjBYFS+QQkdxl9AbgIT0ot7JKUIMh2ACHsFa4M0igFtlnSSVD5bV2FFAq9JRZag/yRlkN2zCL3O/dwf67ekwxQNRYxbR29dIRVJKueehubALJKx3plQr7j1GX0hF0iamwlkC2uMqAU3SyiiVQLSWG13EjHxDwCLWvyUJq6UyLmFZ0FxKFuMqPUcxsvMEEZ+BElKttmU65CbMgGpU3SQ/KgwvFQoxm/HiyAIVjyclPyLPk5L36IAwXjI35jBgqurr7TAxBj8+RNgfUm2Hc6r4xLUnZN8SkDLKEhyDIZAeKynhxpoDXrhDJeC8RZQFalZNgXNk3ja1Qrck2yTStYeQwU/v3cZ46wQHMBNMJLkwRa3JuEpUXhXtUezANnrpFqBTQTgZUE1QZCrupvoNFUykEjxVGXg0FJgeFq4Y5E2kuBwVqxwrh8EW96WIMenXejGfuOcAsKqYkyY3LZM+C11Xeq/ieaUrSm1A5AFYBBIrCKclz2wK8MGUkIUspmI5QjwtxlF6Ot5COOEG1IeTeN9aK0mhLyl2BmabpacLZqYTR8tTapTJppgg4wFL3W0AsQLAkz4T2barJkiicBy9w2dMMgFWOqwAS5u0xVUCZRy4SvBNARukP+iE38ImwEqaMTjaxMPWVdTY9869EaSwFBZidEDTQOh/Iu8QpXy6KaoWY3lOQG0IeD46n+OlEig71GktwOIpN5xTMbe1APYQxs6Pmk47tUQqEwmH0xSuGLJb6MRdIwOQ4yseb6AJoNhXAdUNG45X4QfF4R4mEuvNo6dYMqvp/Ij1A9Z2+GsZXN1DA0hj9RsDRjBCglQS0JTIRBB158OF5NzG9SuQJaPXFSD9yuXzF9eKqqC0ldasUisjA1fF6xQ4LuJVUf/b3J9eQToRH/iEYnnlXB5hl04UF/3HlPOsY60yCs5Z45pLAN6dISzdOQTH6JWLU2VheR2Da8FTeNqpPtM/B6eNJS98ZRBYn88+zUTGHUR9OYahWYLkzYGhmIZVUL2t/pFh60H31WuBcMw1JCRz4dl4OhvAycQmSIONohJoE5uAIu59FagEu4CFggxUAumwJ6wePTrtT9FaWrZ8GfNTf0v/0elyFigy/jAd88M338dlWGK5DPQCgca9E0P2y9uXXQrMrFE/CsQlxBhQvufufckJJGxgUXsQOudLR5JlQQc1NjSQMk7AdFmz1RCcouJvS+iXM3CvNzoeIB0hx8eHUTUALaCQZa6gjFSWR6WI55I5Kil4HEPwGCniWiLXcFZIn7sKvfawr5uMgXHACR2EcZVMQmJM+iwTSKuA2AfpmRqnQPqg2/K9wKYoKqWo52Rl+zL+bt1RioLUOCOQDvshN7XuUZve4i+ap5M93/TFs88AByrJ8g55bqwCym9bhlERdVUK6MqIpa1CLVHpIuW6tzNh7ww8paTSfQJtyA3DhewRYEi7fKoethLV9hpBR8pGqCPyKwzYNpD+CqbpGhqwBzA2mrBiOhS+KLe2BIekrcDp0Xi0LxYSXcc9aGLvusue6bAImS/xsLsSNg1V6Y/ysIlczPm1513xl/vNb4JxRIKp5lULy+MpAojVOYVY/qpD0DM2RJRTl10mMn50aQqfEjn2Udx1URU6gxlAakjqOI3F8qKCayoJVAhtJANHhkdtJcXgoJKq6HyF/alD5VpdA7T949TgQlJ0DfWRwiKSnYHlfNJdRSMVc44GsgIUNthcUY37lBpgfDeGsXKX2NarqCiDBMMowFt0VhK6bkoSjANtibHuyqRwJCFQxFFqkrnRxMAGqwCDi+6aSiBOBst4dRoOA+IgcrhOPlUYC/ML/PdsArfT4Yi1zGv/wCrnzEKuVimWYNFgW8QcyCkxCwc7BT2muAEFpKv2g45RVFkrwFNgUHF6tmUhkaeZqP1zE3a79zGBRF3WRX9rpZEzQRMqNy3bq/CcPnTUzgOkYjIR5MBwlgRvYT903H1Aq0gwZXYo5kFMRsC3Ak7fWA1gXOJswqsFLDf2bWwCDuwKASkUiABMr5GYdxZKRe7PVAZ2i1iCm08p9EvllHsk8i1iQYcyRH3xCqtwh6SYBh4rldmswspl0DIKVHGAIkVU56sU1aIA8CWgYwrY7r9myVSnLqEfT2ORD6CLKfhlARppW2Cjn1ORcKVII3m5lPBXCpOgIswLAKATI0XlJ29iCC7ga99ErwR6rBTUCwghFbCGZCzKxRt4hFARuJ4kbtwIUXSaqCkBWvScbAdVIk9D+mQB0AIAWwRgpTrkw6Uq7V36byC9pAppoQWwGHqqTqhA7nWW5an5Gb8X8bkLMCDLBKHLKOXqhByqQEmznT54lEyHEqrH5LDikHVMgE3n6CD9/dCu3L/tk1lFRVymIzhC+EKOth2xiyfO2PE8aDLUl8TMdGpB7FCoetXukcCplap/dNijyXa47wCcWvo5Hkj9PmADo0sqXWB07bIE4mH3JGG/LcBqSSdYWxFURUiVv3/9fS/3XsZgqV6dluiP7ly1LzruWe/0MK5Q3Le5cK5b3KhTeninWF7kDcojTK+EwW2spJ5XeRU6ZzkRW3iGWKIzAKeW4y0OUizpKt6ydKRZtqQlIFGp+HWkQvDCTcxEwqTHCEt2y1s1BzIZVCULzpMWPTQ+QqmkDrtPOXjVMsCXShoLVJaCFLCWQgQZKC9NyZSBgAVUSEIO900w0x8CtFZHtU1uZRrDHwKJPkLCsfSK5kthIirySnqpQKAB9peOo62KL00kEkfMgSqIK01d5UxR9X3iafJtQUHtQPhn4gApzytheW+khkKTnW1SQE8m10/Ey7ZJ8uYgWQaPPbJLHkDpzWpsSnK6e+1KYTR+CJ99Hs9dZjHqVWaqbXCdXurf6th7sC+DMA/zCAHu0qV0kC5P+1Aj1AeuEjC5v97ogiWA1lLOnliC5yoBB27TGb1EoP/08qf2EKtZ9UF9lnvHscMeNrEWPouQIDIytKRoyRahr44MBkxWo26fwWQApaCLzirJL7OD5Q32g9Ov2zHqBWRy7CTVu/vIgf/04S3cnh3UDphlXwh8ZnWU9GnKeFsmHS1us5T41yp03mokaxWuVwVmq4aXKCTF2WqZFFCH0M/mlNO1umZ5SKwSJIwoHEVFpbD8aVNT1atBO2m2PuO1volOyDI7hATpRecTHTbsXqlZYmIpsozkUx8IsDH0QvFNyjYAk8GmpVsvNk4fXEMTQxjVK35BHcd+ksqi1vTunrfgKD9HoGbwq9pJX+t79YfOqyt4mjd/JJJ/JbesdGilGin6TU6FTIypYuJnj9STlt7a7BRbCX2WjGSfgd/ugwG4S4E5PUZgAtVnnRBM4UJOAQmHszVUGgfwtRifJahc+bAbC+j0wwRPySHzCLVimEmtgHhdX8arJGiwmqiRwkHAXshWUJt1+x78wl3803sfuIRVLEG6G11a1/weE60HSuenn39i94lYGmFGaTboAnvaGOQo3J6W2ETcfaFU5AOSM4KOGMZKjSC9pGdJamguqGOlx6kyoV4njpyzvzt2yc5VtlCBMIiEejw6ZJe7ydMf7aYaywihcrhhGTx/GATUUQo3XFNW7bqlCj80Yc3W4rNPo0Ndf+IWVlimZ7H+J4nYHyYYRHUHRMZrCS2Bo1RE1AHYg3pom/xUoqFomO4cnPkL7Dgvusz70NwspTsHiNYnRWZsCDViFuMELQ6UajlXuwKXrm6OAziXVB5twf/+6zf+T4P44vbiOb76nSaCOxJePCD+e/xAP0j/BcCWlCtFQjZWVZKDpuIazVaEWpZE27cIS1T5VdkOdwiOH54Zw8hcA/iwEMQcZ+Xn4j0rpxbuATtV1WKnypu9vxYRBJ8S53GD0EmVOt3E6JTgkmSKN0PoZOgBv2pQIFD4W5DVXI7CMachRP/L9z6gtP1J1I4i15Xhs78M2H8FsA/+DMCqOaquomnilanRfVSQzAMdaIk4SYWJZSCFlGcl6kyAjTFrtZSex0nwOjX166kHmonhsow0vE6+/EdQWX2AdY7CEjIEU2RRszTJeyNjSrlYNWTS1vJexPKfi0WvgdtggsxieIwtzNggoXEKmxyHxpqEhF/DqJLOK7el9EPl+ZdxrlyktaoD0o28RA8xvejEdZbEWfjPCfRb+fwVhjiHbrihsvda0qU6SPq4iAAPGgGJaZeez4YpDp+/2PsfBOwfuWIa4MvGYaKU88MKzOG9FP5VAeATGFND9J2q4XSQHdE/MQTlxT1jSEotyUOqnqC43sXmo14aU8E4SqNRbbMb5K6puN46OWiS9lJtJKy0OTC/FrBMOiZKGn0ZAPaU19bKADevHrCAKQkrVxJQPKOsX5DjupcqFebgrSpg2S1Ez1RkvECrgJckvkuFzjlCTOZhIogykZqa3SPQMJfRWz++d43q2AvoUdtY/rmkUedRbDfPA6mb6hsIICFOlPPmYu1KKoqsVqqLPEMDBGX3ToxQm4C6BIB1geWcaU0H4uXHmk6hI9LhI/WQDEVAZUCfKCtA0UoeMM27uniVpXSaXC6ddwXDRImA2+iHHhcKx6oaW25csLdcuXo5YLVUA+ZvYwuMOCbKHrcocQRR4gRKcotZqeoI6YO6gsKqpoSScuCWWdWejg8C2m4K1T3E6zZjq+sE2RBHoKfmnKQ6zOukyr+FsZwJO7OOp/IaYBVg72KMqnqOxln6d+As0EoAaDWfJWE1HrTZVRzG5aUA62Q5onovmyv+eIlE3m+vrgMepT3jysTCrkR6VWOtV7AEiwNUuc1UBlkzL1ieEgByHlZ8lku+acD2hCeVXIMduEF5x0QCYnKoF6syQI3k79dTzrwEr0sBlr+K3Xp5I6TZIunc00jBQYA6SIl5PcJJUVgLcIVbqCYqe+R+bsY1vBu+J+5XheQUxicJ4MHjmnySCEgR+cJ32HcDN6asXg2ixxYARuV8ST/Ti5txPV3B4q6vy2oHrFpCv43tZQGriLJYIu5wjMoS0mUOUwr0GAXtTlBTK4fxkJE3Qdp5NyGQ7rRh8o/iLEkgDUjRXKfljWyjmjeMQwLjtMiSfpkxu8HDRcTNKrVHfSgnieJT5DzRsAcqASoU/S4UqP1SDF4SsIGSvKeORhSpRLoka3hti8rOZG6ytByoIT8Jq71WFjvLbz6BFany9UPce0MljXBjKnRQuq3cmpNQRh0AVjGYj5jZyqOqhEM9xMyvzyMSn7Kb6dTJUrrJOgU2JPX0kI9RgkRk1Q4Q0SUVQFmpWpLCWsIAjkfASw7TN0G5cn5RRwV95UCTpJQk0EvSNYiJBYxyZQrATAw/l4AKYDVRpQa5ZEUNkKrhFBODJEPnbx2w0V3AEg7usRKl9O1BQKvaWmJaynCTKzNYzodugsGfjODVIi8sBddbMYBVlRs9c6GxptY2uOcJcuM+f3zH7nRT/ohnZsiFLKEk3lh9CiQdnAFgpcMKsIH+KtBGUSmkw/5f30eHhSXwcpt/SiXQrJJOtqcNXU4PM9PgJ0Ht1FFl+kA5EfoEiTQD2EKW7hRZrBJGAjcnR4v2CiLJ0Fey5n1N5/MlLHoFDffDWAxiEFZWkq9PeFw1y1YhkiBdeUVYRipUPUo43sAE+VjEtA5CXo/CeCzCCWrZxpxzSkeSTgS4SHs39zVThEY1Qm90tHRt6YDSxbVf/GsBUJ8l4J/34/WFQOpA5Vg62Y+Xzqq1jn9ygviP1AEk8be1Oauwx4sROcv8wp2NwahwSnG5lcQPSMpePHTCn2yZjoCJMCmXccf2oWL1jA6SL7fjD6ZrrW+0YlbOzIw04ipWfcw+f3DbHsM4jWPkahV197nOzY/iCRyYz3RYAKs+1A/jEWXsAx32B7tGFyvyXwSwjJSi8qV4lxDkfFS0R12rNVXUuBqQkkYVEVJg5ohAWseyVs2oMAOcyqzLSUjxYA3pudIrReqvoDvNQD9NYzgVYsnmUX0wCw+SplEY/WlaQc8s/2PkRg3pCTPjI575uoSkVUFfN4Z2pV98DL3DBFZ13S4o1YfqKKHXlyUGRlI2vqkj9S9APu/6Tl/v7uLHeE/zEfvF6ScNj7hP35+3v/QWtNP/39OlYvSVz2LdF+0XBZhFtZpSMoXP4iQ41SJJW42BpVhhOOiVdXcKQJJ78I9qHkglU2pO93iQ6Hi7k/L7rHIKh1Q/e+oNKpLUJuXWqLvQrFClnuuwarkD+WWMrpeSsJJQzFRJ0oNkfF5oO04py8PUdqIWPvSWIvyHMXxU/UTPpRILIIkma7SYfcSblsEL6okl2ZSZl3DaJrVlFf4vmcBq5VqJ2lxBes7hAn060O++6ykoKtWVmsWiVQKhGAqFuamTxCq49ENK+tIuKailXmAFzA5MByhj5kDcReHumwZI+6ojpfP6pv18U6/v/sqOAmigRnBePtdemhtyDHxbm0+ePV5Mbngv0STdnDH0hgMm1c5qgSo8RnXFiySANpD9kYkapwVDXaBVUlDXPa6wjEslu0sQeHsXDxaBo9YzdbWP4pQVvB1RJjN6gHv/6LgXVQIHK+f5esAWIGGV0/VHaK2XcRzoJhTbUV9BjjsFL44jXVtRCRg+go9XKOY7ROCKnoY4hLWNlAWImmnJHKhM0Boi4ZvKqehHvlEd6RslUE7aRJxvUrRhHg6wa2KYp8hMug9/aGzMxglp80AVdCxZolqmtfwEB9Ip0o+ZKMKM0yqAVbn8fOKA9f1oN3/6KATgDFQDdZ6gpskrTl4UnHbUfToE4//xHhvdvVIAABEbSURBVNd7da8OGq7pyzM7a/9vY4s3Z7d13/iSMizpNsAnY1JSLwhgVwZzLlkJeraEaum24SpXIWhVlclEIChDdwNDdt7Te2awHSasc6gft+wQwkNFPnhCJWD1UqUythAa6pOQCnDQty8CNq4SqNEyurTq/pfvPVcJMmGS/gRgA17xG981OyosMAf35KH6JnvvjGJOiVQniHh+ZY3A4BECRB7YY1yYg1iYor0ENLkTlfobRTcqU0n4ilpKYFLZBS5Qx2eoKgubkvL6CMy4TFGHzolBAoiVrkwxNkhqEc8ClSSqv1DiFSsgiarlzQELkJKgULyyiK8EgIxR0oTxARawaL/ALqnvlQl5F/h0TgFahoEAKXA6KPlb74EAZdA53r/jOJ3DM1QlzeMTSJf6S2/BDe3xKroH7kXzHH1LhqL0eQ8mwhjWQ+b0sGQ9u/cQPK0q8Cg0MUw1JRWKm8DQHSHwR2rZxPS0zbHauSuXftJKp2f1qgMFVvWiJCwX+FrAqj9fiiVQ52t528smt2YZGZh62INiWaswkLLQTbuG8S3jptMTrfU070WqoWhg+c8Bq/C7bQJaMoj+KSRA+gAW6gmk81nKDJXSOVoORPw/JM34tzwDoBcnwvLOMiBVWjLVYQCn00iSpC/8SAw6sDQYu2DT/fBncG3uT5/rAwcr9yxwCpgeTCPQM3CaDGqrVAu126kunScuRXXC3XM4Y+DX0ICw/AHWby3ViOu+zOZRY6gDTg3SXu8TDQ/9sbW27u7cZJwpBQS61JfXugrnifgZ8OUYtbM4YlQpZ4mAoS2cNQrxlPtWT/oWPap+UpyG+s5TY9Bh1V9fJ2FfHrAMpkC7ly0dadhMUt7ZNqpPn77Ig8lyyIaI2c1H9+3604d2nedIzW4u4e6WG1PSDqsdn3uESJ9IiLKV3EcKAK8iNeYYuf9vkRoj71UB1Im8LSryoYcMD8yMwA7wnAAMsCRAK7B6KotmsCaxAKmXNjpeLy3pwe/8gmLlPy5h6TiO887kfuWS1qECWzzCSp2vwyUhNInj/aKB0H46Xh3tlrD6TNfT/oA9APje+pFDv9VNOr9+/N4AVdBR/M/vvhJCS+m7FJwqesYYI+fPYFPAEgQmGRDrLlE969mP1mqDKrD7o0AcOXOcs6bPQzLy1HeM1YuOAxcrAvLLGF0vDsw37b0swt5ONVPy5iDPez1yihpTlIHngQ+/u3bFPn941+4R1bSGUZZAMpseUZQkmogAFuVKhbJI64YS2YG/zUOqHqxvte+ff5Og4Torx6EwBfHfMdRrP7v6kQN2mzg3FSXD2US3QMEJgkLJriUqyegdIKwgNcSFOokvZQ1FzQNFGAQHHKAT4DRAz1OWd5dEB2Lg7UJPcGkpqeEA5rsgKyEArZ9f1+LFCHNhGuQTSA37290IksOQoKnw2eo/jYv6Q6uMLKwQhok/LYfPdgicAd/e18rsiAYD4N8nEacr17yrAFL34SyltwqsildOxP0u7j0EJ86pEAACLBcH3D5WHPKnJSw7bSMVupFg//rZx1T46PL89JdhCRRcfL65lYcDE3YG4aunW6+xpPzs8495MspdHrU5bGEanCJ6RDwqYEtUERCetxXLYK5CeangRWZiOrn7TfbhhXdc0VdK9hw5UE/HBu2fL//GukiBloSNEZnkYXwCK/cRiDb1RHDj+iWQrHwvAPns5l0g2j1CPSeF33sQwMal54ufC8i+7S5rz/fhVLvSVR2u/Xxf7e7HBG0JDv7b/d91V+ZYoFapmzTL6RfuF0ngfSf1QJs7RfhYt+hxIEIdf8iO8NRzjvXR0K3rePWv+ojf/XudT9yCf68D/QIuVNRnAqw/p4u9/u8f/NDeOc5TdsgOUWJlYHRxYQG2C++QA7a3i2itsZeK1lL90Yuktjhgj5/CEZBCqZtV+8lnv6Vc410bpKAYa76l8gyoCI9Lj1G11wFLSkE0A/QKEMzKVFJf2ngYxH9+7X33aVfiHVtgWeqcGOIhw7+2JzxRelWJcnpaoMza/e071AOa2IDcsSyABqBVprImu9SoHYQcz8OzH3/49/beqTMerRU8WE60FturAmwW8QEnaxp4dOVRe+P0BQ/xWyNo5D+ufmqfE8TSRT77Fvpqoh7xLqBJyqIShCjbGMpAi0LCxvCyZCakUwG62X742ntI2gYrI4xtGrJartqfXvmIp3kPYJ3CDnAOL3TxHRqu/aa+AFhsCf5yKStmIi5hdwgy1xPOf/zhj7waeB3cfLrCRZ2HfYWAVURWG/7+C5RtfP/im8QSZFAjIGyX228TxELdqaFu0kgwuvgJ9EAaiWD1lIk01AKKOpCfRsG3QoyuA/bBpbdJdsPDkpUGSzBHcHk3uf9XvDzleniDWw3U+n0QfJd64EXAStAKtIwjEvZFwD6XsGftGwH2ZaK1lMJRQQT/eZLUPiTjtZhKe8p9fzrQ50XSvBYqXOri6jzRVyjg6D1yz6He01iUeSRuOoZaC8V8T/PAt7fOXrIi3H7MQaQr1BhF275ov0OY4KR7tDiIe9xXCb5LcBU83WrT2o4Uje6qBF8P2B/ZeycFWGUc/AkJ60Q81tteNrn4sgHiUYpVfPDaO9ZA9H8xXpG5RarzjelhFI89ZFDlH9FaMUiRqtJbwZwmWA6R7oruOskj2Y9QPEPPoUrEEbHGftcoKXSHVOyOni74Plx+mptu2OwDdi9j9FffFyrHaS2A6tFvLo4QPEoH3zW6pBJAHNl/dR12D4Dda7RWINyj1lBdZ2+fueSu2bbySqU12fziiuf4PCKCp2Owj2is3WgqLEg9eS8DYCofqwmPytnWozymp9YyyU5dxuU6sb5sH9++arcpOjw+OUHVk02XztyhYPtXH4P9BnzzHviqhJXRpYo0Xy9hZXSdJZz0G0rYvQLW3Xn4losINTuCe1XA02PYCwlskaxe4HmvSlEZJrpK9aJUM9+ftI1qIN90FT7rGp4pVc0rmwwEsVYDJL89oTr1VR4T9BTKbZUAbdEk7i7dnZ3fvLv29/xr94ADViogmyrjuNUvFl0sASu0aK0d3O3Y4fZffwhgpRKAi+fhhRz4dSyB3InizfayCbBhHvKglJNSLnJSkeiEptWTb1VM9mo6tZ82IKeXCISZJ8hXoWcKRFEMgmgLPf1ET5tOw926pYBh3H2Px0nNGOqhsMNTf+KJOFPdmHN6TiDuS9i9jNFff1+tiXLU0BJJ12cSViwBAP49WiuQsBnPgl847usA+zLRWi7w5BnhnIrjrieQ5QDhaSrv01TJg81Ik0kTfUFjVRRN6b/aRDXLd6SK35ooerLh5PycdQz02uPhPvTeAWr1T9oy9VtlrLlHSYovNytKb3/7LvWAkPpcwspwDlQCAZbfsWlch5WElQ57WoBFwv5pwKJXAJ69blKc5YPXg3nziNRSJmoT+mgjgK1Hny0mPSaIj9UzFIAq0lJRVXraiSJ89MjMGUo3DhP90znY7xFAYzNTVO2jAAQgd8AK9NoEVkC7v32XeiCQsBJaLl01fggfqQQu6RC9eurli7RW/TdRCV4mlkBiXkEoKoezTayr/PIqpFaiskGkt9RXVFICvpwqfeUEUfCwNr4Ts7BJ8O8yIYiLBHTPIUX7xoh5pajaJEBdWlyyNYUQ6r6QwHr+gPzbcoU6YPcl7HcJrbQVwMY9XYydOFiXsFI/JWEB0c76GoANHAfSYR2wf1LCynLb9R9/4x4BQ4q+4o3YSkEKXQUaIwUGQAXMPM1bdQDQVfN40l4mnykCSg+f2EANWCUmdonKIUrHVol0VQ8Mo/NGeMWDr/2mpJyLzXIJ+41bt7/j30QPBIAVMBU198d52IAlkNH1PICbm5AO200swU8IfmnnSSYj5OIE5Tb3qBLQhgT596WLkmy4jQEWpo6VKmp7pDnglHMhjTpXkrAKR1S0k/K6wloKAPgW0Vxr1Bj152OJLN514SpBTjFZCsjgPj0ow9cQzY797TvUAwyYwgs1bowtw8nff4DWEksArVWHDvslwO6gq3aTnSrA3u2mJM34cBCvKjG9xy0I28MYkhTE4vMcIbVOM4pNOq7qAMiTJgmumeYvvpNMVlymx6HyedyLFU/q8xP4fjrR7l/BaeNf7b//jfeAq3a7lrI7Dlj6pdX+Hg/LZ05rnTrnz+n6vZwuhRf+5LOP7C7uzyEAq6SxgOv8G++B/eZ9p3rgGwF2V4cVYN93wBa/4JpFUu0QdCsJ+y+fAlgk7NDYkKdLCLT7234PvMoe8BQZRdrrHzZIXIf1giNudIHHfcC+yi7fP9ef1wMvsARSB56pBGIJZEmLh4XW+pJK8KKn66sSlpzyoXEk7L5K8OeNy/7RX9sDrrF61uyLEhabR2lHbvcEGQcCrAK43z8tHfYPAfaT31EPCaMLlUCP/VEtpP1tvwdeaQ8gIJ/zsIKvZKpYgoCH1Qc7lO+HH7If//Af/jhg/xnAPtNh9yXsKx2n/ZMFPeAQ3XUcOA8LMEX5PEuRAbHK6YqrBO+f5kHWf0jCOmDFEuwaXUrF3t/2e+BV9kAgUwMe9lk8LLprPEVGEjbMA0X2Afsqe33/XH9GD8g9CWDllt01ugLHASqBPKvw788k7H9GJRCtRX3hr+Fhx+2fP/7tcx0W6eo5+n9G0/YP3e+B3+8B8VlBXQIFLsVpLTkOZHRp20ElCHRYGV2BSvDc0/UCS+CARSWIG13yRu1v+z3wantAZtZXVAJ0WAU1OUvAt/G6BD+W4+APAbZLjgNJ2LgOu290vdpx2j/bbg98WcLGA7hVklPFOuSmd5UAvdY9XX8MsC9K2H0edh9hf5keUOwIufyKIfEUGfFcQfBLUF3mKzrslwFL8Cr7rxFN1UXJ9V9c/ZyCtI+tb6gvqIPEQzP2t/0eeKU9oKAmovNEZemlSusCYfwpPKp1RqS+G1n/8D7POCAetqmskoqJaLWkIyieymYImu4dH/ac//Ynj+wJ3q4Q9eoTiGPd3/Z74FX2gMIIEogPVdSeUp22CfZX1cMUYqOd0lIxY3L6Cqlp8faF1+08D5Zro95wLipqiOrUCvb2wOkZHp7bj5QdoYryKFmtyanplkx5xf1tvwdeZQ+ECIBNYGEHsSCXB1+T9kSYv2emqKjyDoBNpIJWBhUUDzfwdMqKahJY842nKQHY7XBMKNdDgHmwpq0qeJqcKj19JSsxgzLu+4B9lYO1fy56AFAiUoEosc/gblvV18GuUqmkJOzwsL/w+iY118JWAlCV/i/OFu8tgN0CytoogRnWwXyjJ4Eo8j+TCoKp4b0HcPv59v/b74E/0AOB5hpgMIx+IMBSoYoVHR2Vdw85JCFVemw2eVz6MEZR7JDqyjpghXgV4CWxTwcKzJQXtjR5IvTIlv1tvwdeZQ8IlfzzjXdpBxGAm0A17/jHDkJsLxeXfB9DruoxCagEnlHDsXwa3xvsuouMA6gGvr/t98Cr7QHhbPflEhW8SSUQ3F4Uj9pFgNUDZ/wLPghFdxCvvtfup/pQZ0E90Of+Ffvvb/s98Mp6QKCSnARnkpoCa7CqB+8vYo6v4th28FJqHr+C9vD/4t8GojnGyYT6/W2/B151D8TQT/3ZYHoeGCd/8eVw5LNAkgbwFXAVvUVBYwGWD0m1VoE1ncTVAbguPcRC6N/f9nvglfaAFnWKXGslVzkA4U+0FnEwvrIrUzqAqa76/DcQGTgOJF3DFKyQh0GuMdUj0PPrPXJGqsH+tt8Dr7IHUAeCh01zUoUTIiglLKWGKu1f1X2kB7ggdfgFK76aAIfrH3OAqsnxxD9JVukW3sB9sHo37P/3anvAhWZcckJZUYfNi6zIgyX8ibGSFOYlIDoKBWx++T+QZoWlp+d6jQAAAABJRU5ErkJggg==;" vertex="1" parent="1">
          <mxGeometry x="350" y="155" width="96.63" height="100" as="geometry" />
        </mxCell>
        <mxCell id="DRB7Dr7BawN4_-SsMaci-16" style="edgeStyle=orthogonalEdgeStyle;rounded=0;orthogonalLoop=1;jettySize=auto;html=1;entryX=0;entryY=0.5;entryDx=0;entryDy=0;" edge="1" parent="1" source="DRB7Dr7BawN4_-SsMaci-5" target="DRB7Dr7BawN4_-SsMaci-3">
          <mxGeometry relative="1" as="geometry" />
        </mxCell>
        <mxCell id="DRB7Dr7BawN4_-SsMaci-18" value="&lt;b&gt;Training &lt;br&gt;the Model&lt;/b&gt;" style="edgeLabel;html=1;align=center;verticalAlign=middle;resizable=0;points=[];" vertex="1" connectable="0" parent="DRB7Dr7BawN4_-SsMaci-16">
          <mxGeometry x="-0.3341" y="1" relative="1" as="geometry">
            <mxPoint x="18" y="1" as="offset" />
          </mxGeometry>
        </mxCell>
        <mxCell id="DRB7Dr7BawN4_-SsMaci-5" value="" style="shape=image;verticalLabelPosition=bottom;labelBackgroundColor=default;verticalAlign=top;aspect=fixed;imageAspect=0;image=data:image/png,iVBORw0KGgoAAAANSUhEUgAAAHgAAACCCAYAAACNbQytAAAMbGlDQ1BJQ0MgUHJvZmlsZQAASImVVwdYU8kWnltSSWgBBKSE3gSRGkBKCC2A9G4jJIGEEmNCULGXRQXXLqJY0VURBcsKiB27sij2vlhQUdZFXWyovAkJ6LqvfO9839z758yZ/5Q7k3sPAFofeFJpPqoNQIGkUJYQHsxMS89gkp4CBKDAAJCAIY8vl7Lj4qIBlIH73+XdDWgN5aqzkuuf8/9VdAVCOR8AZAzEWQI5vwDi4wDg6/hSWSEARKXealKhVIlnQawngwFCvFKJc1R4hxJnqfDhfpukBA7ElwEg03g8WQ4AmvegnlnEz4E8mp8hdpUIxBIAtIZBHMAX8QQQK2MfVlAwQYkrILaH9lKIYTyAlfUdZ87f+LMG+Xm8nEGsyqtfyCFiuTSfN+X/LM3/loJ8xYAPWzhoIllEgjJ/WMNbeROilJgGcZckKyZWWWuIP4gFqroDgFJFiohklT1qwpdzYP3gMweoq4AXEgWxCcRhkvyYaLU+K1scxoUY7hZ0sriQmwSxIcQLhPLQRLXNJtmEBLUvtD5bxmGr9ed4sn6/Sl8PFHnJbDX/G5GQq+bHNItFSakQUyG2LhKnxECsCbGLPC8xSm0zsljEiRmwkSkSlPFbQ5wglIQHq/ixomxZWILavrRAPpAvtkkk5sao8b5CUVKEqj7YKT6vP36YC3ZZKGEnD/AI5WnRA7kIhCGhqtyx50JJcqKa54O0MDhBtRanSvPj1Pa4pTA/XKm3hNhDXpSoXounFMLNqeLHs6WFcUmqOPHiXF5knCoefCmIBhwQAphAAUcWmABygbi1q6EL/lLNhAEekIEcIATOas3AitT+GQm8JoJi8AdEQiAfXBfcPysERVD/ZVCrujqD7P7Zov4VeeApxAUgCuTD34r+VZJBbyngCdSI/+GdBwcfxpsPh3L+3+sHtN80bKiJVmsUAx6ZWgOWxFBiCDGCGEZ0wI3xANwPj4bXIDjccBbuM5DHN3vCU0Ib4RHhOqGdcHu8eI7shyhHgXbIH6auRdb3tcBtIacnHoz7Q3bIjBvgxsAZ94B+2Hgg9OwJtRx13MqqMH/g/lsG3z0NtR3FlYJShlCCKPY/rtR01PQcZFHW+vv6qGLNGqw3Z3DmR/+c76ovgPeoHy2xBdh+7Cx2AjuPHcYaABM7hjViLdgRJR7cXU/6d9eAt4T+ePIgj/gf/nhqn8pKyl1rXDtdP6vmCoWTC5UHjzNBOkUmzhEVMtnw7SBkciV8l2FMN1c3NwCU7xrV39fb+P53CGLQ8k0393cA/I/19fUd+qaLPAbAXm94/A9+09mzANDRAODcQb5CVqTS4coLAf5LaMGTZgTMgBWwh/m4AS/gB4JAKIgEsSAJpINxsMoiuM9lYBKYBmaDElAGloJVYC3YCLaAHWA32AcawGFwApwBF8FlcB3chbunA7wE3eAd6EUQhITQEQZihJgjNogT4oawkAAkFIlGEpB0JBPJQSSIApmGzEXKkOXIWmQzUo3sRQ4iJ5DzSBtyG3mIdCJvkE8ohtJQPdQUtUWHoyyUjUahSehYNAediBaj89DFaAVahe5C69ET6EX0OtqOvkR7MIBpYAaYBeaMsTAOFotlYNmYDJuBlWLlWBVWizXB53wVa8e6sI84EWfgTNwZ7uAIPBnn4xPxGfgifC2+A6/HT+FX8Yd4N/6VQCeYEJwIvgQuIY2QQ5hEKCGUE7YRDhBOw7PUQXhHJBINiHZEb3gW04m5xKnERcT1xDricWIb8TGxh0QiGZGcSP6kWBKPVEgqIa0h7SIdI10hdZA+kDXI5mQ3chg5gywhzyGXk3eSj5KvkJ+ReynaFBuKLyWWIqBMoSyhbKU0US5ROii9VB2qHdWfmkTNpc6mVlBrqaep96hvNTQ0LDV8NOI1xBqzNCo09mic03io8ZGmS3OkcWhjaAraYtp22nHabdpbOp1uSw+iZ9AL6Yvp1fST9Af0D5oMTRdNrqZAc6ZmpWa95hXNV1oULRstttY4rWKtcq39Wpe0urQp2rbaHG2e9gztSu2D2je1e3QYOiN0YnUKdBbp7NQ5r/Ncl6RrqxuqK9Cdp7tF96TuYwbGsGJwGHzGXMZWxmlGhx5Rz06Pq5erV6a3W69Vr1tfV99DP0V/sn6l/hH9dgPMwNaAa5BvsMRgn8ENg09DTIewhwiHLBxSO+TKkPeGQw2DDIWGpYZ1htcNPxkxjUKN8oyWGTUY3TfGjR2N440nGW8wPm3cNVRvqN9Q/tDSofuG3jFBTRxNEkymmmwxaTHpMTUzDTeVmq4xPWnaZWZgFmSWa7bS7KhZpznDPMBcbL7S/Jj5C6Y+k83MZ1YwTzG7LUwsIiwUFpstWi16Le0sky3nWNZZ3reiWrGssq1WWjVbdVubW4+ynmZdY33HhmLDshHZrLY5a/Pe1s421Xa+bYPtcztDO65dsV2N3T17un2g/UT7KvtrDkQHlkOew3qHy46oo6ejyLHS8ZIT6uTlJHZa79Q2jDDMZ5hkWNWwm840Z7ZzkXON80MXA5dolzkuDS6vhlsPzxi+bPjZ4V9dPV3zXbe63h2hOyJyxJwRTSPeuDm68d0q3a65093D3Ge6N7q/9nDyEHps8LjlyfAc5Tnfs9nzi5e3l8yr1qvT29o703ud902WHiuOtYh1zofgE+wz0+ewz0dfL99C332+f/o5++X57fR7PtJupHDk1pGP/S39ef6b/dsDmAGZAZsC2gMtAnmBVYGPgqyCBEHbgp6xHdi57F3sV8GuwbLgA8HvOb6c6ZzjIVhIeEhpSGuobmhy6NrQB2GWYTlhNWHd4Z7hU8OPRxAioiKWRdzkmnL53Gpud6R35PTIU1G0qMSotVGPoh2jZdFNo9BRkaNWjLoXYxMjiWmIBbHc2BWx9+Ps4ibGHYonxsfFV8Y/TRiRMC3hbCIjcXzizsR3ScFJS5LuJtsnK5KbU7RSxqRUp7xPDUldntqeNjxtetrFdON0cXpjBikjJWNbRs/o0NGrRneM8RxTMubGWLuxk8eeH2c8Ln/ckfFa43nj92cSMlMzd2Z+5sXyqng9WdysdVndfA5/Nf+lIEiwUtAp9BcuFz7L9s9env08xz9nRU6nKFBULuoSc8Rrxa9zI3I35r7Pi83bnteXn5pfV0AuyCw4KNGV5ElOTTCbMHlCm9RJWiJtn+g7cdXEblmUbJsckY+VNxbqwY/6FoW94ifFw6KAosqiD5NSJu2frDNZMrlliuOUhVOeFYcV/zIVn8qf2jzNYtrsaQ+ns6dvnoHMyJrRPNNq5ryZHbPCZ+2YTZ2dN/u3Oa5zls/5a27q3KZ5pvNmzXv8U/hPNSWaJbKSm/P95m9cgC8QL2hd6L5wzcKvpYLSC2WuZeVlnxfxF134ecTPFT/3Lc5e3LrEa8mGpcSlkqU3lgUu27FcZ3nx8scrRq2oX8lcWbryr1XjV50v9yjfuJq6WrG6vSK6onGN9Zqlaz6vFa29XhlcWbfOZN3Cde/XC9Zf2RC0oXaj6cayjZ82iTfd2hy+ub7Ktqp8C3FL0ZanW1O2nv2F9Uv1NuNtZdu+bJdsb9+RsONUtXd19U6TnUtq0BpFTeeuMbsu7w7Z3VjrXLu5zqCubA/Yo9jzYm/m3hv7ovY172ftr/3V5td1BxgHSuuR+in13Q2ihvbG9Ma2g5EHm5v8mg4ccjm0/bDF4coj+keWHKUenXe071jxsZ7j0uNdJ3JOPG4e33z3ZNrJa6fiT7Wejjp97kzYmZNn2WePnfM/d/i87/mDF1gXGi56Xaxv8Ww58JvnbwdavVrrL3lfarzsc7mpbWTb0SuBV05cDbl65hr32sXrMdfbbiTfuHVzzM32W4Jbz2/n3359p+hO791Z9wj3Su9r3y9/YPKg6neH3+vavdqPPAx52PIo8dHdx/zHL5/In3zumPeU/rT8mfmz6uduzw93hnVefjH6RcdL6cverpI/dP5Y98r+1a9/Bv3Z0p3W3fFa9rrvzaK3Rm+3/+XxV3NPXM+DdwXvet+XfjD6sOMj6+PZT6mfnvVO+kz6XPHF4UvT16iv9/oK+vqkPBmv/1MAgwPNzgbgzXYA6OkAMGDfRh2t6gX7BVH1r/0I/Ces6hf7xQuAWvj9Ht8Fv25uArBnK2y/IL8W7FXj6AAk+QDU3X1wqEWe7e6m4qLBPoXwoK/vLezZSCsA+LK0r6+3qq/vyxYYLOwdj0tUPahSiLBn2BT6JasgC/wbUfWn3+X44x0oI/AAP97/BUvpkJ188R2WAAAAimVYSWZNTQAqAAAACAAEARoABQAAAAEAAAA+ARsABQAAAAEAAABGASgAAwAAAAEAAgAAh2kABAAAAAEAAABOAAAAAAAAAJAAAAABAAAAkAAAAAEAA5KGAAcAAAASAAAAeKACAAQAAAABAAAAeKADAAQAAAABAAAAggAAAABBU0NJSQAAAFNjcmVlbnNob3TFv0OOAAAACXBIWXMAABYlAAAWJQFJUiTwAAAB1mlUWHRYTUw6Y29tLmFkb2JlLnhtcAAAAAAAPHg6eG1wbWV0YSB4bWxuczp4PSJhZG9iZTpuczptZXRhLyIgeDp4bXB0az0iWE1QIENvcmUgNi4wLjAiPgogICA8cmRmOlJERiB4bWxuczpyZGY9Imh0dHA6Ly93d3cudzMub3JnLzE5OTkvMDIvMjItcmRmLXN5bnRheC1ucyMiPgogICAgICA8cmRmOkRlc2NyaXB0aW9uIHJkZjphYm91dD0iIgogICAgICAgICAgICB4bWxuczpleGlmPSJodHRwOi8vbnMuYWRvYmUuY29tL2V4aWYvMS4wLyI+CiAgICAgICAgIDxleGlmOlBpeGVsWURpbWVuc2lvbj4xMzA8L2V4aWY6UGl4ZWxZRGltZW5zaW9uPgogICAgICAgICA8ZXhpZjpQaXhlbFhEaW1lbnNpb24+MTIwPC9leGlmOlBpeGVsWERpbWVuc2lvbj4KICAgICAgICAgPGV4aWY6VXNlckNvbW1lbnQ+U2NyZWVuc2hvdDwvZXhpZjpVc2VyQ29tbWVudD4KICAgICAgPC9yZGY6RGVzY3JpcHRpb24+CiAgIDwvcmRmOlJERj4KPC94OnhtcG1ldGE+CncRmjQAAAAcaURPVAAAAAIAAAAAAAAAQQAAACgAAABBAAAAQQAAEu3r2JEJAAASuUlEQVR4AeycCXSV5ZnHnyQkAUIWCFnZd9n3fRdRECuCaEWrVjvHdWw7QnuYqZ4zcHpaxzmt9RyXU2uZ4lJtKbQiKKusEjbZwiI7JIQQEkgCWcnCPL8Hvsw1QjqQ74vhct/j9fu49+be73v/77P+/+8NStm87ZIEhl/NQFBwsISHhUp8XJwEzXnltQDAfgWvSIMGDSSqSRPp27uHBI2eMC0AsJ8BHBYaKs2bN5N7JtwhQZ16jwwA7GcAh4eHSYK65wen3hMA2M+wtdsJAOyPqPrcUwBgn8nwx9MAwP6Iqs89BQD2mQx/PA0A7I+o+txTAGCfyfDH0wDA/oiqzz0FAPaZDH88DQDsj6j63FMAYJ/J8MfTAMD+iKrPPQUA9pkMfzwNAOyPqPrcUwBgn8nwx9ObEuDgoCAJaRAijRo2lLCwsCpcgvT5xo30OeVAG4SEVD1f/aSiokJKL5bJxYsXpaysvOrlS5cuyYWCQnu+6smb/OSmBBgZSqOG4ZIYHydNm8ZUQRCi+qOk5ARpGhNtrwP41UZxSank5uVJbm6+FBQUVb0F4I8eT9PX8queu9lP6hXAABLRuJFERjaRmKgoiYmJkmYKYFzzWGncuLFaa6jEREfpeSMJUQsF5G9bcCMJDw+1168FTk0WXKAWXKqWzTh7Llfyz1+w8/z8C5KdkyNnss/KuXN5knf+vFl6eXmFvV5f//edAow7BThAbdSIR0NpptYHqLHNmkpsbFMDNzkpQZpEREi4AsrzqAQvqoutqKyQiopKKS8vv/K4/skODg6yRYJLD1YPEBwSbEI1tEyAmZubZ9id1WNm5mk5dfqMnDmTI2dzc6WgsEgKC4ulqEiP+igqKha8A9dTX8Z3CnC7tq2lc4d20qljO2nbppW0bJFkADsWipUy8bhkJh8LJ/YWFxfr5OdISXGpFOl5fv55tagLcuFCwXXPK/E6Ma65NGmiCyg8XB9hEh0VqTLT5lJZeckWER+K1dtCKtNjRbktLKw7S6/j0OGj+jgmh44ck/STp6qs/rovxoM/qDOASYiioppI65YtJCkp3iwzKSFBkhLj7BzLjFb3yyhRK8jTGHn+QqHGyEJNfAos+SkoLNRJrtDXS+zfZWWaKOmjpLjELIe/u97RQBcMISFck7XQ0Aa2mBqqp4hUqSkhoKFet3PtMepdeD5SFwMLggWHO89WS7/svs/pkXN96HPHTqTLqcwsu96KysrrvTRX3u8pwExeqLo6JilepZutWiTLgH69pGf3rma1xFQGmWy5PgArV60xKytb0tJPSpa6QizVOTJxJaW4wOt3xTcyW1EKPNYcrflAkoaJVi2TJEETuwS17vj45pbMoTlmYZALcCxT95ydc86sOmXzV7Jz917JPnvO3HmpLkA8QaVm63U1PAWYyWinrrd/357SuWN7ad0q2SYLC2gc0VgyT2cpkKfkuK70jFOn5XTWGTmnmS0WizWWll40C6GcwVKIu5VqCZQzdTFYoISHUH3gvrFsLJ1JA1ASvnhNANu0aSmd2reVjhpusPIQjeOFGp/z8nSxnsmWw0ePy649+2WXgk3iVqQep66G6wATM6N01Sclxku32zpJ965d9NFZEhLiLFHiBnPUErHM9JOZkp5xysBlInJ05RdoooLrvRkGSSIgJycnSptWLaVN6xYWu+Nim1mCSBzHe7Fwic/79h+UfV8fUtedpgnbGY3v3rttVwEmJhG3sNZxY0fIiGGDpFuXzhqrxFxUjrqqr3bsls1bd8iXKVs1xhaYW64ri/Ry0XCPQUHBWgFES3tNHvv17SXDhwyUHt26mOVTo5dqeFm5er0+NsjKNRvMQ3l5TXy2awDjziK05Bk3ZoQMGtDHrLe5rmRc6s7d+2T/gUO6io+biyKWUmoQc3ndXwYLnLyCRIwSj1jdqmWy9NKco0vnDloptLQE7OixNNmdul/WfblZUvd97entuwYw7qiTxiC2SPTp1d1q20ytGQ9oCbFh4xZJ3fu1HDl2wtObqY8fTmUwQHOQfn16Su+e3bSKSNa4HmoL/W9/XyzLV62zcxa7F8M1gEePGCIPTLnH4i0Ni0wtDxZ9vkLWrt+kiVOe1askSbfaIOGizKIMbKV1/tT77pZ+vXtaBp6y5StZvXajrFr7pRC+vBi1BpjYQiJx3/fukn95fLp1pI5pP3fx0pWyfWeqHDl6wkoHf4iztQHAcd2UiWNGDpVJE8ZZObh52075w/98KCfSM2rz8df821oDTAkRHR0p0x+4T55/+oeSp3XsKk0i/uu3b1oz4lYH1nfmidG0Ze8YO1JenvVTq5v37Dsg//mr38rBQ0d93+raea0B5qIB+dGH75ef//RZ7ckWy+p1GxXgt6yPS+EfGJdngHZrnDZ8AHjmj5+2GjvVAP5N/QXYAe/R6ffLrBeft9pur170fE0gWJ1pJzOqGhTOe2/FIw0SWqL9NdkaPXKI3DPxDmvm7ErdZ8ZAM8SLUWsLdi7q4Qfvk5k/eUYaascHMiBDk6y/LvxUVqxaK+eUX/Ul1p2/uZWOMGSUSY8+dL8MHtjP6uWTGZmy5aud8vu5H8iJtHoagx2QJk+6U5750Q+sYxUeFm5Z80EtkfZr52bP/gPmgiDTy4zm85/a17n/qx3pdNEL6KodPbp6Xbt0kg7a0qS9SdJ14NAR2bhpm3zw8UI5qa1aL4ZrFjz+9pG6OqcqidBeoiIjDWBiDj3Z1L37Zbf2YmnTOSQ63ClUH/1mfxjkItCbUJ2NldsmmYqPi5W2rVtK/369taPXSdq1bXWZK6YhoiQMRMTaDZtk4aKl1s70Yh5cA3jU8EEybfIk6dO7uzXiD2vvFX6XBgjEAUR4odJ9u7XhgVXTmz2sna1TSjj4w4A1A9SOHdpaw6eTHrt06qAESwsrHamH4ZfPK4fMQgB82KZV2rJcps0OunteDNcAHtS/j9V2w4cOkJDgENm8bYfG4hLrw7Zr09rIB5gWSAZ7aKvSeFMt8GFd0EHBAefqOUQ63C9xG3qtPg0qBqwU3RecMBx30+gYdcWX1SdxChzgsbCJuwAPa0Z4Is4mKemC0AGXTU/68+WrZdPW7Z7pwFwDuFePrtqHHi53jhttRDgrE1LhrAII6cDrHdu300lpbKCHarsO/pTuFpl2mhb6J9JPSlqaskuaoLEIHBduHKr2rOFRjS7UcxhDJDvVe9nU3abEqGFhOO6Uo/7nM4K0dLks3eFJ1Jsm49FQg9UZbdgwTGKbNjXqEzoU1gwmiZ4z0qJylB+6MCkPESug+EjV8LRpy3YhY54wfoyMGTVUhgzqL58sXiaLliy30IWa04vhGsC4o2GD+8uUeydYa45G+oov1steTbBQPjo6K5gW5DlklEwMLTwUGlh78ZUjpD78L64dS0bkhlXDEzNpAM/CoAXqK9MB9ItlF+09Z/VvqoPvTCCtVL6XjB9AnRGsnidZ1SZYJqOJctZNlDiAvyYxguQHcOInn3GZGw63cxar8klmrSeVBj2elq5J1FHjumHN8vLzLd947OFpZgi3de6oVcZi+cenS42EQdPlxXANYJIJfk3tke9PMQkObcoFiz43ooELZyKZ0BbKnbZITrpyTDTGhQm1hwrryDyZPER4WBCWQHcMYEnYmAgWBM15lI485wxkAHDJvAe3X3np6tl6w/CG6mKjLFfw1U8DHu41QoFlcA0wZBERjcxqm+miYAFB+7EgsTq+n3NUlogVstViM5X/zcg4bSCjRnEGn/XCMz+0Rgdz8O68P8tfFnxq8h4WtBfDNYATE+K1DOgoTz3xiLRv11roR//pg/mydOWab1w3bpHhHElM2rdtYxkmWWZyouq01NUl6dHinE626Tcwz2rj8lPfft5527Ve+YZXdt585ehcV7Wn7Xpx/VgikhziKvdIXCVRPJF28v/6yXphfHf1Ni3K0J+/+JyMV668aUyMvPKbN2Ten+dbuKn+fW792zWA4UBhS372b89KTyW507WIf3feR7Jk6aoarxVJDB2eKLVijpQYVmoo8LhAztFFc47EtbmesygYlGORkREWG7G+qw3qzeaxsWb1uPRrDcJCkUpgC4uLqpoylHR4grLyMrNWMmB2ROBBKPOwYB7FV84JJzUN5mj2SzPk9tHDzNW/+trbVgPX9De1fc01gElAiGvcwOCBfTW5ypU335mnNd7ntbpG3HpyUqImZmGWnZtGWkFlxGpsRzKDPupaAPP3eAS0y77usvpF0X27oCrO8xrnHXeZlZVjNF7pxVILBzUtkOqfV/3fLOTYZjEy56WZmqsMMDXL62+9a3G4+nvd/LdrAOPaUCD+evYsGTtqmJU3ryjh8P5HC2p1vXwupQbxWHMYtVY915qSQfykvrzsVq/uePm7BpoAkXDVpMbk9arHlXBANkxWfEljOQL72pRsEP9ttSZ+8YWnpJtq1NK1avjjex/LkmVf1Gp+/tkfuwYwX0SMmTXjOUsiYqKj5bU33jEXRDZcFwKzf3az3+XrhBkUL88/9bjlKAjl3/94gVUaXl6XqwATL59+8hFNIkYKxfw7cz+Uj/+2yFNJipeT4+Znt9AwgwDvyce+bxUEEiYy6DXrU9z8mm99lqcAv//RQlnwyRLTPlPj3soDomGktnO/N3G8NXrWa5+ALtbW7bs8nRZXAaZ+fURpQwjtntq5WrR4uSz6bLnywgc127z+fUM3eufEXTpPKBtpsHBdZL3UqexjImOu69GvTw+5S7t85CfU9p9p7F2jejUaQV4OVwHmw3DPAIwuep0yJUtXrJUvN221rpOXN+L72WSs6LMH9u+tzZfuVlPTeNixa4/sVaLDq8a+7zVUP7de/V23y/ChA607N3/hEuvXe0X0O9/vKsCUK2NUXXmHgjvxztsF1SCy0NXrN1rZ5Hyp18eW2i2jVBs0oK81X6itkRLRnPhs2WoFOtU2hdVl4jdW+88P3X+vdNc4fEp3Ncz7cL5RqOzs8HK4CjDlDCuVTs3UyXfLztS98oXKQnFHkAd1NfqqLvuJRx/UTW63WVvU+V6yeepyiJBtGvtKlIuu3m1y3uv2cZJa748ef0hJiRZy4OAReeP3f7I9S17JZZ3rdxVg+s1sW8FFky3SvmOLyod//YftP3K+1OsjbM3s/5hhFB6LzhnQj9vVetesS5FPliwzAqOupERT750oz2mJBK24bftu+eWrr6tsNscIFuf6vDi6CjAaaTpNAPzj5560nXWbtuyQuVrQp+nG6LoadIpm/uRpo/RoZzqDRgae5LBqtVFTsNOCRcimbUgDmhpejekPTJYZqqQk4SODfmnOfxsHXJvmyf/nWl0FmOyVjg0x+N9n/KtZCK6QluVxnci6GuxmZJcF20UgMGhjXlKioFL5Y7pe8Mp0pnbu3iNbVHiO8I1tNoCM22YnP4vBjcH38f2PK004a8bz1k1jA9ov5rz6DarTje+62me4CjDNQtqCWPAvX/6ZtRjZXDX7V68JAry6GvSnoS/HjxslQzTZgoosLirRzeX5RlrATyMnAlD6y/SoER2wC4NMG6uGRHAjPsMdN9Me9EPTJpsokYUEwL9764/2/V7PiasAOxdLrTfn5ZlGBlAG/GL2q6paOGhW47zHyyP9aWIvGmSkMfzQCwwQbFCoZvrEQUdGhBAdUp/6mIwWLTdA89MLZ1QndU4ZJbjoG3Xf7EtiMU2bMkkeU+04ypUVCvDbf3jPMnsv54HP9gTgEUMHmTsiHp9SOShbM5i4um4w4BoJG+qX9VaVo71CECMqYB/vyGGDZdTwwdJXmxDEapP76Jsg7VGApqjMZvuOVNNToSK5kUH7Fr57qipdpmsTiE15WPDrb8+9eS14sNafLzz7hHRo18bi8O/efNcmCouoD4MuFys7WfVUWFdrducr09NG3XpH1S3j0rFaErLTWdn2OKYSnCPqjdLSMsytwxE7C6ame0JoOFj3S9+tfQH0WHTUSO42aHWBRos9Sdlnz5oEqabPudHXPLFg3zoUFcTc9/4iKaocPFoP9wdT2vFDKvzOBjqpvr16mF6MOE7CyO9y8JsagIu+e//Xh82Vo/5ED0Ycr2kjOyzSnZoLsDF+hHaxSOD4PIQEKE9J8ghf/IQF2i23hycAM1FTdDvpsCEDbLc7jNKGlC3mpt2+gdp+npPlovwgXgIsujEE/EMG9TN1ChqtSs26cdOI/4jP/DbWdk3IcOX8ZJIjEqh+PQkq1Jt01zgZO3qYNYHyzxeYVixCu2touTIyM038jkVTH7s9PAG4o4q+J44fq431oSa3+fSzldquTJGtWo7U94E6EmkNwLTXEMOvBCGNRXOWqJpmtqIQqy3z1oSJGhpNFtkxP7ZCZwpLpGvG+1gs1MBYL7/Cg9gdlSjJHSEBmdIJdf+Au1Ff23/gsKubwX0B/l8AAAD//1OWUNkAAA1+SURBVO1dCXCURRb+JiEn5E7IRUICBMhBuG8CQcMaREDBcKycssiCuNSKtZTWurpLqWUhW7qKoOuNCoKABiUgmHAfkfsMVwLBHARCLkjIyb6vw7hQtWsNNfP/f4jTVGpyzPTf3V+/16/f+97DFNU14RZs0CLahmHo4P546MEhCA8LRfq2XdicvgPbdu61Qe/6duHm5oq2YW0Q06kD4uOi0TU+FiHBgWjRogWcnZzQ0NCAK1eLcfpsNo6dOIUz57Lxc14BrpWUobqmBiFBgZgxZTx69YiHr48Pln6wHKdOn0XrAD8M6t8HPbp1gY+PF/ILLuPQkeNYve47HDuehdq6WtyyARouLs4IDAjAuDGPwGQrgDn42OhOmPD4KHSTBdn300Gk/ZCBtM1b9UXHBk9zdHQEQfZo1RJenh4IDQ5Cm9BgtA0X0KM7IiI8DE5OLXDz5k2UV1zHjRuVAm4pLhddxbnsCwqo5KREdGgXCVdXZ7z2xhLs2pMJmExoFxGO7l3jMHJ4koDsjdKyMqxe+z127N6Hs+dzUFdXb/UMNAHYx9sL7SPbYuoTKRjQt6fs7Cys37AZa1LTrB6wkR2YBJRWLd3h5+ujQI7q0E6B5O/nA38/X/Xl5eUBk/wj2BdyL+G6AN4pqj385TNsyz5cjp17fpK/V8DVRbRDeChGj3gIcTGd4Cf9/Lh1J7ak78TmjO2orq6xerqaA5wwoA+yL1zE2tSN+HzlWqsHbHQHgrE0ExzkG5ODA9xcXRAsarh7fAz69emJmM5RCApqDRdnZzXUW6JnHeR93Bw1orK3i3QeP3kaBYVFKC0tU2o4qn0E+osg9JfPn8++iC0ZO/D+J1+isrLK6ulqAjA79fTwwLw5M/DoyIdw7VoJVn6dinf//ZnVA25qHVCFu7u7ifT6IKh1gFK1gQH+CGsTouwPvoYQcBcXdV4XXC5CiQBL8KqrqxXAnh6tECifZR+Z+w+L9O4QgUgTtV9t9XQ1Adg8qufnz8XkiWNQW1unpHfRW8vMf2rWrzyiIsXQjO8Sgx5yxvbt3V2p9psCKFV2vZyt3BjOzk7qta6uTkl3RcUNbNu1F7v3HcBPB47IutVavU6aAvzcvD9i8oQxcJKJLF+xRgyMd6we8P3QAcGjiqYR1btXN7UGrqLKL/2cJ+r5DMrKK0TDtVKWdEt3d/UzJTs3Nw9Hjp/Cpbx8JeFU79Y2TQGe/YfJGD92lDI+Ujf8gH8t/VhZirZQPdZOXI/Pd4ntjIQBfdUVpUqs7IOHjikDq6DwcqNlLiBzI1RV3URpebkcZWJ9X7mqLHFbjU9TgJ8Y/xjGjExG+3YRYvpn4tMvVuN8zkV1BtlqAk25n4SBfZGUOAjDhiaIVBaIL2A7fhSfQM6FXN2GrSnAjwm4ox5OQpe4GOyRc+W3DDDvxKlyVdwrPgE6QvRqmgKcnDQEycOGqivAUTlbVq1Zj6Pi7aET4LfQkoclYrjMv1+fHjhy7CRWrRUvlc7z1xTgwVRRop6Shg5Su5buSl7ks3VUUUZupEk8okYNRztx+jQeUV/jvPgESsTTpVfTFGC6KQny2NEPo1juwlt37FEuS7rhfgtt+qRxePzREWjTJljNe8l7n6h1qBSjSq+mKcBR7SOVd2bqpBSxFKuwN/Mg1nybppztek3QyOfceYtgEGHRm8tUAKK+3nofs6Xz0hRgOuJ5yZ85baJEXxxxQlx0H3z2lYqaWDrA+/l9C56dgykTx6rIE/0Ar4ofgHdbW9xvLV0XTQGmA56enGefeQre3p7IlivSW0s/kujSIUvHd1++j5uZgYTn5s1CioTpysrKsWL1t3h72ce6z0dTgNk5oyR/f2E+QkODVMzztcVLsFPuxM25uUt40VeiR3Ofmia3iMTbwZY0cdeu033amgLMKAqjK6++vAA8jxknfXHhIiEA7NZ9ono+kHFjBhlmTJ2AIYP64fSZ8/jmu034Sq6JejdNAeZkOnaIxF8XzEN8bDTqG+rxt4VvSDhsJ2rEka7nWaTnwrb2J+GhIyakjFZH1IHDx/D9xh+xPm2LnsNQz9IcYDIfZs+YhN49uylqyuuL31XxzhJhLzQ0WO9M133FLHhguEjvwH69MCI5Se7A4eruTx/A9l37LPi0bd+iOcBUVU9OHi/XpR4IDAzA2xJwoATnFRSgvr7BtrNpIr0pTlqCcNLEkxcaEoTU7zcjQ3wA+w8e0X2EmgNMDtOElFGKYBYZEYZPPl+tJDhLziXGQZtj6yhUnhHJD8r52xdeXp5YuTpVokiZOHHqjO7T1RxgEvDoj35gyEB1Hn2zfqNiLPCqxHO4Obbu4sGbLlqL4UJqqQ8/WyFBhkO6RpHM66o5wCSokUI77IHBQsDrJczKDCXBW3fsVSwG80Ca02vvnl3x9MypiBIDkyyNf77zPg4ePo6rxdd0n6bmAJO+QmB5HyTQ6dt3qzN405atNmEN6r5iFjyQ0aM/z52JSPHkFUkA/6VXFyuinS1YkhY8/q63aA4w+cTRnaIw+pHfgfFhMgppZC1fuUYxGe4aTTP5IVE2Mp07JNGR4PDCy6/jZNZZRbrTe4qaA+zm6qo4xIyqTPn9WHUOkTX43kdf2IQWqveC/drzSI11kmyHYRIe/ceLz8HRwVHFfxe+/pZkPBgTQdMcYE7YT1IzJjw+GrPkPky6SnMF2MHBBB8vLxX/XjD/aYn7lgk78jCWfvg5Lub+/Gt7Q7O/aQ4w3ZV8CNmV8/80SzH6qaJfWfQ2rl+/odnEjOjY0dFBUluCFcDPzJ6O4uISZArA7xHgS3lGDEmtvc1zk/7XTCaNH4O/PDtbqbCtYmg9L+cSoyzNyV3JhLTOkqZCFsu0ySnIzy9UHGdy0Ui6M6JpLsHmSdHAmjNzCgLET5u5/xBeemUxrgrLg6T45tKYbcj4NwHmfA8fPSG3hl3YsClDWdNGzFM3gIfLNWmaUFjI+KcX680lHyDn4qVmRaHlYjKTkBy0oYMHKN/zpi3bFB+LkTQjmm4AJyb0EwL4SPHuRKsLPxmWBw4dVQS8esmxvd9VNYP8HkJkTxk9AkOHDFBpK4wgfScRpMPCqCyXbAYjmm4A022XKA540kiZJplz4ZKornTZ5XvBtA0jnAC2XHCmqfToHoeHhz2gSA70QfMquGpNKoquXjPMa6cbwEESSWKeLDPNu3WJRUvJs90nZzGz6UijJVeaCdDc6VWSVacnMe1egVaJY5L0TRDpqWPydrRUAOgp2frUUG5uLoom/OkXXwubMl187nWGODk4L90AZj6tuyRajRszQgIPgySzPVblzFbIVSk7JxfHTmaJUXJcGJfnUHj5ikqdbKpqm4lkvO92iessecGx6Ca8s7DQECnR4KWyBWljrJP0zz3CIj1z9jyMjHrrBjB3UwvJumOeUlxMR9nt8YgWOg/rXTBsyJxZ1rqgc6BYDBImYtE5b/7infmG5NQyM495tXo0X5FMb5FQcqxYR8Ocxc/f+8rveSMIkGgZX1mro1SufQeFvXHk6EnJ4MiSjVqkxqvHWP/fM3QF2DwILhRVGlkeJOW1loRp+qxZC4OuzVoBnET5/IJC5Mldkl/MBmBZhCsCOsGuqalVi2qWcn6GGfT32pQjRjL8+Mq6GdyEVME0moICW0sBExmbJxO0/dEmJBghEsD3E4CZ9F0jJRZIYq+srES+ZAyas/OphThW89judUy2fL8hANMhQDAb6134ytncToqURIh0t1WvZCQ6yoIzAZoxYwLHgiTkdNXV1qPiugAthgsLn5jv0ZT0/MLCe16bRl95iNpYJnE1sjIBc3c9BVSmdtLVSg8VX3nPZa5zg8R4qU1yLubirFTXOZF1RlyReQrksjLaEDebjA1hCMB3osABsPQBSxhQSgJFakgS8Pf1Fal2F2OspdoI3BCuIt3eUuSENTIoIdwAdbezBCrk55LSe79rOjs5q6IqBI7FUxqf4yxgOot0VinpZD4zn8fjgd63En7JkVJUdEXV2mgsm1QqG6/puV4NB/hOsM3fe4t1GiFkPapIWt8EnsQBnoOsWUXrlY1qVanW2x9kfRQHkTYadJY0kv4abgkvTKygRkPolmJgUCvwnC+6UiyaQqz70nLhkBUqKWXlnMsCLH/XYIMMfEvGac17miTAVIc841ylcImrSDgLmLCeBb/c3dyUuuSkSU+lEWRuVKXUBK3kPLeklQlIZRUVv5znNJRoGJWLJFINV9dUq/s5NQWvbiycQqmulu9tVajMknFa854mCbClE6L1Smk3N0ozpZ13bEsaz8sKAiwAKmkWgCmdLJTSXNp9DTAD7HepY9HMJlNjTSpLAKKV22jpNupoqun//s6SHpr+e+5rgJv+8ho/QjvAxmOg6QjsAGu6vMZ3bgfYeAw0HYEdYE2X1/jO7QAbj4GmI7ADrOnyGt+5HWDjMdB0BHaANV1e4zu3A2w8BpqOwA6wpstrfOd2gI3HQNMR2AHWdHmN79wOsPEYaDoCO8CaLq/xndsBNh4DTUdwF8BPzp7fSE3S9JH2zvVcAf63e8y+YN1u05er1tkB1nP1dXgWOd4k7rPqvEkyC+wA67Doej+CHHMXSbcxCR/JDrDeq6/j8+wA67jYRjzqP08g0ln/FEFxAAAAAElFTkSuQmCC;" vertex="1" parent="1">
          <mxGeometry x="100" y="160" width="83.08" height="90" as="geometry" />
        </mxCell>
        <mxCell id="DRB7Dr7BawN4_-SsMaci-12" style="edgeStyle=orthogonalEdgeStyle;rounded=0;orthogonalLoop=1;jettySize=auto;html=1;" edge="1" parent="1" source="DRB7Dr7BawN4_-SsMaci-6" target="DRB7Dr7BawN4_-SsMaci-5">
          <mxGeometry relative="1" as="geometry" />
        </mxCell>
        <mxCell id="DRB7Dr7BawN4_-SsMaci-13" value="&lt;b&gt;Upload to Cloud&lt;/b&gt;" style="edgeLabel;html=1;align=center;verticalAlign=middle;resizable=0;points=[];" vertex="1" connectable="0" parent="DRB7Dr7BawN4_-SsMaci-12">
          <mxGeometry x="-0.1778" y="-2" relative="1" as="geometry">
            <mxPoint as="offset" />
          </mxGeometry>
        </mxCell>
        <mxCell id="DRB7Dr7BawN4_-SsMaci-6" value="" style="shape=image;verticalLabelPosition=bottom;labelBackgroundColor=default;verticalAlign=top;aspect=fixed;imageAspect=0;image=data:image/png,iVBORw0KGgoAAAANSUhEUgAAAKQAAAC0CAYAAAAaY4faAAAMbGlDQ1BJQ0MgUHJvZmlsZQAASImVVwdYU8kWnltSSWgBBKSE3gSRGkBKCC2A9G4jJIGEEmNCULGXRQXXLqJY0VURBcsKiB27sij2vlhQUdZFXWyovAkJ6LqvfO9839z758yZ/5Q7k3sPAFofeFJpPqoNQIGkUJYQHsxMS89gkp4CBKDAAJCAIY8vl7Lj4qIBlIH73+XdDWgN5aqzkuuf8/9VdAVCOR8AZAzEWQI5vwDi4wDg6/hSWSEARKXealKhVIlnQawngwFCvFKJc1R4hxJnqfDhfpukBA7ElwEg03g8WQ4AmvegnlnEz4E8mp8hdpUIxBIAtIZBHMAX8QQQK2MfVlAwQYkrILaH9lKIYTyAlfUdZ87f+LMG+Xm8nEGsyqtfyCFiuTSfN+X/LM3/loJ8xYAPWzhoIllEgjJ/WMNbeROilJgGcZckKyZWWWuIP4gFqroDgFJFiohklT1qwpdzYP3gMweoq4AXEgWxCcRhkvyYaLU+K1scxoUY7hZ0sriQmwSxIcQLhPLQRLXNJtmEBLUvtD5bxmGr9ed4sn6/Sl8PFHnJbDX/G5GQq+bHNItFSakQUyG2LhKnxECsCbGLPC8xSm0zsljEiRmwkSkSlPFbQ5wglIQHq/ixomxZWILavrRAPpAvtkkk5sao8b5CUVKEqj7YKT6vP36YC3ZZKGEnD/AI5WnRA7kIhCGhqtyx50JJcqKa54O0MDhBtRanSvPj1Pa4pTA/XKm3hNhDXpSoXounFMLNqeLHs6WFcUmqOPHiXF5knCoefCmIBhwQAphAAUcWmABygbi1q6EL/lLNhAEekIEcIATOas3AitT+GQm8JoJi8AdEQiAfXBfcPysERVD/ZVCrujqD7P7Zov4VeeApxAUgCuTD34r+VZJBbyngCdSI/+GdBwcfxpsPh3L+3+sHtN80bKiJVmsUAx6ZWgOWxFBiCDGCGEZ0wI3xANwPj4bXIDjccBbuM5DHN3vCU0Ib4RHhOqGdcHu8eI7shyhHgXbIH6auRdb3tcBtIacnHoz7Q3bIjBvgxsAZ94B+2Hgg9OwJtRx13MqqMH/g/lsG3z0NtR3FlYJShlCCKPY/rtR01PQcZFHW+vv6qGLNGqw3Z3DmR/+c76ovgPeoHy2xBdh+7Cx2AjuPHcYaABM7hjViLdgRJR7cXU/6d9eAt4T+ePIgj/gf/nhqn8pKyl1rXDtdP6vmCoWTC5UHjzNBOkUmzhEVMtnw7SBkciV8l2FMN1c3NwCU7xrV39fb+P53CGLQ8k0393cA/I/19fUd+qaLPAbAXm94/A9+09mzANDRAODcQb5CVqTS4coLAf5LaMGTZgTMgBWwh/m4AS/gB4JAKIgEsSAJpINxsMoiuM9lYBKYBmaDElAGloJVYC3YCLaAHWA32AcawGFwApwBF8FlcB3chbunA7wE3eAd6EUQhITQEQZihJgjNogT4oawkAAkFIlGEpB0JBPJQSSIApmGzEXKkOXIWmQzUo3sRQ4iJ5DzSBtyG3mIdCJvkE8ohtJQPdQUtUWHoyyUjUahSehYNAediBaj89DFaAVahe5C69ET6EX0OtqOvkR7MIBpYAaYBeaMsTAOFotlYNmYDJuBlWLlWBVWizXB53wVa8e6sI84EWfgTNwZ7uAIPBnn4xPxGfgifC2+A6/HT+FX8Yd4N/6VQCeYEJwIvgQuIY2QQ5hEKCGUE7YRDhBOw7PUQXhHJBINiHZEb3gW04m5xKnERcT1xDricWIb8TGxh0QiGZGcSP6kWBKPVEgqIa0h7SIdI10hdZA+kDXI5mQ3chg5gywhzyGXk3eSj5KvkJ+ReynaFBuKLyWWIqBMoSyhbKU0US5ROii9VB2qHdWfmkTNpc6mVlBrqaep96hvNTQ0LDV8NOI1xBqzNCo09mic03io8ZGmS3OkcWhjaAraYtp22nHabdpbOp1uSw+iZ9AL6Yvp1fST9Af0D5oMTRdNrqZAc6ZmpWa95hXNV1oULRstttY4rWKtcq39Wpe0urQp2rbaHG2e9gztSu2D2je1e3QYOiN0YnUKdBbp7NQ5r/Ncl6RrqxuqK9Cdp7tF96TuYwbGsGJwGHzGXMZWxmlGhx5Rz06Pq5erV6a3W69Vr1tfV99DP0V/sn6l/hH9dgPMwNaAa5BvsMRgn8ENg09DTIewhwiHLBxSO+TKkPeGQw2DDIWGpYZ1htcNPxkxjUKN8oyWGTUY3TfGjR2N440nGW8wPm3cNVRvqN9Q/tDSofuG3jFBTRxNEkymmmwxaTHpMTUzDTeVmq4xPWnaZWZgFmSWa7bS7KhZpznDPMBcbL7S/Jj5C6Y+k83MZ1YwTzG7LUwsIiwUFpstWi16Le0sky3nWNZZ3reiWrGssq1WWjVbdVubW4+ynmZdY33HhmLDshHZrLY5a/Pe1s421Xa+bYPtcztDO65dsV2N3T17un2g/UT7KvtrDkQHlkOew3qHy46oo6ejyLHS8ZIT6uTlJHZa79Q2jDDMZ5hkWNWwm840Z7ZzkXON80MXA5dolzkuDS6vhlsPzxi+bPjZ4V9dPV3zXbe63h2hOyJyxJwRTSPeuDm68d0q3a65093D3Ge6N7q/9nDyEHps8LjlyfAc5Tnfs9nzi5e3l8yr1qvT29o703ud902WHiuOtYh1zofgE+wz0+ewz0dfL99C332+f/o5++X57fR7PtJupHDk1pGP/S39ef6b/dsDmAGZAZsC2gMtAnmBVYGPgqyCBEHbgp6xHdi57F3sV8GuwbLgA8HvOb6c6ZzjIVhIeEhpSGuobmhy6NrQB2GWYTlhNWHd4Z7hU8OPRxAioiKWRdzkmnL53Gpud6R35PTIU1G0qMSotVGPoh2jZdFNo9BRkaNWjLoXYxMjiWmIBbHc2BWx9+Ps4ibGHYonxsfFV8Y/TRiRMC3hbCIjcXzizsR3ScFJS5LuJtsnK5KbU7RSxqRUp7xPDUldntqeNjxtetrFdON0cXpjBikjJWNbRs/o0NGrRneM8RxTMubGWLuxk8eeH2c8Ln/ckfFa43nj92cSMlMzd2Z+5sXyqng9WdysdVndfA5/Nf+lIEiwUtAp9BcuFz7L9s9env08xz9nRU6nKFBULuoSc8Rrxa9zI3I35r7Pi83bnteXn5pfV0AuyCw4KNGV5ElOTTCbMHlCm9RJWiJtn+g7cdXEblmUbJsckY+VNxbqwY/6FoW94ifFw6KAosqiD5NSJu2frDNZMrlliuOUhVOeFYcV/zIVn8qf2jzNYtrsaQ+ns6dvnoHMyJrRPNNq5ryZHbPCZ+2YTZ2dN/u3Oa5zls/5a27q3KZ5pvNmzXv8U/hPNSWaJbKSm/P95m9cgC8QL2hd6L5wzcKvpYLSC2WuZeVlnxfxF134ecTPFT/3Lc5e3LrEa8mGpcSlkqU3lgUu27FcZ3nx8scrRq2oX8lcWbryr1XjV50v9yjfuJq6WrG6vSK6onGN9Zqlaz6vFa29XhlcWbfOZN3Cde/XC9Zf2RC0oXaj6cayjZ82iTfd2hy+ub7Ktqp8C3FL0ZanW1O2nv2F9Uv1NuNtZdu+bJdsb9+RsONUtXd19U6TnUtq0BpFTeeuMbsu7w7Z3VjrXLu5zqCubA/Yo9jzYm/m3hv7ovY172ftr/3V5td1BxgHSuuR+in13Q2ihvbG9Ma2g5EHm5v8mg4ccjm0/bDF4coj+keWHKUenXe071jxsZ7j0uNdJ3JOPG4e33z3ZNrJa6fiT7Wejjp97kzYmZNn2WePnfM/d/i87/mDF1gXGi56Xaxv8Ww58JvnbwdavVrrL3lfarzsc7mpbWTb0SuBV05cDbl65hr32sXrMdfbbiTfuHVzzM32W4Jbz2/n3359p+hO791Z9wj3Su9r3y9/YPKg6neH3+vavdqPPAx52PIo8dHdx/zHL5/In3zumPeU/rT8mfmz6uduzw93hnVefjH6RcdL6cverpI/dP5Y98r+1a9/Bv3Z0p3W3fFa9rrvzaK3Rm+3/+XxV3NPXM+DdwXvet+XfjD6sOMj6+PZT6mfnvVO+kz6XPHF4UvT16iv9/oK+vqkPBmv/1MAgwPNzgbgzXYA6OkAMGDfRh2t6gX7BVH1r/0I/Ces6hf7xQuAWvj9Ht8Fv25uArBnK2y/IL8W7FXj6AAk+QDU3X1wqEWe7e6m4qLBPoXwoK/vLezZSCsA+LK0r6+3qq/vyxYYLOwdj0tUPahSiLBn2BT6JasgC/wbUfWn3+X44x0oI/AAP97/BUvpkJ188R2WAAAAimVYSWZNTQAqAAAACAAEARoABQAAAAEAAAA+ARsABQAAAAEAAABGASgAAwAAAAEAAgAAh2kABAAAAAEAAABOAAAAAAAAAJAAAAABAAAAkAAAAAEAA5KGAAcAAAASAAAAeKACAAQAAAABAAAApKADAAQAAAABAAAAtAAAAABBU0NJSQAAAFNjcmVlbnNob3TQHjI6AAAACXBIWXMAABYlAAAWJQFJUiTwAAAB1mlUWHRYTUw6Y29tLmFkb2JlLnhtcAAAAAAAPHg6eG1wbWV0YSB4bWxuczp4PSJhZG9iZTpuczptZXRhLyIgeDp4bXB0az0iWE1QIENvcmUgNi4wLjAiPgogICA8cmRmOlJERiB4bWxuczpyZGY9Imh0dHA6Ly93d3cudzMub3JnLzE5OTkvMDIvMjItcmRmLXN5bnRheC1ucyMiPgogICAgICA8cmRmOkRlc2NyaXB0aW9uIHJkZjphYm91dD0iIgogICAgICAgICAgICB4bWxuczpleGlmPSJodHRwOi8vbnMuYWRvYmUuY29tL2V4aWYvMS4wLyI+CiAgICAgICAgIDxleGlmOlBpeGVsWURpbWVuc2lvbj4xODA8L2V4aWY6UGl4ZWxZRGltZW5zaW9uPgogICAgICAgICA8ZXhpZjpQaXhlbFhEaW1lbnNpb24+MTY0PC9leGlmOlBpeGVsWERpbWVuc2lvbj4KICAgICAgICAgPGV4aWY6VXNlckNvbW1lbnQ+U2NyZWVuc2hvdDwvZXhpZjpVc2VyQ29tbWVudD4KICAgICAgPC9yZGY6RGVzY3JpcHRpb24+CiAgIDwvcmRmOlJERj4KPC94OnhtcG1ldGE+CjeqU6YAAAAcaURPVAAAAAIAAAAAAAAAWgAAACgAAABaAAAAWgAAJV0rwHXpAAAlKUlEQVR4AeydaZMd5XXHT3ffbfZFOwgJLayG2FTZgJ3YAedNHAdXHKdiqEpVXuVNXuRT5MvkC9ixq1JJxXbsuMrERmAhgUEgkECzb/fOXbo7v/95+l5JII1mZGY0V+pnpu/S6+3T/+fsz3minGafaVmW+ZooikzLZ5sO0T5pmvq7f48rltaqn921/L6PKaAnW2ep2ucgcMdffStc3PGgbewQbQXIOI5veQqBUUuv1/NFn9sWWzO5m1u75SXKlXtAAT3d2VrFxiq3fs5b/YRdA2QKItVTnA+qo+Q9y9OWr4iSGu9167F6k20bvdzWOmZr3dzWu5k1e13bTLvWyXrWzWOW2l30ta1uu9y2XQr484tyk7TabouRfgeruR1qVO3IWM1mKpGN62A/RW5RnFkeIw1Zhay0KOMqWvQ58TdevtgWtbkDnVuLZdxQugkm5xDV/KDalFk8ZRv8gAW2XWnldmklt483crsGQpsAsZ11rCcQZwnHNTiJk0ZnK9seUiASbKI0ALIA1K2gGZ4Or66O5TZqLTs2VrWvPTxlT4xGdlIqmmtsHF3pWF7JrMszjfmr9GLLuyCFTXE9crDu5Ba3w1WjHoCkExj442b4JYDMMjgkP6Id1+1KO7aPNyO73DSAmNq1Zg8umdlmDx1SoptjdJzz2ajix+3kR5b7fkEUyAXGdEcnE/YqccsmG4k9cfCwPT2Z2JfGIpsFc7VEoOV8lZ6FswZQRoASJMIhYV7sspO2LUBmyGw/L6x+wO65YBOOOAc2L65s2oWVpn2w2raFVs9aXfAqbogq7L8IFp6nAdFRadPs5Pl8sfuKKcAgvPkDDWgR6PrtujQX92EtXChO2lZDMzs4OmaPT0/ZV2ZrdmIksiNwQCQ4YhugR5yb3bWIU0p8F6jpn3pb79sDZAfF0Nk3yOcHZlxsiStfRSR/uJbZxaWWvb+8aovtnnWkTAp1UY1Dapal/DAOz9EpLepZRG9yVrutn1fu9MVSQOhxTY93nZnPxXv/OjypgKriXd8FSIu6FgPmg6MNQDlhXzowzntk09XIRoFFDCqEjPDnZ2ZdwqP2C/RPf8f37QFyEzQlnDyOTIxuhZfzgPH9dXTGldSurK7b/HrTsGHoKRWLK3X2FSBx8zgY+ZmIb8P0iSqwT8n+su05BSRQg6XBW58tOkDDTxk8lYJNBmkoQErd6lrabhoGN6Cs25OHp+3pA6N2AvF9sBYZb5xd8GU/YKmWGBjYHUD2wFliSGGsaLMPm6n99NMexkvb1pub1oItdsGsLO64Wvclirh5Wtbj5+H6yfBHRrD1iJsr2z2iAOCAsxTMcRucqwBmXKk490vb64j8TcR0z47OjNmZ2XHnlKfGIzsKp5S/Msa+SHMMHX3GvvBOsIPbHXSULY6Jsg6qsMDIPVxZ7dnbyxv2X3MdW1gHiIDRxTI3GyWAEVBGiQwXeosMIFnXvMsi74uJLa5VbtpNCgiQ6P6D5ixxwBcHq/1BDfCqDyiQLt6RbrbJM21ZvZbbDIbOmZlJe2Ia8T0Z2QEUSt6wF2TiiPlgR/Q5MWu207YFSHTAfJULLdBjzl9t2rm5RXtzFSu6jdYgnVG9DvHcX7QmWNU4A/BTydqK3bHKDwTZ1xVn7Vm2vaOA0CJQ6oq8FA9iYKiydgAIAcnBxP5d8b7EqiN644HnTZ77usVwwgNjdTs7O2XPHZ60RzF0jsMpsXG8yaGS71A9G1w/nOKWr9Emv/gjwPcuOuO5j+bs3YUVW8lHYc26IjeGeA76CTchNsi6PAsuBkluLXEiDQOx34PVlu0eUaBvxITLD4BYANPXFhytDwwUMcs2EdkptjO2agxnjKuy1nH7Ib4TxPcsTvMzMxP2tJap2A7wvBvYG3ruuwLIuSzP317J7HfzHTv/yTW7hsjOK9NwPkVpAuD8Brw3AFCsMd2sXAyhk4kQAiu2WCZxXrZ7QwE5S5w9+nNzRe92P0SPq9g1bSPVetI/BUac3w2eYSxO2bGsu45Omdr0SNWeODBrXz40ao/AKQ9j6IwAyKR/vdtd5zPr+x3hM6tv+hq9tZ7lv51P7fVPl+3q2rq1cHybTdADpC+K+3F/WjBaggVd3AlvrkYqusMSSbQTyw7UuOka5Zc9oIAs5RwQif6BgeiZiaMIfUUTIxHH7L+zOsKNl+NL7m0ii3nQCYarQEmujKXdVaRek8fetkOT43bmwLQ9PjtiZ1EmT6BTjuwGIP/zai//zfyGvTm3Zk3pICnunI5CgAk/SqwZTshCIJMfr3fdhG4SMS0w4iZK3e3DGt1F2e4JBQTGPN/kWaFiSc3Su4tWWJma41DiuL+IsaBo1WUfJAAS4UdYME+rlpC1FcMFLcZHWeiUtVps07iETkzPIL7r9g3E9+wOAyHb4pD/dmElf32+aX9YxuQfn6KHjFsHfVJRKMeXdzDpjHBOByXr5beUlcU+WYofsst2btTvWjdftntAAbhjtAlT0LNBJ/R3mEqRseXww0LWc5KbLsMOEKesjcMVcUD22lXrbSSGlEY35By4Amu4fJIqQM/EKaVXdmx8dMSexCX0wxPT9sjozhC5LUD+67mN/NJq11YJC6pH8RKME2V1eOcKPYlfA5Glp/DGi3phYP+sVa/TbuqGZbs3FPBngD8YaeYYRBRX4GpVlL2jEyN2tJbYlcU5ghwtWyc3gb0CY3GdjAetcLC8JHJI6yGDBTnNo0Q+5mDEyn6IWKbqsT17sG6PTY3bySkyhRCMU4p9++NH9zQlZXAugF3hL8Jowr0YOLaM+i1a9C+/aeWLLeU2itu1+FGKtkj0Fqx+i4PLTfuHApJW0ukjDBJXrfAvVhqRNSYie/7IhD2P3ve7K3P29sKqfbSekDLI8wUwUtFM+V4wGEm+4CgPTEjeFGFT3FJRGTGg3mYHl1DXJsdyO4VL6E8OjdgTGDqnFPt2fa5NhlrTUgykXJ2CnIe4i56q/EUuFUkb3KJF//y/a/kygEz5UfLU55kcpCUgt6DZvtwkw0RLXAAygyvJUdIYz+2bJ2bt5cMxalnPLiyt27vLmS2sNa25gcESj4DLEPRwYAK8DNtA7C6C60VKBYPnuasP7iguGMOFa7WuzYyQiDE2TpZQw55CvD8EMGuyO1AdenDVnlQ83IeJlqwqzN8xZS36p58t5GsdsXD0AVeMZWXTY4T2sg0PBYjSKFIjQGIfYyHzFPEp1kdT+4tTR+w7RxO7hgF6CfvgwlJmH84v2rWFBUsTABk3WEiuRmSLHymTR/pejJiX3ZCjO4pR5WnPOahsizjukLpmNom+emZizJ6aHCUhA/FNTuUo2zPFx+U64tdIvatwkBIyYJtb0jT6x/+4mjeVdJnwo8j60M2EENTWB2551nLjPaCAmAhCMxaiiDmjs8VEXmqNrv3l6Yfs+8creFHMrsHi/rCW2zufbNj7Vz+xJUR7qkx/fMhZV7qeuCLgIUQcK9tC6RSoclkqi7sL11VOg7BBWLkHULtEdBoNOz05Zs8dmbEz0+is4pTsERHq6zK4JZOnBvXANcp8a0Mo+oefXM5bmPpxhdgRbFa8UkyaL/5avgwHBRTa1XAti7C2BUhP4gKQ9bZ999RR+7tH6oCDbC4eLp4++wgu+cHCor1N4vUyIwE6JLqKq2Y4yRPiiEkFBgX3A6kORmX6GEtwBYqDAl4OSDubnsw7Q0Tn7OwkXHLcHgOUB0HkFOJbx2TilER9MLHoMopR3r5Fr/3oUt5Gvse4e2RNydsfAHn7g8ot+48CcnB7rioWrgApr06SdAHkpn3vxCH7wcOjcD7SJ8CIQLlEuPhTRgD8cqFr7y1t2urKqnXJec0wdiqNcTjhKOcpfM06mfJdXR0AmO5laYBVZXu1kagS35nN4qc8BSCfPThhpydie4S8tZAltEnGmPRVfJwVH7VzWwJGr/74g7zjztCJcNEBh7ztMeWGfUkBcUgtitbI34jVW0mt3mjbKw/P2N8eHWMdXhTcPB3ErozeNTjl6wuZnV9M7fLiApyyaW3cLXFl1CVmDqMSKIMiKGZFdpefXxb3GHiREx6dFYe8QFkFlAozngaUT+OrfHoWTgmXxN6hjygRmA+VO4jsV3/8Yd7JavQIAImOoJsppTVkGLY2GKqHXucxXThdLbVGo2OvPDRjf3MYUZni9cZJGdfHMGYkTM3eI4/hHVjmheU1DJ41WwSUGp6So1daXucd61guIscFgJSdIc7ZG0Oko2cKs4QWHZRZ26r0iVlAKfH9zOyoncLIOcapMJ2CJ5HssK1a9Nq/XwaQdQekrCmxewckx5dteCjghqgDJzCVHFeLA3KkY997eNa+f2SER7vhzzaqASZhjGe8jvGjEaRvY/G8ubqKS2jZ1nEDdjFuBCPPl8TgyZWLCDaiigCFNd7WyAH8lljicp5LpMttGAHzBNF+AJfQyfER+xI5lY/jC30YQ6eBG8lHFHKG27XotZ98hMgGkPUJzHoAqQv7MMTbHVKu348UCH5Ixa95flK7iLhUqojs0a69cvyA/eAo2hxDnEEVeAJoAFKQEzNt4Q76CEydJyn7LTjlZUYLrDB8IEVyapC0D5RGX5TOGCsiw8GKe4NErhfi5jgbHYxSGXKSfGt8nyRSdIaBY4ronAaUR3HUH5D5vUWLXvvpFQCJyK6P0wHoXQ5Iufy3OKrctO8o4IAEVAr3KSsrQyYnAiQc8rsnDtoPkZsh6CHPIOD05ws4/XnH1iMacwlOeQER/uZCmyEshBjhnqQp0OR0Z18iNSEeLR0ygFm5lDKoxC3d0I8wcjLEPtwyRrzPjo/ZI5OTdnYaXyWgfIZlqwYgP3YOWYFDZg5IQIlyWgJyK7Ltv22BQ+KyYWC/xHHK+OkYo6aGDvlXAPK1h5RmJrELktw9xCMGG3m2xncMlnjSVjGEPuXx/3YRUDL09DLRnFaXFW5VS8aLM4a4dkzFC4Ure5jtIfwofRJwcs04kWEFNwacVVxHY9UqnLFhLxBmfOX4Hdw+r/7kSt7NGlZB0ZWjUxkdYuclIKHBMDXhjChILB0PoCl7P0a3q+KH/M7Jg/YqgIzkvnGTOYTx/BlnK2AU0FFEJSLQTF0I+z1DWN7E0Dm32LZrrRbDnwEy7E+cUL5KAThmhGmGlZ62AWRPOibb4bK6vjqCwGg4xYXaGL2gSi/58uEx+8HJGSI5CQs6Jb9T7nw5GjlLeH/1x3MMq1YgXn4l3AKY8GE3obJsw0IBcUXneDJKEXA5hqoDsoZj/NGD9vfH8TXLUmYhEu08Rzvm7spRFo/uFBOZKA2hbruGn/L8UtPOz68xrGWdWk4YMjmMa2TSxXO3uaKLcFEBH3Ed5DWrpC5IhyXUCEdWMpEvAHASQ+fMeB3n+YgbOqc1mtG5NJeW7suAnejVHy3QP/CgN2TiY4W5T0m+ohKQekTD0pQEoQev6IlwYtkI3+GQVUVqCkAS+OgDEhzAlQROxeb4LPCIU/HYOYp6TrFdxrC5sNi0N66tkSGU2SrsUwEUgVDjuMXbBEa5kkI6Imu4hI/T50f4iFR+l86pCE8Fg2iUALhGM2p8zjO4hI6TCAzDZB+ADChLQELW+6HdPSDRCyFABGeVaBVQxSXbCFNVMLksQ4cw48XFll2miskGQ1xSrPJKnSEu6gEStso0EhCVDVQ0L1YGEINPlPXorsoSShDpB4jonJxo2LPTDRIzYjtORKfKqaR1lIDsU3DI3+8ekIhi7l1g1OLIggPmgBI3ug+P/gRpepGIzrvzbbsyt2Krm8S0GxgniOkARoUYAaXUVxDdT1tTXqay0zWWW1xT+qVyNBVmnEQIn5yo2dmphj02M2qH8FPCNEtADjkOBz//rgAJW0sFPs6ioKMywt0Sh+tJBKeIYwlmkoPsQ5I13pnL7A9XlvBTkktZxebA+a5kDM8yLxJ+ffgE4tnHYUklwEpPuzjNsc5j/JK1cY3Z4qxEdaYA4QkA+fShCYBJ6Ra2lxxSD+I+aHcNSETzdUBi6coogqNhweAdqluGzidQqpDENaI5lxmhepEk37dxorfxU7rVDTDlSvJSO3yMAKSO97E7pKep5I7AnjRqALJh3dYaQGWILckfs2OJnYVDfvkQoUaMnRKQ9wEYdQt/NCCFShYBUjmOAmWkRAiKi2UATKDErqHETubO81/Mt/jctrbS1nCOI4wJrmBIUStI0RzKPDoQ5dvuD4VQLmUFUPbamwCS8f9EdEbruR2fqNjXjs3YC4dxPZVWth7n8Le7BWSGyBYQFS12QGJt5138hwqSyGhhrH2EeJbDUO5uvEH2IfmT/z1PPiVpa/OUatxod0kvY/faOFxS1j16qbxPcEa5f5TWqHI7Sj+TchAGB5K4m1JxDS55qJHZi8dn7ZsPlYAcfiQWd3C3gNTIQBkjA0DKXJbriOEKslAUqwZlvLMf3ykJaotwvwtY3+9ihl+aX7aPVzZstakkXA2F0Bgd5VICSPyRSvqWda0scw2RSDtyngucEumqtrbJ+O6OfePkrL30CEkfJYe8PzB514AsdEhgB4IksnnBGPEvQpWaj4OR+czC/j3CgbLAFft+69MN+/3cMi6hDdt057mygJQrqciOwAwYvSAZ+iYslkIYiPaGg1I+UwFyirLSf3p6xr79KEnEJSBF8eFvdwtIAUywu14VRd8ESi0FIPmkj1T/BrCywKUnxjaPUXO5ldpbixteafkTDJ11nOc9Da3FbaSxOaFUIwfDKVVtWaCUWJf4VjJPQohxqroJIKftpUdLo0akvi/aHwNIgU3QcwYoJujf+qDUN8QrO4ThsUCYL5Gb1xVbZcTixQ0c52vUFsV5fnWta2uAVNWWlcCrc4rreuKOdAO/kHyYZB+hY1YYlDZNePPrZ6btz0/AXUsOeV/g0XUy2SA7Ch1KX1S+YwHG/gjVkOYAiFx0iz6OUnkn/XPCcIRsbQHAEa1pzNgi75fgfr/5VBGdtn2ysg43ZV/XT6U7cqZ2O/xG7JqcZJ6MYTO6fJVEjJmR1L5+dtq+eYyY+L0GZCiI5N2InhR6kL+rSzqp9E7T/am78e+Lryxf+hQQbUTLMKBfDx2/oIfquvYkg66em22Qyd2BdABNIhfaMo0bnA9ONTgJx4m+rPE/OJu2+bl9fSB+RFZYQnKFW81Y1k3cQ8vs9+EyA8fgkCsbLZJ7/UieKWfz+k/EqcnVTHDzZD3yJgCkXEM1xo5Pj2cYNeiQ+wGQCd75hECmZ4jId+WhJgghC80VbN6hg/RjBy8+Ln3WjZbtBgrAjVQS8XqnFtkAHbRTwSklNshgdjp6xw4EzH3cjMdpbjjZ1h915OA62lWgE7gBoRez8ohPSK7Qg9I2PS8leySM8wmAJMrDs67h8pmcpLrGkVn7LtU17jmHTFQmGMerl/bjhkLKnm5Md6keqtsn6B86p6jsnxW28hFxIkjZnC6BDKKbPukFQPIaQCi6sc5XhG2+z10AMnBj9ANBXkjjOgOAFgD0Z6dt+vd92FuAJIs968GVMXxUga1WLwB5eNb+ej8AUi4B+WbDD9e7bjJ8v34zN6zQShGC8R4lICHFoKnzEl3RdzeZRSc+9j/zPrB4nYbiYOyDaA+TC/ru23qROyf24ax+NSHOj3Pm4R8FUK3iJWzy7QJkzFxG+xqQ0iskSsLMUN59+VK8KydTN+TssbizggaKBLjp57davjgF+g/fOWEfgNoitYfvOKOdlFrldAyxaLljdtbk+oGL6GQ3Hlo8m5vWDa7F7iTg7n9AoniHXizOqDu6cQliwR2sBSXdsOGOva6My/edkfK+3Vvjsn1sNghxEhaAFDr6AHVAshFaSoyrpR1EqPT1nTQ9J39WNx6k84ZL9199K+v63zUicv8DUrnzIpj+i8Vvls9BlqPoqjfCRoO1pzuUronL38eC6IbLpgH9JjVGTfR0IEJbEVXcUWARCB2MgZZaoXSzUP1YB26zcU7nBbrMoA3QGJhvwUDCZkclj1NDGva7yPbBHH2dgx/uNxluABQWVNSYDd1wIKR0FZ9G2eX2gCIP9geVPHEOCRlEPgfhDYjpk1Qb+5JIJHWGsFMOySl0SP/0fu7BBcJz0LkDNMN3vYpD7ndAhrsq7ky912+iuLnQpbkTrRU4i/Xsnin471S5fr8P8idFQ9wzISBo6XPDPs2goEsgMU35w0VyXpTFrcmvdtpuek7bPXgYAOk35jjjk977i27SKag3IbDgonyGhBAc8eTm+XapcX/vp/qNeZfC9DjHg78WS1hqjkYEurpTDDMAjBq+qtkz5OuNGF99N4D0Yvp9sPszKZ7XrchcbHejZr9zyMD51J3VswFeX//BMuwPEHInuTtb2d4HZEXFjpRfVzZRQNXFcs2UIJA4KNVfleolQCrRQUYPoBQgmdo3gFKA1H475JBcI+YaN7eCYfTl+E2nDNuGApDKNvEIg1wTWqCYp9ErjuqfWQcYfbAmYHS86ps4JMeWLVAgBiQJcjpDdOuPKVUH3FLVcAVKkActoZ20HY+KIbKpNqHMnR01l2J6Jteb44/nc+s2VIBU2Eq9V0AUCOVg1KLyHho6yVbCXhV6e5XEzgo9PYH4Plf37e7/1lS5r9fGFK5PKMvdJnW7Q8Z3B46ZomdjD8M0xSWhsas44pLokxLZ9HUNynK32k6oAxLDIK47PYDPQFbJuvtdZHudGWWcyP1QgFFFMMXeK5R6q9YTG6GIwSiVNcZGKAjMwPIGIK1RYCPZsUN3J1Qfrn2ZstBahGDXGV6wxmCs9WaLGX1bjERQSRMhSDp6wSUluj3uzCZ9/pxP8Q73jphShO0mFlkcEvzEgy83nSg8133u9vHwHwTxvib9UPfpHn0F4ntUgGWyx4lRe5Tl8QnACW1r9HpCouTl3XS/D/SXtkYHgrerqJGXyU38w7UlhhX0rMfwVK8d6SAEf7yLI4o7ylgEp7cE1p2IKen1+XYjR/Q+cPMuQ8EhdV9+b4FwOQT0cCIxzwQ2WB/JvETwV5ke91uziTXQJ+N0A9CqpBxsoWxOgRSAMFeCvUfVszeXO/brSws2T+JsLycZVhIIIMqYETfUtHNOdgAZC1hBMd91Sg6JURPoIVeOwJih33jxfTKJ4yqz24/kdhowPk+J4JcPVQEkBGT4pA/PLI2aAYiUTMuAVHsXVebcUtt+dWkeQBKrJpvH1SJopfxDT4zAyKFH+7FBTdobUTMUgJTIAIL0WDgkYPRKCBg1mm8lTpqIbDgkxYlePDhl3waQzDEOIKE6g9iL3JbBQ3mwP2C+YBS+Q189x/DU/wGQc84hJUnkHpPhKBzKqg6AFClhm3DNEpAD7MiK9qGW6sHikF0QKuOG6qtRvOGAPDs9YS8eAJCHqZvtgGQb6U9IobIVFJD2Jly9y8DpN5Y69vNLc/bpOtO7ebVcdzayAxwS/6EA6RJJCrsbkyUgB0AKsVShjF5L0q3PSArvk+snjuGQJHA+hsh+cXYCka3ZoGgAVu6K/HPOWW18MJsmxxQHfJehqW8s9eznHwBI5qHpaqx0YV2LE7pEggsIiyGpQrTXsvttKER2yNgBgIxCc12HSqxOICyyiPG6IwIkHPIFpph46aB8kCIcPRpLPPfEDH0vW+TZPkyw6YBMAyCbGDWMCiRcA4EAISk6ioaJS/aHGwQr24m660QcDkD6bCkCHyJY2cs+XS491gHZtAZK41k45AsHxuylw0wq7mSjp1OCQ3PolS1QINKgKUorX2RKjzeWU/sFHHIODtmTN0KVJ9zVI1WIr5IusEhxyJBFVQJygCOf3xluJ+4YJoCU6IZYMlkQ2Q1Gqani6vMHR+3PAaRKAEtsR4ygE2jLFiigEs5dXD7vbGZ2jtF/MmquUQGX2Q6hlSgmDomqI0AS3xaFWcF6Vjib3H1KDgWHjJk1QIv0R01lkXVUBBN/GYCME9w+SJyzTBT+1UN1+zN0SAI1Xsuwqn3KjPEBiiRhNI/he1STeJOpPX75/ppdW6cIlI+ZYTc6uVL2JLI94QIQOigFyD1qQwJIJW0KXAIkSzdwSFVhjyub1iA0cwoL+7mDVfsGc+dJG1L5wVGpkaXEHkCJSRe8ZN77hFPPM4vCrz9o2jylTbo+CxfQ09hoVTQDhgGQ+tRvewPKoQBkRG0XiW2l4EuHzLrSd/BMEiuNqYolQJ7AKf4VuOPz1PyVp0fLGNQkla9sBQU6EEU1HFVB4gKAfP1yy5YwalLoqjEzKo2naraSKp7dIww6Dgcfdp2WQwhIjdeVExdAavBXvIn/O7UjEyP25BQThM9Qzo0k1G5vnWgYs5u6Zb7rdByKC9RwhVVZPmJczXskWPz+kzXbEEqZRk6qojhk2mHaNwESKzv0ZVnc7FNEbXb7RocCkPI3KlToLh8Vs9Q0pWqI7Chu05t7Ntmo2DEqrz46QnSms8wUukyjywSSaZmgG2jF6wgD3kaY9Goxqtu1bmxXl9suruOqajUqLKshr0giVcZlfwckLw7IPfLnDgUgMyxDFU1XOZWQQSJw0qUdkLxJfCshgChOTOlgJeu6Fe5TqJVKZB+ReaQ6d1qgJxwPhgjtlKjS90EKlOKUwFEzJjgZ+Sxfbplc0ScjtOnJ96iC6RLTAqPy9wLXVAq+NEZFElX9TbUFfaJHEZqpzQJnvX6uB/qTpIznkYpGoiXUEN7EDkVDcUlFc+jYPjrR466sU1SsBOR16OTMRCtjRilnPqU4M9N7NWti2UH5hmhKtweU8vLEKgFHr9d8erfOybt+7gfpkzKlnPv5TUsgB7eYdEaFCV1GC6jqzO4ol0TiGEmjPWpDIbJN1rVPK3EDINXT6fE+NzOdOmQ347qAsElFgAyl3IIitEfU3OeXESCd+xW/s+/4Dpk8EE7EE7dkERADFxXX1AHasPttOACpSqvEXkQ4n7QHDqmEC3f7FGLnehIAgGSqW/VwZeYrVa1sBQUkgtHFQ7uRLljSEskulqUvsgzK1winIrKW3W9DAUjPzVMGswYkYQGGaIJ6MYvoShf2mpHSwmkCpOZC0bx6Pl7b15YvOcahpiSGaiwBZKIfQtq/Sr0JmVXSGYtFIsazyftA3l06DgkgpdOImAIj+g7uCddzNDzhJkBqPbTVxDyMH8lzWKSsnbI5BeSpUKSLLssiQAZwOiDhjoFLBiBqsFUAJZ3cQ4slIJ2IehGhpMbkTM7oHA8R4ko3YtkBqRfXf2Q5KrlUrFPimonHM83tXTZRQHq1DL6QV4rEAaDBtQP5BnF/dHM8GSGhRZk+0B5H+k7rQ94txYeCQ8qvGPRHJ6sTVoCMIfB1kSwdiH8WyCsKs41ernHcZSsooDg1UoMCCnKNaWxmACfSxAFZ0MxdasrGh2uyeMpfv0hVcabdehsKQGpqCC+VAtpUXSGW0QIYlREuj8TASnT3REgQkFiPCYlpcp6yBQpkvSX8tHOoM3Vow8RERGgiojYaT+PqN1JG07zlKmGopQg8eJZ+CcgbYCRxLIctTXl7wRkegJhrijO4ICqmi5cYImZMDJkC4kghMYn1sgUKpOv4xVeRH4RfvWAPHJLk3DBcWKVUpFfKMJSeXoBSEkb5AHvUsYeCQ0rp1p8wKd8YLxCM6gYCI4QTCOt1KlYQWhzTHHlMSaE0qrZGHXpqfolIUaAG0DQOs9nJrMX46xaD5VLpkZo2GN+t1/fx8R+IbtGWsFcm+npG+d5ImqEA5HU4uWnDV4kWXEAQK0HHGalX7SgZ4w9PjdgjE5Exi5412FX5AEGnvH6GB/lTG0bXIp3+6lJmV5gU88pCi8oVbcqpKMAgUGqR5wL6AkiVxNbikx/tUcceEkDKMGGR5HYnraxDKY8QEvfEKJk+Z0jQffpgzZ49FNsoQNTQd4RRMeDrQYbh9XtXtvgaRLxE6tnFOSbF/Lhlc2sAUvkW4pDuLgOPntWs+joAEi7pBtAeiWyFhiOSQLKUJ6hBabQqg/jGx1L76kTdXh7DILvXM3mZ4bohOiPXg8aFWI5uWEQOMkqm1Cni89QBBnkdafjUYyFTijxJ9CSqH/pNlS9QQMkT9ON3mGD9/xYy+9l7ywyDBQKRJlWHVkhlL1FDOp/yADJS1YIuKW/G3vgh84waltSGz1XeBZaSVCtWq2UUE9u0sxRc/QqTut9zQKrHyFEb4tniffqxAWhZumY1avw8PjPGbPMj9i2mHnNA5uuMrcGadOcvu5cNCihYYHaRyme/Xczs5+8vMchLeVOjQX90kgY/pA8ZEROQauR5BHsDyD6HFCAjxovLp5wkHavFa3a8uWpPrS/ee0DGctRiuGgicanm+qFIY285gKwy3PXs9Kg9f2jMOSQ542zeYE9uyEfYhH0f9Fe8ivIwMuqQQgHLGaMOl6jtI0Dq4QejRbqjIjQqpSc/rucOOA33RtIEHVIWvlxSmuydQAclspJ8xY4BxseW5+49ILEFwRKyRkRDDAffGR8hXJ6tUKi0Y6enRuGQk/bSsTrkQw9h9Ag2N+97Yx0OA9hxiHmxqXcoFPkG1c9+9cGiLXqxKUkc6IRIDxMFyIerHg8o3Q2kzwUH2PUbBYye7wogZQUASOeQybqdYmjKs+3Vew9IqATwACRKjnqyitmHRADW56vOIU9jYb/IjKYvHxtlXDYi3gvPTXBze9Ozd/05fQEXELx61rGLncTOrXTtlx8s2CLiO0M8uo6Iwah8AYl1L1jPNfU5ZAHpw140LCxyEDQ9cc4stPKSVJmMc6TRsWewcV5k6rn/BwAA//93feXYAAAZH0lEQVTtnVlzHNd1x08vs2IGCwmCpERHLmqJFccpR7ZsKbEtJQ95iGJX5c1Vec17vkA+Rb5G3pNU5S2WHKciW7IUJZK1cZFkESQIYhlgtu7O73/uDAQaIuUXDoDBvYU70+jp6e45/b9nu+eek/z0XzaqkdUsbzasqnpmVZ/3mpml9EffqnFhVVGaZbml9CSlZ1w9Y3+1a/V8ZM902/biuY69vNayNB1yUwN616pHf3un5gpJwqODNu8PM3tre2Sv3bhrd/ZKK5MWdMysKlMrx9AZoiXG/7xXerGCHbOhZJKMudaQ+6jRc+6psHqrsqWlxF5Y6dpfLTcsOXZAFhWArABhBhhBImhMM/0v4u1aIwOQC017kRt+6UILpI45bmBJrW1lOptBcxpQmYpcPOAPB4m9uT0AkHfs9n5lRQrNLKenPvCrMnFAluWE7vpiOiNApoWleWHlqGbFKAGUY6s3AeRyYj9cO2evXAADxw1IhjCEZHhnqSUJAKsgGARKBDzrWYP3P2w37MXlRfvhagugQrxsYGk7s7HYQmxOgVxccJDah/3S3rzXt5/duG23+wAya0JLJB4DvSoBn2gNhyxhAiXSCYGkj2bS0ry0rMY9jXIrhynvQ6s1SgfkS5fO248vnQRAVgIhXSIHMDq3dECWiOe+tfgBTy+07PsrAHIttZoGewZoc0R3griJLVCgQjQjEX+zX9qvNyt79fotW98bWZHUHXEa7BVcUYSWJKqETciX5hr8MyJiMuLqQ54zXLtEbEtkA8jFJbMfra3YKzzf4+eQ0lUFSJoTCT1HBBInzPKxwRztamfB/nQFLilA1tCAGNF1iJuh/cYWKDCyuvXZ/BCu+M5maf91fdPu9IY2lrjWQBcWIXACvZMcAkJz7ZM0mpUOWVXo/uU+1+sgDZt+Pw7IRYPZLNlfXzgRgBRrFCAD0cpxhQ4J2QBeXiut2UztSqdlz64k9u1Vbhha6uhluEEj4hFKhLYH7rahzSejyj7Yruytm0PbEiAFPNcXMXDGEAxyZ3mQ01Aa2o8BJuxyBq0qB9zLPs+3y0CAS3LdAMgKDrkIhzwRIls6Dd31RwaQDDEAmQHIFAs7R2Qv1Wt2ZaFhT3bRGxnRRTKw+qhuGZZjbBMKYCkX9LuA7PNBZdfXe9YfALQM7wm6Y1UUrrPpaAckHg3RvCpG/vls6CgOgkGaLPDEG6gMY6vVC+t0S3v50jn7ycnQIQMgEyzmoEOKTgIj957A3vkBGbpGByCeA6T7xZb1Yf1lbc2qbGE2dDwFV6mPetYe7dqw0bW9pGFbO+hqiPG82YUTYVFDw2Iod5lUoRqDXqIG4wau6cbODH5j4lY2HKdsAcbcxoO+5TCdTqewl69ctL99jPs6bitb0kI+shQrW4wyEAddJ+EDKcG4JVKsaXl4cnpR4cdya1GERsGMzSmQJn0cFXt4FTNoBNAkPRjVKRa2aCoDQsCUY8K9GXxLauWBfulnebQvDsgMFaEQd8TSZjDkcMguHPKly6v2k4snQGRXRXD7JHL7QEM5aivktnpw/wBGjeYDF49GOz6sEaKoYH9sToG0NkLvHsIFEYsgLavjZHapw7+Ia3FI9/VCRygIl+LVdUfRcDZ0nAKyHNe5JwDJPU11SPkh/+ZEWNkTg0bEC2M2iBcR8KBJqqtJ9Mg0pAWQOoL9/7P+EkhU2XiIOwwapbXa/VJH+yRiBEjRUHqlJI07ISMgD/AjfTGIkGBlO+igUxjBEA7iOQT9PfwvN0VWl//MPzk415neYLpXXKcYSSeUwxvxJ9r6OIdO0Mz3SS2CMwqMAZBS1mczsE8Fh0xzEU1iG0IJiPjMprM3vk+jWT3Ako+lB6FX5lhrKMmxBQq4s7nquCVdYb0KiN71MQM3mQJStDbAWEE7F9sCYwRkoKJIwQCV37EYacRq+EKcSXf/GUSbeoXkDnJgaobGneIRkAeExNGcEEih+WGBTZQKDm/RT0ai6CyUTvZL4vhgl2Tyow9O9ag2TgmHlOhlsAJIVxuxEEMwwGTuVWxSxISTpjUMH1nfjHAHcMTjAXZCcApz1tDrC0f3VLK46IF2Uo/4ir+Er/qg12EzaKcCkMGSBozMMDiH1FQXinZCl+MUxQjASv+Rog7VJjMLVdlmW/pPbKJAJYmhPtHJXS93AIoDgjjniH6kbx+AMnw0EyKeDkA6x0OrIfpEojpEpuhd8Xs4d3H/pISiKVJEvSrxQ+LGMGNGHm9/bIECVUEca9mDRnJ6E1Mq63kysCViHJPEnbox48r5hHKBZc6EjKcDkG6sAEjpiijXaV6HmEGnKcea+8S/RgxdptAl3ovhfrAkExzjzETENqEAEwYJM1hOvwyLW4ZKAjglVlDUUXigm5zSxCO6XzKwxiDqOXYG7RQBUlIEAjGiNcK9MYoFSCNepUGARauR2AK9GjAbMRoQ59eGoUaRPcVRigKeoc6Mk9yGSJr+sLSxz/Xjj9QgB5gyeBQDKVVIwJQvMiHQwqcRpyd6hO+nA5By40CEEktPYlpLGIAnnJHZBQCZIa5Xui1b7dTtUpuAiuGepaO+lQ24gGZwYnMKSPOR82GbaKnNQWGf7/Rtb4ijvMzx2TYdlFoqotmRSsAkqMIAZTKd154BHU8FIFOUcCFSDFIbPt3lYgVfGiO+Vc/ta6tLdnUls6cIdW8r7Iyu1Q6m8PvYnAK4wg2I2ecsW7ixU9l765t2e3do++zMGy0HpegbnOI4z+Uekr9yEmQxCzKeDkC6YxxAam2Nh9djzEjHgVgpi4I6zdyeuXjO/oTgzW+fT20R8LbhBK71iLXG5hQYQxDFRl3vVfbu3dJev7lln2z1rUcoWloHkA35KYGkG5GiL0hVzAAiHi4wEyqeCkBmdVnPxPIRu1ewzqIsMFQkvhHlZrvojqypWV2w59e69oPLDWujUxKExjGKOI465BRJFWhj3ZR9ACDf3ijtPz++h9gubAA9g+EiV5pmcNA1UYMQ5nwVYLLiNAZXTKkoUhB+JHdOgf1SDBWSpJEsXVLsb8sa9YE9fY41NRdZBnu5ZU3bY78A2aFHK3tKygp6CWK/QWS/DYf8+cebtr4L7LR+RdE84o4IdYFSbrQAxgjIKf0O3rOawqJkUStYFIAVcD4kSJAie1YnrOpJAPk8S2B/RLwcQWeQdx+LUhxyNqLm4GZP8IYMapxk9iGofJs1Nb+4xrrsXfko2oBQkgRE4kLTHoltudN84gHXEA9gJr/sVIhsX+4KgRSwWZUS1wCNFgDZs3p9bF8/t2Dfu9CwlwRI6Jrhc8vl9BWRY3MK4MwBkCWJAlJ7+94IQG7Y3R5xo1ou4IDUVCxoxZ0mQLq1LdePwBh1yEMoYrrLI0/k5JYIJgp84giCcLus2y0AZNe+t9awlwGk4JriP8vhqpD70InO9qa0Quaw7D2WHr51b2i/uH7XNqXdpCzzEBdkStYDdXFnaOJBMzYlbiCfhJhMRDxqCp4KDqn5V7kiEl8/zFQg63WDk1yiBQ7Jut2rAPL751v2F6xKk0bko1zSOjLIQxgSJAt7T5krAOTPb27Yxh4zYEQAiUN6OhVNHWr+AY54EEmlM8yIjqcEkIgROcdTuKMsPhy57hRnvAuQDTjkUyQJePH8or28mrlNaFLOtWrODZ9Dz+Qsb4I00e0jjMM3tob2qjJXkDSg1HJTiWz07RAvIACGRAECpXszIiC/QI4Wcbl/TIuRlA7E1Rz8Y8zLJumuNbHCn17ukGxq0f4S90+Ig+SzRsdGEZAHhGQJu8apXSOVyq/uDew/bq7b+j5z/2lIpeLZKuTrhR1qXlvgVIyuEjLMSIXkOnhUWOR1otfUOCDdWAaMEMjD0IRKOGSa71uLZERPLXUQ2UtkP1uAQ4ryKErMzxYzsg4PnvoJ3siZVBDZPiBzxZv3SvvZtc9tvUcqlZTFXp5VLnBF/YQQ2idAAsYIyPufqlw+EhuKiFLWinEfVKILyfrOSU3Rbid2dblr311dsR9crHvAGQs9GeNykEejZkrNEu16BOk+YGZGbp/XPtrwqcOCIXwQ0SNyIY5Cbh+F/EF7LW+YkffsdHBI8kAmRAWIO/p8PwTVklhlrqg1S2u0U7u8uGDfWGnac0wdauGcvGoLELfmIWvTR3K23/sMT7w8dpOAiveVSuXGHqlU8DXKwtakFzqmx5EyC6YVmzJu1EPCrtkM7FMCSFnTeNHgjiVzX8UQgiGO86aSqJa4fRLrkkz1sQWCKxaZwZn4cBVkgU89tgkFRkiZfQC5Ach+y2zN9Vt9UqmI+9WdE3ocJGu25cFQYlixRT7l23KWR0AeAMkd44jncowAJkKgJHegA7KhOVhQp6yrOHCb0G6JpZ3DYtdGJC2ynJRZpAyJLVAgK+5ZbbxhRWvZ+ljWu7uSPA2CKjpIH6xtonvGfUWVEztAAO90ftvpGwH5BYzExjVCFemjlCpVEWIiU08Eqc8AK5HOCUqmmGNREDGuZQ05EePuKvriXGd6q9gGW5uWNpnjz5uoP9IVASSRPsEJjhTyNdvimlqzLTprlkY0lux+9O1UiOz7iSER8qA2IZq/8eKzCw87/kHnmdf90ERK4ZFZl9+lkQj4u/tmQ5NTAsjZECNe5fgpEAF5/M8g3sEhCkRAHiJG3Dx+CkRAHv8ziHdwiAIRkIeIETePnwIRkMf/DOIdHKJABOQhYsTN46dABOTxP4N4B4coEAF5iBhx8/gpEAF5/M8g3sEhCkRAHiJG3Dx+CkRAHv8ziHdwiAK/HyD/VQXciT9sqXYIBdxLQpR8KdWMwogP3XDcnG8KKO5VoKxKlbsjS0lBeWLW3S8ulvYjSsv9mBUByU//bYOlGAqIVSBnjwNVU1TreCMg5xses/91nujKw91YXV+yEIV0i7X6kEpeBZW8zlPrkCW7EZCzfzBn9YoRkGf1yZ/Q3x0BeUIfzFm9rQjIs/rkT+jvjoA8oQ/mrN5WBORZffIn9HdHQJ7QB3NWbysC8qw++RP6uyMgT+iDOau3FQF5Vp/8Cf3dEZAn9MGc1dv6vQD5d/++Xg1Io6xqTyVpSoxqq8yAQzNVfVKWA/Vpm2Y84P1gt/bR/aODndMvxPc5pcA0QUbAiD98kmbwDgSUFvV+fEyJoKRWBFhk5KwkMU4x2rdabWzL3ZKSL+ftlUskV/37125UVCADfE26kjdRjDElmRMxQKFetU7CBchW6zWYCbrwilvKxaOyHHTlsPZ7IWlUbPNPAdUQSkmZqJxBqjAb6gpROJU6leJhKvA5LQyvHELOrfjAK7TxWa2jJFjU1elvW4OiWU8sUNDgsRUvapD8wy9vVnd6hY2GSkC0TFeub2XJosgE5d04PV0Jiu4HpBKMksCaF1WIUtIijlKmstjmngJiPsrhqRR/xRBAkrRKOSeVVa0i/2QAJGQAnKDU6SHwCqSCU04S2pQc1OVo17r11P54qWt/Rnbk5ykfmPzj/9yuPtkeWI+SZFlthZNzUuLUVFgHTPtZ/QbEldWdQyrjLZ954SIuqANoqqYQ21mgAMCacDyl+QuAVBpF0vyBD699DjC9OTYCdxTjctBSUUdlnlL6Bbjl86vL9p1zuX1zCUD+E8Xx3r27Z7dJlJ7Wljg5cZHUo1ZG/wBxnZYb4Px+bl4Q1ipH6O/6VE2sOhTPDP/H1zmnAA98muZvyiGn4tmZ1QQwXhNHx6qYKolos3oDUd1D+u5ZGw3x6sqC/fnlrn2jk9rXWmDrnz8dV7+6vW8fre9Qf1pVnwDkWBwShNEENGe9vHgJCRhimvFFcWJFAKtMmaMRVk1uR0cur7HNNwWcLQlo9FB8SbaE8KJ9wgVHaIcDRYAkL3ytgfHctMHOFkyvZ2uLTfvWxUV76fGmPQ44l4kmT169U1Sv3ynt17e2bE9ZbDFWQqEdwOVcj5MBziCOw8WVuV911hWS7gkvuQHpDhXWegTkfANRv05gPLAbwIhwp1pDjhHUtlAIi10q2wIgBcwSFS+I7DoccsdyjOanV7v23BoVNi6mdo4y1XVqWCYf7pTVL6ke+t+3B/bb3p4NBmKtodhOyGoLLsGdK6U+GnQNgOnVEzBiZMg4IMUdZRDp7mKbZwoEQKr0gAA3EaEOSKl5U7uDowSJCR6CFAUqAjCLZpYwZp67uGTPrdbsmyuptZG0VvUs2R6W1TtUoH8dUP7vxpbd3WVn3uZbqjuobP1Y0Eq17FxSo0BsM3DGJFHC9FBhNJTAldsoAlKPYa6bDAg3aA8DclJiRLvkdHG2yWFuXQeuKT1SnptOu2lfX2zbC5cX7FkKGVwhgXym2kMYOUkxrKprZOt/l8z9b9zeto83t6xHRdGi4KwqkE5ZCQp08M62xPJER0AJYJ/qLwc9UsMhrFaMgJxrMOrHOSBDaRH+AQcBAwKi2xe4hEAi4FOyffzZ+B7FGlOqtqX4qq+sLNsfUZntOxdye4KyL0vsSyiU5SUDy0FV7XDwZ5z3jTt79s6dDbu2MbB9AOpcT5Wg6GnGijAv/6ZrUfoN15BuJFXHyAGZVk5HjW46tvmlgANSDEp/wolUNxktwWGeUi1DQCyGQysG1KjFea7WxBm+THXAZ9dW7Vvoj88uJbbKd3K4Y4kYl5sxESB1/m36+72+/d/Wtr15a2h3dkbokzg+VaoDTpnWKASuKR9l7pfiqtrLk2LgKQopd+QGkd5jm3cKYKhU+Kv1M4UF4UB1DMFBmEBhgtDBiPtQ1cLwONYbDVvtUmtoOaV2ZdeeXKzZY4jqNoWzKkS1zgUPBZB9lEO4m9jtrWJgH/cH9vpGYjc2h3Z3u2e7e2MbUB0qwdDJak033X1ceDFwKbHikLozAVJabASkqDHXTZIQQHqTMXJIZHuZQEBaDAbOHVPA0SBOYnFxCZ9jZt9dSezxVmoXMTe6gFEifAigK01ZqwxesYcCichOELslpbHW0RXfLXL7aKu0G59jeW9s2+b2PvYNYhs/kuqeeMOwUeYBcUr3T4JuN4AiIAN95vgVvFHoE1A6IxNXlEGjzo92XEhcM9NH8cVWu2PLyyt26VLqIvqFTmJLiGSq6XA8hgxgVq4UeWjgoxLZsD8AyX9ut+xjxHzOv59hs9zcKO36xo59utWz7RGMtQC0Mm68hJGuzs3ophgFPocpgzu2uaeA4OJWNq4eATGUjJaRi3HjhVFLkxbXZB57bXHZLi+37PHV1K4uJPYMH8gXk/pJ9J1SldHZg1qouAg0SJ3+oOkfaYfEW9gmWL2x07drOz37aLNnn233bWt/bEWlsm+I8EYXjtlGlOMZ4ktDKti7G+rgbHFjHikg9U7PXE0RPOWYFDxMBcptkwPQhXpia7h2/qC7YE8uLdsTcMWLBFS0ASM2zENl6BFA+lXAFbUwbQ/w34Ez3sK4ub6zb5/uDuxWb2jbGNj7lC4b46MsvcMtheTw4qeIL3NMAXChAvB63ikcLsspkkr0ThsrerGZ2QUSl12iX2k17TKGywXAu4hKqEq+ksQPa0cBCcOUM1OWkWIgVfKWare2TmHwdVxBt/ZGdmd/ZHf3AGZ/ZD3Mes3uSM9NGwwdRHhs802BCiZVwa0ynnWtlllnoWbdhbqdI3JnldjGi4jmVbgkkzC2KH0R/Eiyu1roBvCD6fMlgMSMx2T3pnAi+LP+kzTexSDf5cTbsM8tdu4MC/rI9ulDQAzTpGnkxDbPFEjxptTGWM+yoCmS2mlltkikzhLcsAsI8XXbAmCV+dsEDgliXRV9DYd54kVVH0ydLwck4Wdu6KiusvNYTZDjj+RCAh3M0uQ334Nt79P7eOJH+JvGGgURjw+m9px8IulZwwCpgYc6HK+NYtgSEBHLimZws1dAdHNcgTeAUeGMROQkuUyaB7ejgBSi3Meo+Ue+qC6geZNcVmQ5uwGmLH+F8XIpLo6OoB2xzT0F9OxxuLh2RuBXAKB+tbCiJiC6acy7W+J8wPHuxnHI6qAvb0cAqXOGiR7xRpRWRDEFqrnI5GrSEf1m+N+BqQkf+djlZWeYxHYGKCD3X4CEgn3kGw8gnP50YQM7RBFAcFAxLB0it07uLsPpcUffjwBSX2TtoZ9A+qd3xHLmqBcoQ/cljX6UvkGXL+Ar0M8Bsc0FBQAkXEkRYMmkOywkOj0GUjN/fO4SNMSDaYJQYTpERDyUAkcAKTTLoySrXszQAcm2HJ3SDfgCr+oC4nSbkaCDxTK/4oIcENspp0B4+khEfocASXgsAtT/88c/hYIkreZK9C43Il4hI7Dxoe0IIKccUidQm0joAz1hCjkprLoF1xHYCjepHbHNOwXCs4YL8kMDHjBztHPSXWbygcS6GJx3PsMT5Jb3w+hzBJA6pxDtJ+VVK8i0LZ+TTxPqNuCSCSw03BDBlb5EloO0I7a5p4BsBoLK/HeKT7oeKeCAFQ/k1rtzMgDB9KHEt7AxVQEfRqAjgHSYu74oKztY0JqhdN3Ax4PGBOcH9roRjYzJ0gk2Hnap+Nm8UECAJPbbGWLgkAELEt8CpXcBVbhxYHKUGJoO/gqMHAUkYKwIQ3OryU/CGUA5sb7ep2f08wqUYaD4xaj0ENuZoAAccMIhgZxg590RCh7dzBAw+buvY4gkzOw8rP0/l2OM8vgHUacAAAAASUVORK5CYII=;" vertex="1" parent="1">
          <mxGeometry x="116.48" y="340" width="50.11" height="55" as="geometry" />
        </mxCell>
        <mxCell id="DRB7Dr7BawN4_-SsMaci-31" style="edgeStyle=orthogonalEdgeStyle;rounded=0;orthogonalLoop=1;jettySize=auto;html=1;fontSize=11;" edge="1" parent="1" source="DRB7Dr7BawN4_-SsMaci-7">
          <mxGeometry relative="1" as="geometry">
            <mxPoint x="700.3050000000001" y="395" as="targetPoint" />
          </mxGeometry>
        </mxCell>
        <mxCell id="DRB7Dr7BawN4_-SsMaci-47" value="&lt;font style=&quot;font-size: 12px&quot;&gt;&lt;b&gt;Insight Score Range&lt;/b&gt;&lt;/font&gt;" style="edgeLabel;html=1;align=center;verticalAlign=middle;resizable=0;points=[];fontSize=13;" vertex="1" connectable="0" parent="DRB7Dr7BawN4_-SsMaci-31">
          <mxGeometry x="-0.478" y="-3" relative="1" as="geometry">
            <mxPoint y="1" as="offset" />
          </mxGeometry>
        </mxCell>
        <mxCell id="DRB7Dr7BawN4_-SsMaci-7" value="" style="shape=image;verticalLabelPosition=bottom;labelBackgroundColor=default;verticalAlign=top;aspect=fixed;imageAspect=0;image=data:image/png,iVBORw0KGgoAAAANSUhEUgAAAVwAAAEmCAYAAAAuryiLAAAMbGlDQ1BJQ0MgUHJvZmlsZQAASImVVwdYU8kWnltSSWgBBKSE3gSRGkBKCC2A9G4jJIGEEmNCULGXRQXXLqJY0VURBcsKiB27sij2vlhQUdZFXWyovAkJ6LqvfO9839z758yZ/5Q7k3sPAFofeFJpPqoNQIGkUJYQHsxMS89gkp4CBKDAAJCAIY8vl7Lj4qIBlIH73+XdDWgN5aqzkuuf8/9VdAVCOR8AZAzEWQI5vwDi4wDg6/hSWSEARKXealKhVIlnQawngwFCvFKJc1R4hxJnqfDhfpukBA7ElwEg03g8WQ4AmvegnlnEz4E8mp8hdpUIxBIAtIZBHMAX8QQQK2MfVlAwQYkrILaH9lKIYTyAlfUdZ87f+LMG+Xm8nEGsyqtfyCFiuTSfN+X/LM3/loJ8xYAPWzhoIllEgjJ/WMNbeROilJgGcZckKyZWWWuIP4gFqroDgFJFiohklT1qwpdzYP3gMweoq4AXEgWxCcRhkvyYaLU+K1scxoUY7hZ0sriQmwSxIcQLhPLQRLXNJtmEBLUvtD5bxmGr9ed4sn6/Sl8PFHnJbDX/G5GQq+bHNItFSakQUyG2LhKnxECsCbGLPC8xSm0zsljEiRmwkSkSlPFbQ5wglIQHq/ixomxZWILavrRAPpAvtkkk5sao8b5CUVKEqj7YKT6vP36YC3ZZKGEnD/AI5WnRA7kIhCGhqtyx50JJcqKa54O0MDhBtRanSvPj1Pa4pTA/XKm3hNhDXpSoXounFMLNqeLHs6WFcUmqOPHiXF5knCoefCmIBhwQAphAAUcWmABygbi1q6EL/lLNhAEekIEcIATOas3AitT+GQm8JoJi8AdEQiAfXBfcPysERVD/ZVCrujqD7P7Zov4VeeApxAUgCuTD34r+VZJBbyngCdSI/+GdBwcfxpsPh3L+3+sHtN80bKiJVmsUAx6ZWgOWxFBiCDGCGEZ0wI3xANwPj4bXIDjccBbuM5DHN3vCU0Ib4RHhOqGdcHu8eI7shyhHgXbIH6auRdb3tcBtIacnHoz7Q3bIjBvgxsAZ94B+2Hgg9OwJtRx13MqqMH/g/lsG3z0NtR3FlYJShlCCKPY/rtR01PQcZFHW+vv6qGLNGqw3Z3DmR/+c76ovgPeoHy2xBdh+7Cx2AjuPHcYaABM7hjViLdgRJR7cXU/6d9eAt4T+ePIgj/gf/nhqn8pKyl1rXDtdP6vmCoWTC5UHjzNBOkUmzhEVMtnw7SBkciV8l2FMN1c3NwCU7xrV39fb+P53CGLQ8k0393cA/I/19fUd+qaLPAbAXm94/A9+09mzANDRAODcQb5CVqTS4coLAf5LaMGTZgTMgBWwh/m4AS/gB4JAKIgEsSAJpINxsMoiuM9lYBKYBmaDElAGloJVYC3YCLaAHWA32AcawGFwApwBF8FlcB3chbunA7wE3eAd6EUQhITQEQZihJgjNogT4oawkAAkFIlGEpB0JBPJQSSIApmGzEXKkOXIWmQzUo3sRQ4iJ5DzSBtyG3mIdCJvkE8ohtJQPdQUtUWHoyyUjUahSehYNAediBaj89DFaAVahe5C69ET6EX0OtqOvkR7MIBpYAaYBeaMsTAOFotlYNmYDJuBlWLlWBVWizXB53wVa8e6sI84EWfgTNwZ7uAIPBnn4xPxGfgifC2+A6/HT+FX8Yd4N/6VQCeYEJwIvgQuIY2QQ5hEKCGUE7YRDhBOw7PUQXhHJBINiHZEb3gW04m5xKnERcT1xDricWIb8TGxh0QiGZGcSP6kWBKPVEgqIa0h7SIdI10hdZA+kDXI5mQ3chg5gywhzyGXk3eSj5KvkJ+ReynaFBuKLyWWIqBMoSyhbKU0US5ROii9VB2qHdWfmkTNpc6mVlBrqaep96hvNTQ0LDV8NOI1xBqzNCo09mic03io8ZGmS3OkcWhjaAraYtp22nHabdpbOp1uSw+iZ9AL6Yvp1fST9Af0D5oMTRdNrqZAc6ZmpWa95hXNV1oULRstttY4rWKtcq39Wpe0urQp2rbaHG2e9gztSu2D2je1e3QYOiN0YnUKdBbp7NQ5r/Ncl6RrqxuqK9Cdp7tF96TuYwbGsGJwGHzGXMZWxmlGhx5Rz06Pq5erV6a3W69Vr1tfV99DP0V/sn6l/hH9dgPMwNaAa5BvsMRgn8ENg09DTIewhwiHLBxSO+TKkPeGQw2DDIWGpYZ1htcNPxkxjUKN8oyWGTUY3TfGjR2N440nGW8wPm3cNVRvqN9Q/tDSofuG3jFBTRxNEkymmmwxaTHpMTUzDTeVmq4xPWnaZWZgFmSWa7bS7KhZpznDPMBcbL7S/Jj5C6Y+k83MZ1YwTzG7LUwsIiwUFpstWi16Le0sky3nWNZZ3reiWrGssq1WWjVbdVubW4+ynmZdY33HhmLDshHZrLY5a/Pe1s421Xa+bYPtcztDO65dsV2N3T17un2g/UT7KvtrDkQHlkOew3qHy46oo6ejyLHS8ZIT6uTlJHZa79Q2jDDMZ5hkWNWwm840Z7ZzkXON80MXA5dolzkuDS6vhlsPzxi+bPjZ4V9dPV3zXbe63h2hOyJyxJwRTSPeuDm68d0q3a65093D3Ge6N7q/9nDyEHps8LjlyfAc5Tnfs9nzi5e3l8yr1qvT29o703ud902WHiuOtYh1zofgE+wz0+ewz0dfL99C332+f/o5++X57fR7PtJupHDk1pGP/S39ef6b/dsDmAGZAZsC2gMtAnmBVYGPgqyCBEHbgp6xHdi57F3sV8GuwbLgA8HvOb6c6ZzjIVhIeEhpSGuobmhy6NrQB2GWYTlhNWHd4Z7hU8OPRxAioiKWRdzkmnL53Gpud6R35PTIU1G0qMSotVGPoh2jZdFNo9BRkaNWjLoXYxMjiWmIBbHc2BWx9+Ps4ibGHYonxsfFV8Y/TRiRMC3hbCIjcXzizsR3ScFJS5LuJtsnK5KbU7RSxqRUp7xPDUldntqeNjxtetrFdON0cXpjBikjJWNbRs/o0NGrRneM8RxTMubGWLuxk8eeH2c8Ln/ckfFa43nj92cSMlMzd2Z+5sXyqng9WdysdVndfA5/Nf+lIEiwUtAp9BcuFz7L9s9env08xz9nRU6nKFBULuoSc8Rrxa9zI3I35r7Pi83bnteXn5pfV0AuyCw4KNGV5ElOTTCbMHlCm9RJWiJtn+g7cdXEblmUbJsckY+VNxbqwY/6FoW94ifFw6KAosqiD5NSJu2frDNZMrlliuOUhVOeFYcV/zIVn8qf2jzNYtrsaQ+ns6dvnoHMyJrRPNNq5ryZHbPCZ+2YTZ2dN/u3Oa5zls/5a27q3KZ5pvNmzXv8U/hPNSWaJbKSm/P95m9cgC8QL2hd6L5wzcKvpYLSC2WuZeVlnxfxF134ecTPFT/3Lc5e3LrEa8mGpcSlkqU3lgUu27FcZ3nx8scrRq2oX8lcWbryr1XjV50v9yjfuJq6WrG6vSK6onGN9Zqlaz6vFa29XhlcWbfOZN3Cde/XC9Zf2RC0oXaj6cayjZ82iTfd2hy+ub7Ktqp8C3FL0ZanW1O2nv2F9Uv1NuNtZdu+bJdsb9+RsONUtXd19U6TnUtq0BpFTeeuMbsu7w7Z3VjrXLu5zqCubA/Yo9jzYm/m3hv7ovY172ftr/3V5td1BxgHSuuR+in13Q2ihvbG9Ma2g5EHm5v8mg4ccjm0/bDF4coj+keWHKUenXe071jxsZ7j0uNdJ3JOPG4e33z3ZNrJa6fiT7Wejjp97kzYmZNn2WePnfM/d/i87/mDF1gXGi56Xaxv8Ww58JvnbwdavVrrL3lfarzsc7mpbWTb0SuBV05cDbl65hr32sXrMdfbbiTfuHVzzM32W4Jbz2/n3359p+hO791Z9wj3Su9r3y9/YPKg6neH3+vavdqPPAx52PIo8dHdx/zHL5/In3zumPeU/rT8mfmz6uduzw93hnVefjH6RcdL6cverpI/dP5Y98r+1a9/Bv3Z0p3W3fFa9rrvzaK3Rm+3/+XxV3NPXM+DdwXvet+XfjD6sOMj6+PZT6mfnvVO+kz6XPHF4UvT16iv9/oK+vqkPBmv/1MAgwPNzgbgzXYA6OkAMGDfRh2t6gX7BVH1r/0I/Ces6hf7xQuAWvj9Ht8Fv25uArBnK2y/IL8W7FXj6AAk+QDU3X1wqEWe7e6m4qLBPoXwoK/vLezZSCsA+LK0r6+3qq/vyxYYLOwdj0tUPahSiLBn2BT6JasgC/wbUfWn3+X44x0oI/AAP97/BUvpkJ188R2WAAAAimVYSWZNTQAqAAAACAAEARoABQAAAAEAAAA+ARsABQAAAAEAAABGASgAAwAAAAEAAgAAh2kABAAAAAEAAABOAAAAAAAAAJAAAAABAAAAkAAAAAEAA5KGAAcAAAASAAAAeKACAAQAAAABAAABXKADAAQAAAABAAABJgAAAABBU0NJSQAAAFNjcmVlbnNob3TPqbZjAAAACXBIWXMAABYlAAAWJQFJUiTwAAAB1mlUWHRYTUw6Y29tLmFkb2JlLnhtcAAAAAAAPHg6eG1wbWV0YSB4bWxuczp4PSJhZG9iZTpuczptZXRhLyIgeDp4bXB0az0iWE1QIENvcmUgNi4wLjAiPgogICA8cmRmOlJERiB4bWxuczpyZGY9Imh0dHA6Ly93d3cudzMub3JnLzE5OTkvMDIvMjItcmRmLXN5bnRheC1ucyMiPgogICAgICA8cmRmOkRlc2NyaXB0aW9uIHJkZjphYm91dD0iIgogICAgICAgICAgICB4bWxuczpleGlmPSJodHRwOi8vbnMuYWRvYmUuY29tL2V4aWYvMS4wLyI+CiAgICAgICAgIDxleGlmOlBpeGVsWURpbWVuc2lvbj4yOTQ8L2V4aWY6UGl4ZWxZRGltZW5zaW9uPgogICAgICAgICA8ZXhpZjpQaXhlbFhEaW1lbnNpb24+MzQ4PC9leGlmOlBpeGVsWERpbWVuc2lvbj4KICAgICAgICAgPGV4aWY6VXNlckNvbW1lbnQ+U2NyZWVuc2hvdDwvZXhpZjpVc2VyQ29tbWVudD4KICAgICAgPC9yZGY6RGVzY3JpcHRpb24+CiAgIDwvcmRmOlJERj4KPC94OnhtcG1ldGE+CrQZwgMAAAAcaURPVAAAAAIAAAAAAAAAkwAAACgAAACTAAAAkwAADq4PGT5eAAAOeklEQVR4Aezd74tU1x3H8bM/Zmez2V1LsxrQVBKTUCu2sdggxdaCIRATS4xCiA9sKn1gyQMf5o/os/ZBqVBIig8MBaMBo0KqUFFoUFtNJTGkSUCzhtiY6O667m8736l3nTtzz8y5937vj5n7HpCZuT/OPef1vfNhcjN7T9fdysPwQAABBBBIXKCLwE3cmAMggAACVQEClxMBAQQQSEmAwE0JmsMggAACBC7nAAIIIJCSAIGbEjSHQQABBAhczgEEEEAgJQECNyVoDoMAAggQuJwDCCCAQEoCBG5K0BwGAQQQIHA5BxBAAIGUBAjclKA5DAIIIEDgcg4ggAACKQkQuClBcxgEEECAwOUcQAABBFIScA7c2bk5s1C5k2Opp8d0d3dH7t78/IKZW5g33V1dptTbG7kd2VH6I/2Sh7QlbcZ5aI1R+sA4w1cir/WkltQySCDK+eocuDdujpmZ2VmzZGjQDPSXg47vtGz89qSZmLxj+kol89B3hp32sW00XenPN5V+yeO7lbbKlTbjPLTGKH1gnOErkdd6UktqGSQQ5XwlcGskCdwaDMeXRQijIoxRyl2EcWY9RufAdfz8sRkCCCCAgEWAwLXAsBgBBBDQFiBwtUVpDwEEELAIELgWGBYjgAAC2gIErrYo7SGAAAIWAQLXAsNiBBBAQFuAwNUWpT0EEEDAIkDgWmBYjAACCGgLELjaorSHAAIIWAQIXAsMixFAAAFtAQJXW5T2EEAAAYsAgWuBYTECCCCgLUDgaovSHgIIIGARIHAtMCxGAAEEtAUIXG1R2kMAAQQsAgSuBYbFCCCAgLYAgastSnsIIICARcA5cLVmQ8j6jusWh+pirTFKY4yzmXTwuihTlgS39P+lWvWkls2Ug9dRy2AXArfGResDKk3yIa2BdXzJh9QRqmYzztkaDIeXWX8unQNXa0ZbZkB1OCvqNokyO2hdE763WrWURotQzyKMkVr6PiJOb6J8Lp0D16kHbIQAAgggYBUgcK00rEAAAQR0BQhcXU9aQwABBKwCBK6VhhUIIICArgCBq+tJawgggIBVgMC10rACAQQQ0BUgcHU9aQ0BBBCwChC4VhpWIIAAAroCBK6uJ60hgAACVgEC10rDCgQQQEBXgMDV9aQ1BBBAwCpA4FppWIEAAgjoChC4up60hgACCFgFCFwrDSsQQAABXQECV9eT1hBAAAGrAIFrpWEFAgggoCvgHLiTU9OVm03Pm/5ynyn19kbuhdzVf2Zm1vT09JiB/nLkdmRHuTH05NRUtY2B/v5Km92x2tMao3SCcYYvRV7rSS2pZZBAlPPVOXC1pvLIeoqLIDhvmdYYpT3G6am6PzPFjruVtyXnrCfh9pz159I5cMcmbpvZuXkzOPCAKfeV3EYXsJV8i7xT+Vfq7THDgw8GbOG+SKaKGZuYrO4wPDgQ65u3NKI1RmmLcYpCuEde60ktw9VRtqaWwWbOgRu8O0sRQAABBFwFCFxXKbZDAAEEYgoQuDEB2R0BBBBwFSBwXaXYDgEEEIgpQODGBGR3BBBAwFWAwHWVYjsEEEAgpgCBGxOQ3RFAAAFXAQLXVYrtEEAAgZgCBG5MQHZHAAEEXAUIXFcptkMAAQRiChC4MQHZHQEEEHAVIHBdpdgOAQQQiClA4MYEZHcEEEDAVYDAdZViOwQQQCCmAIEbE5DdEUAAAVcB58CV+1su3L1rSpWZGrq7o8+sIHdJn1uYN91dXbHvXyv9kX7JQ2ahkDbjPLTGKH1gnOErkdd6UktqGSQQ5Xx1DlytO8tnfcf1IDhvmdYYpT3G6am6PzPjg7uVtyXnrCfh9pz155LArakTJ28NhuPLrE/gZt3UqmcRxiiORRhn1mN0DtxmJzbrEEAAAQRaCxC4rY3YAgEEEFARIHBVGGkEAQQQaC1A4LY2YgsEEEBARYDAVWGkEQQQQKC1AIHb2ogtEEAAARUBAleFkUYQQACB1gIEbmsjtkAAAQRUBAhcFUYaQQABBFoLELitjdgCAQQQUBEgcFUYaQQBBBBoLUDgtjZii4wFPvn0c3Nl9Jq5/t+vzdXRUV9vvrdihVm2dMSsXLHcPPn4Y751vEEgbwIEbt4qQn8WBc68f9Zc+vCyuTU+vris2YslQ0Nm7ZrVZuOGp5ttxjoEMhMgcDOj58A2ga8q32QPHznmHLT17Ujwbtu6xTxc+ebLA4E8CRC4eaoGfTGXPrpsjr53UkXi+Wc3m7U/WK3SFo0goCFA4Goo0oaKQLOwleBc+chyI9dslwwPVY93a2y8ek33yhfXqkEd1AlCN0iFZVkJELhZyXNcn4BcRvjLgb/6lsmbJ1atMs9s2rgYsg0b3Fsg4Xvi1Bnzn88+a9jk1Z0vc3mhQYUFWQg4By53zw9XnqzvLN+st1q1lGNojXPfG/sbrtlu3vQz85N1P2o2lIZ15y58YE6eOu1bPjw0aH67+1e+ZWHeaI1RjpnXaYSkb0UYZ9ZjJHDlTLv3yGMQSdc6/UMqv0aQf7WPX2z8qdmw/se1i5xfB4Wu/HIh6q8Xsv6QNhs452wzncZ1WdfSOXC1ZrRlBtTGk6DVkiizgzZrU6uWcgyNetZ/u1316KNm+y+3xJqF+e0jx32XF+SXC3t272rGYl2nMUav8U6vZd7HmXUtnQPXg+QZAU0B+aOGQ+8e8zW559e7Wl6z9e0Q8Eau6e57c79vzUsvbOGPI3wivElbgMBNW5zj+QTkf3Sdv3BxcZn8GkF+WaDxkJ+XyS8fvMf6dU9V/wec955nBNIWIHDTFud4PoEDB9/x/bmu5s+46n9mJj8p27njRd/xeYNAmgIEbpraHKtB4Hd/+KNvmcblBK/BoMsKr+99zVvNMwKpCxC4qZNzwFqB+sDVDsSk268dC68RaCVA4LYSYn2iAkkHYtLtJ4pD4x0nQOB2XEnba0D1gcglhfaqH70NJ0DghvNia2UB/qeZMijN5VqAwM11eTq/c/wsrPNrzAjvCxC49y14lYEAf/iQATqHzEyAwM2MngN7AvV/2it3CNu+9TlvdaRnzT/tjdQBdkIgQIDADUBhUboCQTeviXKnMK/X2jev8drlGYG4AgRuXEH2VxGo/5YrjUYJ3aCwjXPjGpXB0QgC9wQIXE6FXAhwA/JclIFOJCxA4CYMTPPuAvX3Pqjdkyl2ajV43a4CBG67Vq5D+90sdMMOWfNGOGGPzfYIBAk4B+7k1HTlZtPzpr/cZ0q9vUFtOS2T2QtmZmZNT0+PGegvO+1j20huJjw5NVVdPdDfX2mz27ap03KtMcrBGKcTuW8jr543vvnWHP/bCTM2PuFb7/rGmyZ9qHLTcc5ZV7VinLNZfy6dA1drKo+sp7hodvppjVGOwTibSQevq59K6Nw/L5hLH15umOsseG9jJGjXrlm9OJWOVj2ppU3cvry+luVSyb6xw5pOqaVz4I5N3Dazc/NmcOABU+6LjiffIu9U/pV6e8zw4IMO1PZNZKqYsYnJ6gbDgwOxvnlLI1pjlLYYpyiEe9jqKX8ccWX0mrlemdn36uior1G5x+2ypSNm5YrlDbM5aNWTWvrInd7Yaum0c8BGnVJL58ANMGARAqkL1N/sRvt2jqkPiAMWSoDALVS523+wBG7717DIIyBwi1z9Nhw7gduGRaPLiwIE7iIFL9pBgMBthyrRR5sAgWuTYXkuBQjcXJaFTjkKELiOUGyWDwECNx91oBfRBAjcaG7slZEAgZsRPIdVESBwVRhpJC0BAjctaY6ThACBm4QqbSYmQOAmRkvDKQgQuCkgcwg9AQJXz5KW0hcgcNM354gxBAjcGHjsmrkAgZt5CehAGAECN4wW2+ZNgMDNW0XoT1MBArcpDytzLkDg5rxAdM8vQOD6PXjXXgIEbnvVq/C9JXALfwq0NQCB29blK17nCdzi1byTRuwcuHJD4YW7d02pMjVOd3f0qWxkGpW5hXnT3dUV+4bh0h/plzxk2h9pM85Da4zSB8YZvhIu9QwTuFr1pJbJ1DJMq51SS+fA7ZQpLpoVWWuMcgymZWkmHbzOZVqWMIGrVU9qGVyvZktdatls//p1nVJLAremslpFlSb5kNbAOr50+ZASuPcxr3xxzfz7o4/NtS+/NN/evHl/xb1XMv3QykeWG5lifsnwUMP6+gVFOGezHqNz4NYXh/cIZCEQJnCz6F8ax5Sp5M/846zz5JrSJwnfjRuergZwGn3kGMECBG6wC0tzKlDkwJ2anjaHjhxvmEgzTKnWr3vKPLNpY5hd2FZRgMBVxKSp5AWKGrhfVWYsfuvgYTM9MxMbednIQ+aVHdtMf7kcuy0aCCdA4IbzYuuMBYoYuM3CVi4V/HDN96uXDGqv08o+VytTy5//18XASw+EbjYnMoGbjTtHjShQtMCVywjyzfb61zd8YhKYmzf93OmarFzzPfH30w3fjuV/pj3/7GZfu7xJVoDATdaX1pUFiha4J06dMecvXPQpSlBurlyHDXNJ4NbYeOX679GG4H7phS3myccf87XPm+QECNzkbGk5AYEiBa6E5L439/sU5RLCzh0v+pa5vpFvy/ve2O/7prtkaMjs2b3LtQm2iylA4MYEZPd0BYoUuEffO2nkcoD3KPf1VcMxzDdbb1/vWX67+9bbh7231We5rCDfmnkkL0DgJm/MERQFihS4v//Tn33fRuV3tPIv7uPAwXd8Py17YtUqs33rc3GbZX8HAQLXAYlN8iNQlMAN+ia6d89vQl23tVXtk08/N4fePeZb/fre13zveZOMAIGbjCutJiRQlMA9d+EDc/LU6UVF7W+h9d+eX935snl46cji8XiRjACBm4wrrSYkUJTAPfP+WSP/vIfW5QSvvfrLCq9s3+b0EzNvf56jCRC40dzYKyMBAlcHvj5w+XmYjmurVgjcVkKsz5VAUODWL5OfOg0PD5tllf9Elr++WjYy0nbf3tL+hkvgpnOa/w8AAP//ncq5fQAAIv1JREFU7V1rkB3FdW5ptdr1anXB6EHYlWSQwGCVeDjItmxRuIxCYsmqCuCKH7goQwWXiH9AUq7yz/xI/tmVSswPx6rYwYQEFFWEZFsIDJYcZBQeEs8oPIy02F4JbD1A2pWW3dUr813RVz3n9sz09Jy5M3PvmardO4+e032+M/NN9+nu01POBJuSTRAoEIHf7XtbHTh0SB04eEgdHRkNfg+qicnJRolu/sJKddmiS+rH37n3+43z2Pn23d9U9FwogXEwf3BQLZg3oPSvcal0uzue3anwp7fln/qEwh/X9tCGn6jh/fsb4r5yy011bBonZCcXBKYI4eaCqwiNQGB8YiIg1MP1lx1Ea770EbeoJR+7Qq268Yb6ZUquaQjXlI/7yrzteukVtW37U40i4iPx1S/+eeM46w7F8etf/ZK6cM7srGLl/gQEhHATAJLLvAiAcO9d+6NUQnumT1f33HVn/R5KFD6Ee+nCheqW1Z9PVYZWJ/5DUNu//6H1oWzX3H6bOq82M3TO52D3a6+rLU9sa9xq4ts4KTu5IOBMuIePjKjJEyfUeTP7VV9vj3dhRo+PqWNj76vp3d1q1vk1bzm4cSIoz7tBubBdEMjqCWRm2bh0RBlEz2hL0OZsVErd9Ne/UelQU7ZtI8ePqyPB83Hy5Ak1NjZWd1UcOHS4XltGrTlqAyHteGanWnnjinozuyhbrr3vAXV0dLRRTJtbweeZpfjrFkRRejYUjNnx0dMmrmgdhXANq3AZFSKLNqyhVtNu0XpS/6Qu4ODAgJp1wYfVhRfOVYs/emlhH1CT6EBG11x1pZoydWrLKwk2nGjTP60tqasC2Gv/bSc8s0Xr6Ey4J06eVKeD/rXuri41NXj4fLdTp06rk6dPqalTpqjuadN8xdTvQ3lQLmyQBZlZNi4dUYZO1ZPWDm32QI103cObGp1XugZbBnvS5jbK39PToz5+5RL1x1dfqfpn9NlUcj6XRse9b/1WbfjZIyHZc2fPUl/54k2qNygTtjTPLNwU6zZsCnVImr7hTnhmi9bRmXBDVpcDQYAgoIlWN4FtzV9ySykPzdotLSB8nUs/frW69pqrGoRH03Adb92+Qz3/0stWcSDdm1evSuXPxUdu4+YtIbKFcFpjtmYoJ9kQEMJlg7IzBeFFfvSJrSFfI5Awa05VQubNvW+pN4eCv71DTeSk9ciTeDEsDsQIX3PchjIsX/ZJtTQg/7gNnZQ7nt1lJe+qfhTj9C37NSHcsluopOUDMaAWtmdoKLKEZR96FVnwDy7QWjtNr4mXa3ws8tv65FNWou/t7VXj4+O0CEEn9kx16aKFasHggKoFIxgwtAsfwYmAaOM+HLqjrEmgnMgVASHcXOFtT+GoBW4JarXm5ARTU9Rur1x8eX38rHm+qvtxxIvm/e23fjmTaqiFbgs+XsiHbiD1VcFoifnBhA34X5NqvvR+27GQrQ2V1pwTwm0Nzm2TC8Zv2ogBCuJFRm2PY6xoGQGzEW9WHyg6sjZtfrTJJQP9bb7aON9uEmYg7xWfva5tPoRJ+pbxuhBuGa1SwjKhFrbliV9aXQio0WImWLsSLTWHJt4li89+YOh112PbEC19b5x/Fe4cDBmL+vBpGfpXuz5a0dmn85RfOwJCuHZc5CxBAIRLm7R4kV06boiojj8Elhs3P2ad1gxMMQIBMR+SNsjZE3TwwWdrxqCAX7dWq6m5gT8Xvl0dhyJJnlzPHwEh3PwxbpsczOmmtuZu2yiaoyJx/m9MOV514+dyH3KWo3oiOgEBIdwEgORyGAE0ZTFkyhx8H04hR0AAvtbhffvq04N1UJg4/+sN11+XOMRLkK0+AkK41behaFAyBNDEx0w6bGZH1Y8f/M+mUQZoKSBmgyblkqkixWFGQAiXGVAR19kIwK96/4Prm0YdoFNxzuzZoam1115zdTCqY6m4EDrokRHC7SBju6iqw/bp+LMu90iaMAJRrgNgOj4xGUQie64+tlY6s8K4dcKREG4nWNlRR3OMrQyOdwQtIhmGbOmPl5kEpIthdJ0yhM7UXfaVEsKVp6COgI0gyki6aLJjxQjbNnfOrFI1z22YotwgXWArW+chIITbeTZv0tgWtg+JigxAc3ZcabDOWbDWGTqhRkZGmvyiTYp8cEKPQ8VY1rmB3xTjUYuqUUaRro5BG6WDnG9PBIRw29OuzlqhxkgnNOBm9J63eugXiH/3a2+oPcGws6Oj51Y6cFYmJqEO8rLkY5e3fESAjXQxegExGIr6EMRAJZdyRMCZcMfGJ4Kg2qeCJtv0TIHDsSzO5OQJ1RUEMs+yVA8wQTDhsQ8iKPUF0ZS6uvwDo0Mel46QVRU9t//Ps02h+9KQbVY9UZMFIe1+9XV2koUdbBvIF9Ny0ax3IbysOqIMpn9cl2nOrFnqjq9lC3zTic9sloULOGyp7efDP86Em3YpD10o+lv0Ehe0POYxl46QWQU9Dx8+rLY8/gsTgvq4UdRsXceF+uoJok0TD8AsJD4IPT295qkgHOF40xjXUIKIA5BuUsAdXx1plpR0ly29Vl3/mU/RZKmOO+2Zrfqais6EO3LseLCcxynV3/eh4KX0X6wRX+T3g7/uaV2q1j8j1cNFE2N5kZFjY/XTtf6+TDVvCOHSEbLKrud7R4+qjT/bErQ2JlHcxpY2+lVaPdMQLYh1/rx5AfnPUrWZNaf4AlCk7vMdHVHDb/9evf3OO+rwu+819IvaiSPetDpG5YHz//WzIDLY0SMB0X5GXbxgUJ7ZOLCMa1zvJqctffjHmXAN3WW34ghE+W3z7D1Hns+/9Eq9VhsHH+IJfHTRxaxDp0Dyw/v3q1/v/Y012plZHtR2JaqWiYjscyIghMuJZkVk2aaYYtbTiuuX56JBXMxXZIgOJKwV5upTzVJI7TPe9eLLkQHU4eO9afVKZ7dKlvLIvZ2FgBBuZ9m7ri1dfhtEh9ptHhvNy8wDxLZ82ScKG5OKzrodz+yM7KyLi0lr6iH7goArAkK4rki1WTrUOrH449w5c3IhW7gQogKW6xptGZru2tURVeOVkIlt9uAXrI4QbsEGaMfso3zE0LWsq0PA1YBRBPD10i3NMDl6rxwLAiYCQrgmGrKfGYGoWWsQXIWYr1HL3qBWnma4XBogzaXZ4cuGK0O29kRACLc97VqIVlFkW7VOqKhOvrxI93s/+GGoA2/N7bc5TcgoxMiSaSYEhHAzwSc3awTgRlh73wMh4sC1qjbHo9wiIN01d9zGGiSHdiwWGcNC21N+80FACDcfXDtKahQ5VZVstfFapZftYyXBbbQV2utXCLe97NmkDfyD27Y/levwq4eDFWj3DA2F8q462WplokgXoxduWf15nSzzLw1aLrXczJCWUoAQbinNwlco80XOY9wrbQ6j5O1CttoKUaTLOU4XoyTW/vgBnWX9V2q5ITja4kAIty3MGK0E/KpHjVCHIF34IDk2c7FELQ/yv37rl1h9nFp2kb8gXdtaZWljT8TpQFsKeU5IiSuHXMsPASHc/LAtXDJ62+9/aH2oHDd/YaXiWEurFQSkC468hoMg5L/b/3aw2sMhazByEH2tVqsHG18wOBAEvRlgJ30bnpwfGNsH7O41f8muh8ZVfluPgBBu6zFvWY6mOwGZctZuba4E7nG2mHrrEnAmClAdCAc1Ra7NNk6X07VA41xwY8qFg8jxQ0AI1w+3StxF3Qlc0cBs/kbOTp6kGAdpwceHhjNmw0MbftI0I41r7Cx0Nxef5MQ1LW6Snh8BIVx+TEsh0db85Wqe0kDaGJvKsVwMyoz4DgcO2ReJzAosOvNW3rgicxQwfHBQE50wYglz+lvph/Lbd38zq+pyf0kQcCZcBNs9feaM6g6Wxpk61X8pGyxLcfL0KTV1ypTMwZdRHpQLG5bdgMwsG5eOKEPRetKmrzmMKYuettotVi749CevzWRPWl5qR9RS588brAchtwUj10HH8Tu8b3+oo5DKSttMt9nS5lJxqeW6PLOo5W598qnA175QXbbwklifexZbUlxsetI0rscuerrKQjouPYvW0ZlwuZby4FquBEbA+kTvHhnBrrrg/Jrq6fZfiQIyuHSErKL1pM1e052QRU9au53Z369W/dmfqv4ZfWpWYAOfjco0ZeBDsfSaq5xXe9D3gnif3vm8+u3wsD4V+k1TI7XZ0tZp6CJTntmQGZwPsjyzZiY2W5rX0+z72FII10CYy6gQWbRh6fx8053gq6etdova4uDgoJoefOx8CDeKbAcHBtSffPa6TM1/6Pn7AwfViy+/Ul9qxzB1fdeFIONsSf2tSJtUy/V5SeuFjfjna0ubuKRnFpNo9EgRGlUNvmYsR48RIhgFU1Y9k3S04RJ1zkdHZ8KNylTOlxOB79z7/UbB4LuEjzXrRpvR8N3ec9ed3mKjyDZtk9+lAFEuC1fSjcqDftg4RyxE5dnq87B7mlWV4f7BqsgS9azZUkK4zZhU/gyau/eu/VFDD67lc2hnThZysREgCPzm1atSuw8aiibswM2wcfOWUGcXbslC8PQjxDn0LkGd3C+jE3PT5mDRS2PiTJpMgYUsVRRGTAg3jEdbHOmJAm8OvaXe3DsUrOiwIrbjxUVp26iHpOZzlFybLJBtXvFmzXIg73UbNjWRru+MMZubxVeWWc6i923uEt8ymf0HvjLa5T4h3HaxZM560EkU5qiHtFnTwf24v5VxA1DTXffwplCxs7hd6JRcrhZFqIAtPIgjWz2ZBD7b82oz66XCRydpVWQh3bMGFMJt4YNc5ayoO8H3BbK9zFma9L6Y2lwaXDpV2a1ga30AYxAs8NEkG4U7yBe+edqphvTtUPOP0tv1vBCuK1IdnM7WbPZ1J1DiLnImFR0650uUnPiYj1l9THGwxpr+5YqDYeZB96l9cN3ng2j7oPniS8tY5WMh3Cpbr0Vlx3CgjY882sjNt/ltq90WWeux1eZ8a7nUTcJBjuZIE4Cft6uCdgAiTx+yxX3YbKSbpaP1rNRq/xfCrbb9WlJ6+iL6vvjU15nFD8ylOFeZqI+bg1hoDTzv1gCt3XLkR3Xo9FquEC7Xm9vGcuhL41MLpEPVAFcrO8qizGPrQDMniUTdR8/T2jsHWdEPXZ5kRVsx0M/XbWRiY3O3cNT+zTyqtC+EWyVrFVRWWvPxIUr6QudJHmlhovr5EAIlbg79KIlDr7wC2dAaOmfrg7YifFtIae1axvRCuGW0SoYywe+H2tWCIAC3/s0grn4r9SX6vPT0hc46wyurTub9dMabLyFw4GSWi5I4rvlgb8qM2udoxUTJph8Ojtp/VF5lPy+EW3YLpSwf90tvcwX4vPR5vtApIWpKzkUIFHsf14RZOBvhmtfz3OdwJ+jy2dwKPs+QllflXyHcKlvPUnb60md9sOlL7ztCgTbbfdwSFnVZTlEdfd0BdKRCVh1puViUdRSS9bmh2XA/l1R+VY6FcKtiKcdycj/Y9KX3bQ5yl8sRDudkHOWjtXgh3HPwc+B7Tlp194Rwq2s7a8m5H2whXCvM1pPtRLjiUrCaOPNJIdzMEJZLACVc7lqW1HCj7c1NuFz+8+gSn7tCy+4z9O+ctPAel488LLWaR0K41bRbZKmFcCOhib1AcfPxYVLSyvqxQ4E5yhWr+AcX6SgSGRbmglr6NM6EyxVZvuiI63EQcemIPIrSk76gtpc+jZ7UpUA7zVz1dOk084mgz2FPqiPtNHPV0aXTrCgd43DCNTpOGueyuBW0nseOH1cbf7oZ4hqbzzjnNM9sIyPLjqstLbc2ndI64oLrEl9CuAaMXEaFyKIMy024Sc1aVz1p7c/WZPV5gA3zNe262jOpyeuqI8XeNiysKB2bwLGc+Od//Tc1euxY44qv+wgCtJ6Pb92m/hAsc6Q3+jHT55N+XW2ZJMfVlklycF3riH12wm2XVTMBTtTGpSPkF7U6KCU2Ww03rZ6USMzmtquetMlqm/hQ1EqvSRMfXHWMw0k/c0XpqPOP+/3VM8+pp5/bFUriG7wGeu584SX15I6nQ/J8Y0ykfWZDmRoHrrY0bonc9bGlcw03Mle5UCoEXAg3bYFd3AFJMmmT1bemk5SPz3Wqn0+TN8kt4VOuIu6hWKAMPqRrixRWJpsXgS3yFMItCvmc8qU1SVsNN23WlMRt7oAkmTbXBEfZkvJNuk6JEultroAkOUluiaT7y3LdFrISZYN7AXaXAOTZLCWEmw2/0t1NI0z5kCNVisr0jTVAg5hw9oTTMrsec5WJfuh8m86u5c4zHf14mHnBZh9ddHGdgDX5YuquLLFjohS9L4QbjU0lr9CmO8eLT2XSkQquQNleZAlA7opea9PZbOVbAo6Pvm/eZbtPCLdsFslYHtpEtnVOpc3CFnzEd8gQ9RFm6QlPqwdNT10lvj5GTnxoGYs8hntBlknntYAQLi+ehUujhOtbG6WKUKL0rbXYak4+nTK0fGmPbZ06XDr5Erepg7YjPkicoTbNPFz34VLa/err6ujoqNMt0H/J4isUWleyhREQwg3jUfkj/aKaipjDuMzzafapjzKL/5VOEEA5WtmBZsMoy4eJ+oF9fdymPWxl5LCjmUfafbiWfrf/bXUgqPnSVXnxYZg7Z7ZaMDigLlt0SVrRHZNeCLdjTJ1NUVvvta9bwSarZ/p09ZUv3qQuDF7aPDfkvW7DJjUxORnKxteXbHMn+MoyC0Rr4EW6XsxyyX42BIRws+HXUXdTt0KWDjlKKAASpHvz6lX1JnQewKLWuHHzliayzeLSoCM4ONwJ0J1OxsiCdR5Yikw/BIRw/XDryLsouYAg77nrTm8sKKloQVkIUMugvzaCR5qsnYrf+8EPQwTORYxUbitdLhQ7OeZDQAiXD8u2l2RrPvt2NGmwokgXTegbrl+e2cUAF8K27TuafI7IPyvZ2joAfd0sGg/80mF4OFe0/xZlkC07AkK42THsKAmUINGE/vqtX1K9PT3eOFCZpiB0zi295qrUbga4D1Cr3TM0ZIpr7GclW8ycu//B9aGe+6wydeEoHuK/1chU/1cIt/o2bKkGtlouRzM6qsmvlQOxz593dohUbWatiYBBsCOjIwq/w/v2h4hQy9C/HC4L6l6BbI7arW0KNAe+Wnf5LRYBIdxi8a9k7rQGBl/u7bd+OXGefZKyaP4/+sRWdeDQ4aSkXtcx9GvljSsyuynw0cHQNnOkA1ft1uam4Bj14AWY3MSOgBAuO6TlEgh/4JtDwd/eoSD4yAqWMZK2Wi5nsxeks+OZnbG11DQoo3a8fNkn6j7bNPdFpaUz1JCOo3YLOXRMb9aOSciUrTwICOGWxxa5lMSM0cpVC0NBbU1qjqa6CQKI99d7fxPphzXT2vZ1oBXozbXZXB9cTX6bO4HTZlwYiBx/BJwJd2x8IgiqfSroHJmuuqdN884RUdInJ0+orq4u1dfr39GCAiCY8Nj4eL0sfb29gcyp3uXCjVw6QlZZ9DRrY7q2xKGnrdMIemdp/kbZE3kNB75ZPctpZGSkqfaLWmytVmvMdpo/b0CdPoNnhO+Zfe/IkfqkCeipt7SdhlE6Qh70PHDwcH1ERd0XvX+/SorNy2FLrUtZnlldHvOXS8+idXQm3HZZ4sI0It3n0hFyi17KQ+tGa2QYxnXRRQNqMvjwnTezP9NHzzZjLC0B6XLiFy/Du0dG6qdclywx76f7XPaELVGuRx77ucIaXeaW9gNTVh2hU1meWRNfvc9py2Nj76vp3d1q1vk1Ld7r18eWzoQ7cuy4OnHylOrv+1AwI6jbq4C4CV+q94O/7mldqtY/w1sObsSyGyPHxuoyav19mWreEMKlI2SVRU/aTAUhfvUvbmGxJfT87x3PqOeefwG7jQ2dU5imm3aoWFnteSToJNsQLIR4+N33Gjpix8eVUFYdoU9ZnlmUhW5c72bROjoTLgVAjquDAB1VkHWyAtWcdvTgui/pUtlFH+ODhdgLdOREluA9Resk+ReHgBBucdi3LGf4A9c9vKmRH3y5a+64LXUNtCGA7ESRUtVJt131IuaTwxYiIITbQrCLzMrsPEM5OEIImvqAnBDcxhybiutVJd0osuX+WJkYyn77IyCE2/42rmtIa7k4yR0QJSr0IfzGN61emXnCQatMBT1sKx2AbFsRQrJVeko+rUdACLf1mBeSIyZAPPfCS2r/O+808gcRwrXAuUWRLvLgHqfLWW4ti47q0OfzIlsEdh/et49lBpwuq/yWFwEh3PLahq1kutNs1gUfDvW0+/SyuxQqqjmOezEjDZ12esVXF3mtSIPZc8CJrmSAvPNyi9CoYHnZoxX4SR5uCAjhuuFUyVQgvi1P/DI0UwvkgY0jpkAcKLa8dXrUFpd+/OrAj3wVW8edlp32F+V8PogqtuvFl5v8z5CF0QirbvwcezltLQHYBjEpZGtfBIRw29S2cbXMtIP1s0BkmwKs5cGlwRnjQMt1/U2K2ZBXjTPKNq20iytGko4XASFcXjxLIc1We0LBULPkCmCTRtGoTigtQ9d4ETcgb1cDXAcg2qgaLcqUdycfHTGCPPMid8iWrTwICOGWxxYsJYFfcEsQ4pAOz8qr08e10Lrpjhpv3KYDzsDXy0W+IFn4Zl0C4YD48nR10NWPgQVnpLU4bOVa8QgI4RZoA5CjDshCO2vwEqZddho1N3T80C2vTh+aj8sxyA+ki7ImbSj3/HnzguFks5Qt6HjU/RgCh2Dkf0AgmGAEAJ0lZrsPtWuQLRfJ2/Kw2QcfQo5Ywrb85Fz5EBDCLcAmdcJ59fWmiFdRRUETd8nis4QQlUaPRKDX8+r0ofmkPU5DvFQ2iLinpzd0emJi3IlYQzcFB60gWuQZ5eZJigZGyyvH1UZACLeF9kvyZSYVxeZbRFOdjkTQctLGUkX5sOICapUrggUcW7Fpn+ruFB+grOXSH7BW+IxR1qhOMonHkNWS1btfCLdFNrM1J32z1sFnol5kyNVpXPOgownS3u+aT1w6EP7u195Qe4LVKY6OjsYlTX0NJHvpooVBjfbyls94g52wcrDpRkF5si6+mRoEuaFwBIRwW2CCOLJFLWtBECzb7CTSnTzwRZovqVnU65Z9Uu0MZo7ZOsd8RiJgjS7q6yyCdLWOwOBAQMAHDh2qLwxpCzqu09JfkBmCkQPXubNn133hefpmaf5Rx6bbh3tadVSecr5cCDgTLuJ4nj5zRnUHKzVMneq/sgIi3p88fUpNnTIlc/xalAflwoZVKCAzy8alI8qg9Tx8+F317+s3NBULzUk025OIAMSz9cmn1J633mqSQU+4jkSw6RnlY0wiXa1nq+yJ2iJWRbBtc4PONTMGr01P231J5zh1fOTxbao7iCf92eXLSvvMtsqWSbib18toSx/+cSbcdom4bhqR7nPpCLk6ev7GIHA1XSUgbUwBRJbf8ewuteuFF2mRG8dpRiJE6RlVE48jXa1nURH0GwBYdqL0tCSNPdUJOgKATtCzaB2FcI1XjesF1Q8v/KKv7P4/Iwe/AC56KY/X3vi1lXTTjkSI0zOKdKM64Ip+gEPgkoM4PUnS2MNO0BEAdIKeRevoTLixT6RctCKA+LBm5w9HrzRdXQE1y7/+q29Y8/c9GRUxK4p0ffOR+wSBTkNACDcni9NIUMhmze23Jfpsk4oDn+7aHz8QSpbHWM60Nd1QgTrwQA+pmztnTn2ESAdCICo7ICCE6wCSTxI6hZOzdmj2dqNs3Ks3aH1tpAtfsUS00gid/aVD6jhtHc5JjqqOgBBuThakAUriOp7SFoESYZ5z8TE0bePmLY3hZxLR6py1gM227b9qGk6HFEK653CSvXMICOGew4J17zv3fj8kj8OdoAXa3Arfvvub+jL7L/ID6V4WTBxAvAHZVD0eBGq2UVterY6o/OR8NRAQws3JTpRwuQkxb/k5wVJ5sdpXSyeJaMUw6QLB3THpQjZBgCIghEsRYTrOmxDzlp8WBvisMSW3yIDiacucJj0mXGBliLhabdrheWnyl7TtgYAQbk52pIRYZZdCEkTwZa57eFMjGWp57Ua8INz7H1wfGuanFcYMP5/p1Pp++e0cBIRwc7J1u3SaJcETR0TtRry0sxLYoMMSHaJJU7STcJTrnYGAEG5Odm6HYWGu0FBd6X3tRLzmZBZZFodaWo6TEBDCTULI83rVJz6kVTtuiJSWhaY3RjpctvCS4PcSfbpSv6jlYj20vFc9rhQoUlhnBIRwnaFKn9CsDeHuPKb2ova45o7b0hcupztASDue2Wn1dZpZco/aMGW77sMdMhz4n7HMkV6KJ49Ze67lkXTtj4AQbo42pjOQkFXaSGFm8WwxDsrarAXx/u+rb9QXbzR1wH6eEzVoXjhG7RvbBEI7BvF1sdbZwYMHrR8FmbBQh0r+5YSAEG5OwGqxtJaL8z6kayPbstVutc7mL8atYjjVm8GQMR0sPekjgREemEKMuATojEIQ8Z6eHlNsY99lvCsdMdK42bIDt8c9d91puSKnBIHsCAjhZscwVgII5/6H1jelgXvBOQA5xrgODTXJqNI0Wz2OFf7Pm1evip0YkIYgAUqSe8JFHj5eWIJnweBAZf3LTQ+InCgdAkK4LTCJbTiRzhZNWJ8ldjhjM+iylOXXhSDNsvoSribZItY5M8sv+52DgBBui2wdR7ppi9DOZAss8iJcuAvgpsAIiflBTfbCObPTQi/pBYFMCDgTrkTPT4ezLbI83AubNj9q7axxkT5jRp+6adXn1eBFf+SSPDINly2RgU3PyIwTLuiVLYb37VdHjh5VWA/OZfHIqBoul5556AgoLji/pnqCAPJZNi4dUYZO0LNoHYVwjae9VQ8vRi/sfvV1Z+KtzexXF3/kI+rqK5fIS2rYK2mXy55Fv6RxenLpiDw6Qc+idXQm3HZZNTPu4eXSEXm4rPSKyREYA4rlwIf37w8VDUOn5gZNXnTiLFp4celXJ5aVXkPmizzwWek1UlhwodXPbFxZzGtl1dPlvTT1iNv30dGZcOMylmuCgCAgCAgCyQgI4SZjJCkEAUFAEGBBQAiXBUYRIggIAoJAMgJCuMkYSQpBQBAQBFgQEMJlgVGECAKCgCCQjIAQbjJGkkIQEAQEARYEhHBZYBQhgoAgIAgkIyCEm4yRpBAEBAFBgAUBIVwWGEWIICAICALJCEw5MjJyBlGTZBMEBAFBQBDIF4EpP/nF1jNXX3GF+kgwhVQ2QUAQEAQEgfwQmLLhsZ+fgfhrlywR0s0PZ5EsCAgCgoCq13BPnjxZh0JIV54IQUAQEATyQ2DK5IkTZ7Y/d26V1SsWLVKLL12UX44iWRAQBASBDkWgPkoBId5M0l0wMKCWBrFXZRMEBAFBQBDgQ6AxLExIlw9UkSQICAKCgA2BRqeZ7aJZ0x0bnwiCap9SvT3TVfe0abbkTuewjMrk5AnV1dWl+nrtS187CQoSIZjw2Ph4PXlfb28gc6rrrdZ0XDpCuOhphTj2ZFntKbaMNZv1otjSCotyJlyupTyKXuLCDsPZs1w6QproGYe0/Zpe0wxXy7Tel9jSbq+4s2JLOzrOLoWRY8eD5TxOqf6+D6me6f4L36EW+X7w1z2tS9X6Z9hL5XgWbpCRY2P11LX+vkw1bwjh0hGyRE+gkG4rqz3FlunsiNRiSztm0mlmx0XOCgKCgCDAjoAMC2OHVAQKAoKAIGBHQCY+2HGRs4KAICAIsCPQ6DSTWWbs2IrADkJg96tvqNHRYw2N5w1epObPk/gkDUBkp46ABK+RB0EQYEDgjjV/o55+9vmGpG/ds0Z9446vNY5lRxAAAm0RnnF439vqb//+uyGLLll8ufrWPXeFzslBaxBYv+Gn6tHHf+mUGWwEW1V9y0K4uDdu+8yyperTn1raFjjF6dkJ1xrDwqqs7L/c9x/qH763NqTCebWZ6tntj4TOyUFrELDZIyrn+9b+Y0Am10Zdrsz5LIR7xTXXO+kJnP7pu3+n8GxzbqiwPPbEuQ9k0TXzspWHE+v/B96rO+fHFM2WAAAAAElFTkSuQmCC;" vertex="1" parent="1">
          <mxGeometry x="650" y="162.5" width="100.61" height="85" as="geometry" />
        </mxCell>
        <mxCell id="DRB7Dr7BawN4_-SsMaci-8" value="&lt;b&gt;Customer Data to Train the Model&lt;/b&gt;" style="text;html=1;strokeColor=none;fillColor=none;align=center;verticalAlign=middle;whiteSpace=wrap;rounded=0;" vertex="1" parent="1">
          <mxGeometry x="86.54" y="420" width="110" height="30" as="geometry" />
        </mxCell>
        <mxCell id="DRB7Dr7BawN4_-SsMaci-14" value="&lt;b style=&quot;color: rgb(0 , 0 , 0) ; font-family: &amp;#34;helvetica&amp;#34; ; font-style: normal ; letter-spacing: normal ; text-indent: 0px ; text-transform: none ; word-spacing: 0px&quot;&gt;&lt;font style=&quot;font-size: 13px&quot;&gt;AWS S3&lt;/font&gt;&lt;/b&gt;" style="text;whiteSpace=wrap;html=1;align=center;" vertex="1" parent="1">
          <mxGeometry x="86.53999999999999" y="120" width="110" height="30" as="geometry" />
        </mxCell>
        <mxCell id="DRB7Dr7BawN4_-SsMaci-15" value="&lt;b style=&quot;color: rgb(0 , 0 , 0) ; font-family: &amp;#34;helvetica&amp;#34; ; font-style: normal ; letter-spacing: normal ; text-indent: 0px ; text-transform: none ; word-spacing: 0px ; font-size: 13px&quot;&gt;AWS Fraud Detection Model&lt;br&gt;&lt;br&gt;&lt;/b&gt;" style="text;whiteSpace=wrap;html=1;align=center;" vertex="1" parent="1">
          <mxGeometry x="343.32" y="110" width="110" height="30" as="geometry" />
        </mxCell>
        <mxCell id="DRB7Dr7BawN4_-SsMaci-20" value="&lt;b style=&quot;color: rgb(0 , 0 , 0) ; font-family: &amp;#34;helvetica&amp;#34; ; font-style: normal ; letter-spacing: normal ; text-indent: 0px ; text-transform: none ; word-spacing: 0px ; font-size: 13px&quot;&gt;AWS Fraud Detection Logic&lt;br&gt;&lt;br&gt;&lt;/b&gt;" style="text;whiteSpace=wrap;html=1;align=center;" vertex="1" parent="1">
          <mxGeometry x="640.61" y="110" width="110" height="30" as="geometry" />
        </mxCell>
        <mxCell id="DRB7Dr7BawN4_-SsMaci-32" value="&lt;b&gt;&lt;font style=&quot;font-size: 9px&quot;&gt;Low Fraud Risk&lt;/font&gt;&lt;/b&gt;" style="rounded=0;whiteSpace=wrap;html=1;fontSize=11;" vertex="1" parent="1">
          <mxGeometry x="480" y="395" width="90" height="50" as="geometry" />
        </mxCell>
        <mxCell id="DRB7Dr7BawN4_-SsMaci-33" value="" style="rounded=0;whiteSpace=wrap;html=1;fontSize=11;" vertex="1" parent="1">
          <mxGeometry x="827" y="395" width="90" height="50" as="geometry" />
        </mxCell>
        <mxCell id="DRB7Dr7BawN4_-SsMaci-43" value="" style="edgeStyle=segmentEdgeStyle;endArrow=classic;html=1;rounded=0;fontSize=11;startArrow=none;" edge="1" parent="1">
          <mxGeometry width="50" height="50" relative="1" as="geometry">
            <mxPoint x="770" y="340" as="sourcePoint" />
            <mxPoint x="870" y="390" as="targetPoint" />
          </mxGeometry>
        </mxCell>
        <mxCell id="DRB7Dr7BawN4_-SsMaci-53" value="&lt;b&gt;&lt;font style=&quot;font-size: 10px&quot;&gt;&amp;gt;900&lt;/font&gt;&lt;/b&gt;" style="edgeLabel;html=1;align=center;verticalAlign=middle;resizable=0;points=[];fontSize=9;" vertex="1" connectable="0" parent="DRB7Dr7BawN4_-SsMaci-43">
          <mxGeometry x="-0.9733" y="-2" relative="1" as="geometry">
            <mxPoint x="28" y="-2" as="offset" />
          </mxGeometry>
        </mxCell>
        <mxCell id="DRB7Dr7BawN4_-SsMaci-45" value="" style="edgeStyle=segmentEdgeStyle;endArrow=classic;html=1;rounded=0;fontSize=11;entryX=0.333;entryY=0;entryDx=0;entryDy=0;entryPerimeter=0;" edge="1" parent="1" target="DRB7Dr7BawN4_-SsMaci-32">
          <mxGeometry width="50" height="50" relative="1" as="geometry">
            <mxPoint x="700" y="340" as="sourcePoint" />
            <mxPoint x="690" y="290" as="targetPoint" />
          </mxGeometry>
        </mxCell>
        <mxCell id="DRB7Dr7BawN4_-SsMaci-46" value="&lt;font size=&quot;1&quot;&gt;&lt;b style=&quot;font-size: 11px&quot;&gt;&amp;lt;700&lt;/b&gt;&lt;/font&gt;" style="edgeLabel;html=1;align=center;verticalAlign=middle;resizable=0;points=[];fontSize=11;" vertex="1" connectable="0" parent="DRB7Dr7BawN4_-SsMaci-45">
          <mxGeometry x="0.2571" relative="1" as="geometry">
            <mxPoint as="offset" />
          </mxGeometry>
        </mxCell>
        <mxCell id="DRB7Dr7BawN4_-SsMaci-49" value="" style="edgeStyle=segmentEdgeStyle;endArrow=none;html=1;rounded=0;fontSize=11;" edge="1" parent="1">
          <mxGeometry width="50" height="50" relative="1" as="geometry">
            <mxPoint x="700" y="340" as="sourcePoint" />
            <mxPoint x="770" y="340" as="targetPoint" />
          </mxGeometry>
        </mxCell>
        <mxCell id="DRB7Dr7BawN4_-SsMaci-50" value="&lt;span style=&quot;color: rgb(0 , 0 , 0) ; font-family: &amp;#34;helvetica&amp;#34; ; font-style: normal ; letter-spacing: normal ; text-align: center ; text-indent: 0px ; text-transform: none ; word-spacing: 0px ; background-color: rgb(248 , 249 , 250) ; display: inline ; float: none&quot;&gt;&lt;b&gt;&lt;font style=&quot;font-size: 9px&quot;&gt;High Fraud Risk&lt;/font&gt;&lt;/b&gt;&lt;/span&gt;" style="text;whiteSpace=wrap;html=1;fontSize=12;" vertex="1" parent="1">
          <mxGeometry x="840" y="405" width="100" height="30" as="geometry" />
        </mxCell>
        <mxCell id="DRB7Dr7BawN4_-SsMaci-51" value="&lt;b&gt;&lt;font style=&quot;font-size: 9px&quot;&gt;Medium Fraud Risk&lt;/font&gt;&lt;/b&gt;" style="rounded=0;whiteSpace=wrap;html=1;fontSize=11;" vertex="1" parent="1">
          <mxGeometry x="660.61" y="395" width="90" height="50" as="geometry" />
        </mxCell>
        <mxCell id="DRB7Dr7BawN4_-SsMaci-54" value="&amp;nbsp; &amp;nbsp; &amp;nbsp; &amp;nbsp; &amp;nbsp; &amp;nbsp; &amp;nbsp; &amp;nbsp; &amp;nbsp; &amp;nbsp; &amp;nbsp; &amp;nbsp; &lt;br&gt;&lt;br&gt;&lt;br&gt;&lt;span style=&quot;white-space: pre&quot;&gt;	&lt;/span&gt;&lt;span style=&quot;white-space: pre&quot;&gt;	&lt;/span&gt;&lt;span style=&quot;white-space: pre&quot;&gt;	&lt;/span&gt;Simple Customer Fraud Detector on AWS" style="text;strokeColor=none;fillColor=none;html=1;fontSize=24;fontStyle=1;verticalAlign=middle;align=center;" vertex="1" parent="1">
          <mxGeometry x="364" y="560" width="96" height="40" as="geometry" />
        </mxCell>
      </root>
    </mxGraphModel>
  </diagram>
</mxfile>
